SplineFontDB: 3.0
FontName: Mate-Italic
FullName: Mate Italic
FamilyName: Mate
Weight: Regular
Copyright: Copyright (c) 2011, Eduardo Tunni (http://www.tipo.net.ar), with Reserved Font Name "Mate"
Version: 001.001
ItalicAngle: -10.8
UnderlinePosition: -50
UnderlineWidth: 50
Ascent: 800
Descent: 200
sfntRevision: 0x00010083
LayerCount: 2
Layer: 0 1 "Back"  1
Layer: 1 1 "Fore"  0
NeedsXUIDChange: 1
XUID: [1021 288 713564382 15248169]
FSType: 0
OS2Version: 2
OS2_WeightWidthSlopeOnly: 0
OS2_UseTypoMetrics: 1
CreationTime: 1319809646
ModificationTime: 1319834945
PfmFamily: 17
TTFWeight: 400
TTFWidth: 5
LineGap: 0
VLineGap: 0
Panose: 2 0 0 0 0 0 0 0 0 0
OS2TypoAscent: 158
OS2TypoAOffset: 1
OS2TypoDescent: -62
OS2TypoDOffset: 1
OS2TypoLinegap: 0
OS2WinAscent: 0
OS2WinAOffset: 1
OS2WinDescent: 0
OS2WinDOffset: 1
HheadAscent: 0
HheadAOffset: 1
HheadDescent: 0
HheadDOffset: 1
OS2SubXSize: 700
OS2SubYSize: 650
OS2SubXOff: 0
OS2SubYOff: 140
OS2SupXSize: 700
OS2SupYSize: 650
OS2SupXOff: 0
OS2SupYOff: 477
OS2StrikeYSize: 50
OS2StrikeYPos: 250
OS2Vendor: 'TIPO'
OS2CodePages: 20000001.00000000
OS2UnicodeRanges: 800000af.4000204a.00000000.00000000
Lookup: 4 0 1 "'liga' Standard Ligatures in Latin lookup 0"  {"'liga' Standard Ligatures in Latin lookup 0 subtable"  } ['liga' ('latn' <'dflt' > ) ]
Lookup: 257 0 0 "'cpsp' Capital Spacing in Latin lookup 0"  {"'cpsp' Capital Spacing in Latin lookup 0 subtable"  } ['cpsp' ('latn' <'dflt' > ) ]
Lookup: 257 0 0 "'case' Case-Sensitive Forms in Latin lookup 1"  {"'case' Case-Sensitive Forms in Latin lookup 1 per glyph data 0"  "'case' Case-Sensitive Forms in Latin lookup 1 per glyph data 1"  } ['case' ('latn' <'dflt' > ) ]
Lookup: 258 0 0 "'kern' Horizontal Kerning in Latin lookup 2"  {"'kern' Horizontal Kerning in Latin lookup 2 per glyph data 0"  "'kern' Horizontal Kerning in Latin lookup 2 per glyph data 1"  "'kern' Horizontal Kerning in Latin lookup 2 kerning class 2"  } ['kern' ('latn' <'dflt' > ) ]
MarkAttachClasses: 1
DEI: 91125

StartChar: j
Encoding: 106 106 1
Width: 245
Flags: HMW
HStem: -262 21G 442 20G<198 200> 642 20G<207.5 224.5>
VStem: 150 89<569.5 636.5>
LayerCount: 2
Fore
SplineSet
216 662 m 0,0,1
 239 662 239 662 239 627 c 0,2,3
 239 602 239 602 227 567.5 c 2,4,-1
 223 556 l 1,5,6
 194 547 194 547 176 547 c 0,7,8
 150 547 150 547 150 578 c 0,9,10
 150 601.875 150 601.875 158.5 628.4375 c 128,-1,11
 167 655 167 655 168 655 c 0,12,13
 199 662 199 662 216 662 c 0,0,1
207 427 m 1,14,-1
 138 72 l 2,15,16
 123 -2 123 -2 80 -90.5 c 128,-1,17
 37 -179 37 -179 -36 -262 c 1,18,-1
 -60 -241 l 1,19,20
 52 -88 52 -88 79 69 c 2,21,-1
 136 394 l 1,22,23
 89 399 89 399 56 424 c 1,24,-1
 62 443 l 1,25,-1
 198 462 l 1,26,27
 207 462 207 462 207 427 c 1,14,-1
EndSplineSet
EndChar

StartChar: k
Encoding: 107 107 2
Width: 463
Flags: HMW
HStem: -12 21G<37 41 291.5 303> 412 56<354.5 362.5> 742 20G<242 244>
VStem: 176 75<691 694> 379 64<360 384.5>
LayerCount: 2
Fore
SplineSet
275 195 m 1,0,1
 288 151 288 151 343 53 c 1,2,3
 407 46 407 46 433 26 c 1,4,-1
 427 7 l 1,5,-1
 303 -12 l 1,6,7
 286 -12 286 -12 254.5 80 c 128,-1,8
 223 172 223 172 223 219 c 1,9,10
 300 242 300 242 339.5 287 c 128,-1,11
 379 332 379 332 379 372 c 0,12,13
 379 412 379 412 354 412 c 0,14,15
 296 412 296 412 149 169 c 1,16,-1
 112 3 l 1,17,18
 72 -12 72 -12 37 -12 c 1,19,-1
 22 -3 l 1,20,21
 70 90 70 90 123 344 c 128,-1,22
 176 598 176 598 176 694 c 1,23,24
 129 699 129 699 96 724 c 1,25,-1
 102 743 l 1,26,-1
 242 762 l 1,27,28
 251 762 251 762 251 727 c 0,29,30
 251 650 251 650 160 253 c 1,31,32
 235 375 235 375 286.5 421.5 c 128,-1,33
 338 468 338 468 381 468 c 0,34,35
 443 468 443 468 443 384 c 0,36,37
 443 340 443 340 402 287 c 128,-1,38
 361 234 361 234 275 195 c 1,0,1
EndSplineSet
EndChar

StartChar: z
Encoding: 122 122 4
Width: 404
Flags: HMW
HStem: -12 21G<16 16> 3 41 451 20G<395 395>
LayerCount: 2
Fore
SplineSet
302 405 m 1,0,-1
 112 389 l 1,1,2
 89 420 89 420 81 445 c 1,3,-1
 87 462 l 1,4,5
 142 449 142 449 343 445 c 1,6,-1
 395 471 l 1,7,-1
 414 456 l 1,8,-1
 106 44 l 1,9,10
 276 47 276 47 338 63 c 1,11,-1
 344 46 l 1,12,13
 335 19 335 19 313 -7 c 1,14,15
 299 -6 299 -6 51 3 c 1,16,-1
 16 -12 l 1,17,-1
 0 1 l 1,18,-1
 302 405 l 1,0,-1
EndSplineSet
EndChar

StartChar: x
Encoding: 120 120 5
Width: 426
Flags: HMW
HStem: -11 21G 443 20G
LayerCount: 2
Fore
SplineSet
392 10 m 1,0,-1
 266 -9 l 1,1,2
 249 9 249 9 234.5 45 c 128,-1,3
 220 81 220 81 214 108 c 128,-1,4
 208 135 208 135 196 190 c 1,5,6
 162 157 162 157 126 110 c 1,7,8
 86 41 86 41 74 4 c 1,9,10
 34 -11 34 -11 4 -11 c 1,11,-1
 -10 -2 l 1,12,13
 71 128 71 128 186 232 c 1,14,15
 160 351 160 351 125 397 c 1,16,17
 104 399 104 399 79 407.5 c 128,-1,18
 54 416 54 416 46 424 c 1,19,-1
 52 443 l 1,20,-1
 167 462 l 1,21,22
 207 422 207 422 239 276 c 1,23,24
 269 305 269 305 304 347 c 1,25,26
 339 410 339 410 351 448 c 1,27,28
 390 463 390 463 421 463 c 1,29,-1
 436 454 l 1,30,31
 360 336 360 336 249 233 c 1,32,33
 278 100 278 100 308 56 c 1,34,35
 372 49 372 49 398 29 c 1,36,-1
 392 10 l 1,0,-1
EndSplineSet
EndChar

StartChar: v
Encoding: 118 118 6
Width: 409
Flags: HMW
HStem: -12 21G<136 136> 448 20G<139 141.5 403.5 407>
LayerCount: 2
Fore
SplineSet
178 -6 m 1,0,-1
 136 -12 l 1,1,-1
 80 400 l 1,2,3
 44 405 44 405 21 430 c 1,4,-1
 27 449 l 1,5,-1
 139 468 l 1,6,7
 149 468 149 468 185 73 c 1,8,9
 219 117 219 117 258 194.5 c 128,-1,10
 297 272 297 272 325 350 c 1,11,12
 332 394 332 394 337 433 c 1,13,14
 378 468 378 468 407 468 c 1,15,-1
 422 459 l 1,16,17
 291 116 291 116 178 -6 c 1,0,-1
EndSplineSet
EndChar

StartChar: y
Encoding: 121 121 7
Width: 409
Flags: HMW
HStem: -262 21G<70 70> 448 20G<139 141.5 403.5 407>
LayerCount: 2
Fore
SplineSet
422 459 m 1,0,1
 291 116 291 116 178 -5 c 1,2,-1
 143 -136 l 1,3,4
 143 -194 143 -194 144 -219 c 1,5,6
 104 -258 104 -258 70 -262 c 1,7,-1
 54 -255 l 1,8,9
 85 -129 85 -129 135 -3 c 1,10,-1
 80 400 l 1,11,12
 44 405 44 405 21 430 c 1,13,-1
 27 449 l 1,14,-1
 139 468 l 1,15,16
 149 468 149 468 185 73 c 1,17,18
 219 117 219 117 258 194.5 c 128,-1,19
 297 272 297 272 325 350 c 1,20,21
 332 394 332 394 337 433 c 1,22,23
 378 468 378 468 407 468 c 1,24,-1
 422 459 l 1,0,1
EndSplineSet
EndChar

StartChar: w
Encoding: 119 119 8
Width: 608
Flags: HMW
HStem: -12 21G<122 122 345 345> 448 20G<145 146.5 379.5 383 602.5 606>
LayerCount: 2
Fore
SplineSet
167 -6 m 1,0,-1
 122 -12 l 1,1,-1
 86 400 l 1,2,3
 50 405 50 405 27 430 c 1,4,-1
 33 449 l 1,5,-1
 145 468 l 1,6,7
 152 468 152 468 171 73 c 1,8,9
 204 117 204 117 245.5 202.5 c 128,-1,10
 287 288 287 288 313 364 c 1,11,-1
 307 430 l 1,12,13
 330 449 330 449 352 458.5 c 128,-1,14
 374 468 374 468 383 468 c 1,15,-1
 398 459 l 1,16,-1
 367 377 l 1,17,18
 373 319 373 319 394 73 c 1,19,20
 463 165 463 165 526 350 c 1,21,-1
 536 433 l 1,22,23
 577 468 577 468 606 468 c 1,24,-1
 621 459 l 1,25,26
 495 113 495 113 390 -6 c 1,27,-1
 345 -12 l 1,28,-1
 321 265 l 1,29,30
 240 79 240 79 167 -6 c 1,0,-1
EndSplineSet
EndChar

StartChar: acute
Encoding: 180 180 9
Width: 200
Flags: HMW
HStem: 502 21G<65 65> 682 20G
LayerCount: 2
Fore
SplineSet
65 502 m 1,0,-1
 50 518 l 1,1,2
 120 606 120 606 184 702 c 1,3,4
 194 695 194 695 207.5 678 c 128,-1,5
 221 661 221 661 224 647 c 1,6,-1
 220 628 l 1,7,8
 167 566 167 566 65 502 c 1,0,-1
EndSplineSet
EndChar

StartChar: period
Encoding: 46 46 10
Width: 197
Flags: HMW
HStem: -12 21G<62 84> -3 21G<131 131.5> 101 20G<112.5 133.5>
VStem: 44 107<15 92.5>
LayerCount: 2
Fore
SplineSet
123 121 m 0,0,1
 151 121 151 121 151 81 c 0,2,3
 151 56.1111111111 151 56.1111111111 141.5 26.5555555556 c 128,-1,4
 132 -3 132 -3 131 -3 c 0,5,6
 95 -12 95 -12 73 -12 c 0,7,8
 44 -12 44 -12 44 26 c 0,9,10
 44 56 44 56 54 85 c 128,-1,11
 64 114 64 114 65 114 c 0,12,13
 102 121 102 121 123 121 c 0,0,1
EndSplineSet
EndChar

StartChar: hyphen
Encoding: 45 45 11
Width: 390
Flags: HMW
HStem: 220 59<145.5 199.5>
LayerCount: 2
Fore
SplineSet
333 279 m 1,0,-1
 340 246 l 1,1,2
 287 220 287 220 167 220 c 0,3,4
 105 220 105 220 55 229 c 1,5,-1
 50 279 l 1,6,-1
 333 279 l 1,0,-1
EndSplineSet
Position2: "'case' Case-Sensitive Forms in Latin lookup 1 per glyph data 0" dx=0 dy=70 dh=0 dv=0
EndChar

StartChar: comma
Encoding: 44 44 13
Width: 197
Flags: HMW
HStem: -123 21G<39 39> 101 20G<117.5 141>
LayerCount: 2
Fore
SplineSet
70 110 m 1,0,1
 103 121 103 121 126 121 c 0,2,3
 168 121 168 121 168 60 c 1,4,5
 158 19 158 19 114 -37 c 128,-1,6
 70 -93 70 -93 39 -123 c 1,7,-1
 17 -107 l 1,8,9
 40 -75 40 -75 52 -56 c 0,10,11
 84 -5.33333333333 84 -5.33333333333 84 32.8333333333 c 128,-1,12
 84 71 84 71 70 110 c 1,0,1
EndSplineSet
EndChar

StartChar: semicolon
Encoding: 59 59 14
Width: 197
Flags: HMW
HStem: -123 21G<39 39> 101 20G<117.5 141> 295 21G<108 130> 304 21G<177 177.5> 408 20G<158.5 179.5>
VStem: 90 107<322 399.5>
LayerCount: 2
Fore
SplineSet
169 428 m 0,0,1
 197 428 197 428 197 388 c 0,2,3
 197 363.111111111 197 363.111111111 187.5 333.555555556 c 128,-1,4
 178 304 178 304 177 304 c 0,5,6
 141 295 141 295 119 295 c 0,7,8
 90 295 90 295 90 333 c 0,9,10
 90 363 90 363 100 392 c 128,-1,11
 110 421 110 421 111 421 c 0,12,13
 148 428 148 428 169 428 c 0,0,1
70 110 m 1,14,15
 103 121 103 121 126 121 c 0,16,17
 168 121 168 121 168 60 c 1,18,19
 158 19 158 19 114 -37 c 128,-1,20
 70 -93 70 -93 39 -123 c 1,21,-1
 17 -107 l 1,22,23
 40 -75 40 -75 52 -56 c 0,24,25
 84 -5.33333333333 84 -5.33333333333 84 32.8333333333 c 128,-1,26
 84 71 84 71 70 110 c 1,14,15
EndSplineSet
EndChar

StartChar: quotedblleft
Encoding: 8220 8220 15
Width: 285
Flags: HMW
HStem: 494 21G<57 80.5 213 236.5> 718 20G<159 159 315 315>
LayerCount: 2
Fore
SplineSet
284 505 m 1,0,1
 251 494 251 494 228 494 c 0,2,3
 186 494 186 494 186 555 c 1,4,5
 196 596 196 596 240 652 c 128,-1,6
 284 708 284 708 315 738 c 1,7,-1
 337 722 l 1,8,9
 314 690 314 690 302 671 c 0,10,11
 270 620.333333333 270 620.333333333 270 582.166666667 c 128,-1,12
 270 544 270 544 284 505 c 1,0,1
128 505 m 1,13,14
 95 494 95 494 72 494 c 0,15,16
 30 494 30 494 30 555 c 1,17,18
 40 596 40 596 84 652 c 128,-1,19
 128 708 128 708 159 738 c 1,20,-1
 181 722 l 1,21,22
 158 690 158 690 146 671 c 0,23,24
 114 620.333333333 114 620.333333333 114 582.166666667 c 128,-1,25
 114 544 114 544 128 505 c 1,13,14
EndSplineSet
EndChar

StartChar: quotedblright
Encoding: 8221 8221 16
Width: 329
Flags: HMW
HStem: 486 21G<74 74 230 230> 710 20G<152.5 176 308.5 332>
LayerCount: 2
Fore
SplineSet
261 719 m 1,0,1
 294 730 294 730 317 730 c 0,2,3
 359 730 359 730 359 669 c 1,4,5
 349 628 349 628 305 572 c 128,-1,6
 261 516 261 516 230 486 c 1,7,-1
 208 502 l 1,8,9
 231 534 231 534 243 553 c 0,10,11
 275 603.666666667 275 603.666666667 275 641.833333333 c 128,-1,12
 275 680 275 680 261 719 c 1,0,1
105 719 m 1,13,14
 138 730 138 730 161 730 c 0,15,16
 203 730 203 730 203 669 c 1,17,18
 193 628 193 628 149 572 c 128,-1,19
 105 516 105 516 74 486 c 1,20,-1
 52 502 l 1,21,22
 75 534 75 534 87 553 c 0,23,24
 119 603.666666667 119 603.666666667 119 641.833333333 c 128,-1,25
 119 680 119 680 105 719 c 1,13,14
EndSplineSet
EndChar

StartChar: I
Encoding: 73 73 17
Width: 355
Flags: HMW
HStem: 0 21G<22 245 22 22> 680 20G<132 355 355 355>
LayerCount: 2
Fore
SplineSet
251 22 m 1,0,-1
 245 0 l 1,1,-1
 22 0 l 1,2,-1
 14 26 l 1,3,4
 40 37 40 37 98 57 c 1,5,-1
 149 350 l 1,6,-1
 210 642 l 1,7,8
 173 652 173 652 126 678 c 1,9,-1
 132 700 l 1,10,-1
 355 700 l 1,11,-1
 363 674 l 1,12,13
 312 653 312 653 278 643 c 1,14,-1
 228 350 l 1,15,-1
 167 58 l 1,16,17
 210 44 210 44 251 22 c 1,0,-1
EndSplineSet
Position2: "'cpsp' Capital Spacing in Latin lookup 0 subtable" dx=7 dy=0 dh=35 dv=0
EndChar

StartChar: H
Encoding: 72 72 18
Width: 763
Flags: HMW
HStem: 0 21G<21 244 21 21 439 662 439 439> 330 54 680 20G<131 354 354 354 549 772 772 772>
LayerCount: 2
Fore
SplineSet
125 678 m 1,0,-1
 131 700 l 1,1,-1
 354 700 l 1,2,-1
 362 674 l 1,3,4
 311 653 311 653 277 643 c 1,5,-1
 235 384 l 1,6,-1
 570 384 l 1,7,-1
 627 642 l 1,8,9
 590 652 590 652 543 678 c 1,10,-1
 549 700 l 1,11,-1
 772 700 l 1,12,-1
 780 674 l 1,13,14
 729 653 729 653 695 643 c 1,15,-1
 584 58 l 1,16,17
 629 43 629 43 668 22 c 1,18,-1
 662 0 l 1,19,-1
 439 0 l 1,20,-1
 431 26 l 1,21,22
 457 37 457 37 515 57 c 1,23,-1
 561 338 l 1,24,-1
 224 322 l 1,25,-1
 166 58 l 1,26,27
 209 44 209 44 250 22 c 1,28,-1
 244 0 l 1,29,-1
 21 0 l 1,30,-1
 13 26 l 1,31,32
 64 47 64 47 98 57 c 1,33,-1
 209 642 l 1,34,35
 172 652 172 652 125 678 c 1,0,-1
EndSplineSet
Position2: "'cpsp' Capital Spacing in Latin lookup 0 subtable" dx=7 dy=0 dh=35 dv=0
EndChar

StartChar: E
Encoding: 69 69 19
Width: 570
Flags: HMW
HStem: -4 21G 8 47<166 166 166 184> 332 50 646 50<252 278> 693 20G<571 571>
LayerCount: 2
Fore
SplineSet
125 678 m 1,0,-1
 131 700 l 1,1,-1
 252 696 l 1,2,3
 502 698 502 698 571 713 c 1,4,-1
 577 696 l 1,5,6
 568 667 568 667 546 640 c 1,7,8
 382 640 382 640 278 646 c 1,9,-1
 235 382 l 1,10,-1
 482 382 l 1,11,-1
 473 339 l 1,12,-1
 225 326 l 1,13,-1
 166 55 l 1,14,15
 421 57 421 57 491 72 c 1,16,-1
 497 55 l 1,17,18
 488 22 488 22 466 -4 c 1,19,20
 304 8 304 8 126 8 c 1,21,-1
 21 0 l 1,22,-1
 13 26 l 1,23,24
 64 47 64 47 98 57 c 1,25,-1
 209 642 l 1,26,27
 172 652 172 652 125 678 c 1,0,-1
EndSplineSet
Position2: "'cpsp' Capital Spacing in Latin lookup 0 subtable" dx=7 dy=0 dh=35 dv=0
EndChar

StartChar: F
Encoding: 70 70 20
Width: 550
Flags: HMW
HStem: 0 21G<21 274 21 21> 316 50 646 50<278 278> 693 20G<571 571>
LayerCount: 2
Fore
SplineSet
278 646 m 1,0,-1
 232 366 l 1,1,-1
 468 366 l 1,2,-1
 459 323 l 1,3,-1
 221 310 l 1,4,-1
 167 60 l 1,5,6
 225 45 225 45 280 22 c 1,7,-1
 274 0 l 1,8,-1
 21 0 l 1,9,-1
 13 26 l 1,10,11
 64 47 64 47 98 57 c 1,12,-1
 209 642 l 1,13,14
 172 652 172 652 125 678 c 1,15,-1
 131 700 l 1,16,-1
 252 696 l 1,17,18
 494 696 494 696 571 713 c 1,19,-1
 577 696 l 1,20,21
 568 667 568 667 546 640 c 1,22,23
 382 640 382 640 278 646 c 1,0,-1
EndSplineSet
Position2: "'cpsp' Capital Spacing in Latin lookup 0 subtable" dx=7 dy=0 dh=35 dv=0
EndChar

StartChar: L
Encoding: 76 76 21
Width: 499
Flags: HMW
HStem: -4 21G 5 50<166 166 166 181.5> 680 20G<131 354 354 354>
LayerCount: 2
Fore
SplineSet
130 5 m 1,0,-1
 21 0 l 1,1,-1
 13 26 l 1,2,3
 39 37 39 37 97 57 c 1,4,-1
 148 350 l 1,5,-1
 209 642 l 1,6,7
 172 652 172 652 125 678 c 1,8,-1
 131 700 l 1,9,-1
 354 700 l 1,10,-1
 362 674 l 1,11,12
 311 653 311 653 277 643 c 1,13,-1
 227 350 l 1,14,-1
 166 55 l 1,15,16
 378 57 378 57 447 72 c 1,17,-1
 453 55 l 1,18,19
 444 22 444 22 422 -4 c 1,20,21
 314 5 314 5 130 5 c 1,0,-1
EndSplineSet
Position2: "'cpsp' Capital Spacing in Latin lookup 0 subtable" dx=7 dy=0 dh=35 dv=0
EndChar

StartChar: T
Encoding: 84 84 22
Width: 541
Flags: HMW
HStem: 0 21G<102 365 102 102> 660 40<218 236 236 314> 693 20G<610 610>
LayerCount: 2
Fore
SplineSet
371 22 m 1,0,-1
 365 0 l 1,1,-1
 102 0 l 1,2,-1
 94 26 l 1,3,4
 167 50 167 50 199 59 c 1,5,-1
 249 350 l 1,6,-1
 314 660 l 1,7,-1
 236 660 l 2,8,9
 198 660 198 660 108 623 c 1,10,11
 80 654 80 654 70 684 c 1,12,-1
 75 700 l 1,13,-1
 501 700 l 2,14,15
 559 700 559 700 610 713 c 1,16,-1
 616 696 l 1,17,18
 609 675 609 675 583 638 c 1,19,-1
 381 657 l 1,20,-1
 328 350 l 1,21,-1
 267 59 l 1,22,23
 319 46 319 46 371 22 c 1,0,-1
EndSplineSet
Position2: "'cpsp' Capital Spacing in Latin lookup 0 subtable" dx=7 dy=0 dh=35 dv=0
EndChar

StartChar: N
Encoding: 78 78 23
Width: 760
Flags: HMW
HStem: 0 21G<12 215 12 12 533 588 533 533> 680 20G<127 264 264 264 581 784 784 784>
LayerCount: 2
Fore
SplineSet
121 678 m 1,0,-1
 127 700 l 1,1,-1
 264 700 l 1,2,-1
 559 126 l 1,3,-1
 654 642 l 1,4,5
 620 654 620 654 573 674 c 1,6,-1
 581 700 l 1,7,-1
 784 700 l 1,8,-1
 790 678 l 1,9,10
 749 653 749 653 709 641 c 1,11,-1
 588 0 l 1,12,-1
 533 0 l 1,13,-1
 235 583 l 1,14,-1
 141 58 l 1,15,16
 169 48 169 48 223 26 c 1,17,-1
 215 0 l 1,18,-1
 12 0 l 1,19,-1
 6 22 l 1,20,21
 41 43 41 43 84 58 c 1,22,-1
 194 643 l 1,23,24
 154 658 154 658 121 678 c 1,0,-1
EndSplineSet
Position2: "'cpsp' Capital Spacing in Latin lookup 0 subtable" dx=7 dy=0 dh=35 dv=0
EndChar

StartChar: O
Encoding: 79 79 24
Width: 694
Flags: HMW
HStem: -12 53<240 389.5 240 392> 659 53<325.5 474>
VStem: 50 80<182 338.5 182 349.5> 599 80<359.5 510>
LayerCount: 2
Fore
SplineSet
451 712 m 0,0,1
 558 712 558 712 618.5 638.5 c 128,-1,2
 679 565 679 565 679 453 c 128,-1,3
 679 341 679 341 629.5 235.5 c 128,-1,4
 580 130 580 130 483 59 c 128,-1,5
 386 -12 386 -12 266 -12 c 0,6,7
 166 -12 166 -12 108 60 c 128,-1,8
 50 132 50 132 50 242 c 0,9,10
 50 324 50 324 78 406.5 c 128,-1,11
 106 489 106 489 156 557.5 c 128,-1,12
 206 626 206 626 283.5 669 c 128,-1,13
 361 712 361 712 451 712 c 0,0,1
548.5 599 m 128,-1,15
 498 659 498 659 425.5 659 c 128,-1,16
 353 659 353 659 294 621.5 c 128,-1,17
 235 584 235 584 200.5 522.5 c 0,18,19
 130 396.826086957 130 396.826086957 130 241 c 0,20,21
 130 153 130 153 173.5 97 c 128,-1,22
 217 41 217 41 288.5 41 c 128,-1,23
 360 41 360 41 421.5 79 c 128,-1,24
 483 117 483 117 521 177.5 c 0,25,26
 599 301.684210526 599 301.684210526 599 451 c 0,27,14
 599 539 599 539 548.5 599 c 128,-1,15
EndSplineSet
Position2: "'cpsp' Capital Spacing in Latin lookup 0 subtable" dx=7 dy=0 dh=35 dv=0
EndChar

StartChar: P
Encoding: 80 80 25
Width: 563
Flags: HMW
HStem: 0 21G<21 274 21 21> 651 47 656 21G<405 439.5> 680 20G<131 131>
VStem: 504 80<475 554.5>
LayerCount: 2
Fore
SplineSet
280 22 m 1,0,-1
 274 0 l 1,1,-1
 21 0 l 1,2,-1
 13 26 l 1,3,4
 64 47 64 47 98 57 c 1,5,-1
 209 642 l 1,6,7
 172 652 172 652 125 678 c 1,8,-1
 131 700 l 1,9,-1
 252 696 l 1,10,-1
 423 698 l 2,11,12
 499 698 499 698 541.5 650 c 128,-1,13
 584 602 584 602 584 517 c 128,-1,14
 584 432 584 432 511.5 354.5 c 128,-1,15
 439 277 439 277 344 255 c 1,16,17
 323.526315789 255 323.526315789 255 283.263157895 270 c 128,-1,18
 243 285 243 285 241 286 c 1,19,-1
 253 327 l 1,20,21
 312 309 312 309 354 309 c 0,22,23
 428 309 428 309 466 375 c 128,-1,24
 504 441 504 441 504 509 c 128,-1,25
 504 577 504 577 479 616.5 c 128,-1,26
 454 656 454 656 405 656 c 1,27,-1
 278 646 l 1,28,-1
 230 350 l 1,29,-1
 167 60 l 1,30,31
 225 45 225 45 280 22 c 1,0,-1
EndSplineSet
Position2: "'cpsp' Capital Spacing in Latin lookup 0 subtable" dx=7 dy=0 dh=35 dv=0
EndChar

StartChar: g
Encoding: 103 103 26
Width: 409
Flags: HMW
HStem: -252 48<69 151.5 69 169.5> 131 40<147.5 149 143 204.5> 433 35<224.5 268.5> 434 20G<401 420> 502 20G
VStem: -56 67<-133 -106> 40 67<219 300.5 219 322.5> 294 72<-94 -63> 312 67<302.5 383.5 277 384.5>
LayerCount: 2
Fore
SplineSet
195.5 456 m 128,-1,1
 231 468 231 468 261 468 c 128,-1,2
 291 468 291 468 315 460 c 1,3,4
 359 520 359 520 414 522 c 1,5,6
 429 493 429 493 429 469 c 1,7,-1
 420 454 l 1,8,9
 365 454 365 454 345 444 c 1,10,11
 379 419 379 419 379 367.5 c 128,-1,12
 379 316 379 316 362 274 c 128,-1,13
 345 232 345 232 320 206 c 128,-1,14
 295 180 295 180 263 162.5 c 0,15,16
 205.4 131 205.4 131 149 131 c 2,17,-1
 143 131 l 1,18,19
 117 91 117 91 108 67 c 1,20,21
 108 46 108 46 131 42 c 2,22,-1
 276 14 l 2,23,24
 328 4 328 4 347 -7.5 c 128,-1,25
 366 -19 366 -19 366 -46 c 0,26,27
 366 -121 366 -121 285 -186.5 c 128,-1,28
 204 -252 204 -252 93 -252 c 0,29,30
 18 -252 18 -252 -19 -214 c 128,-1,31
 -56 -176 -56 -176 -56 -106 c 1,32,33
 -21 -53 -21 -53 67 0 c 1,34,35
 50 10 50 10 50 33 c 1,36,37
 62 78 62 78 102 137 c 1,38,39
 40 158 40 158 40 233 c 0,40,41
 40 296 40 296 63.5 344.5 c 128,-1,42
 87 393 87 393 123.5 418.5 c 128,-1,0
 160 444 160 444 195.5 456 c 128,-1,1
250 433 m 0,43,44
 188 433 188 433 147.5 380.5 c 128,-1,45
 107 328 107 328 107 241 c 0,46,47
 107 171 107 171 166.5 171 c 128,-1,48
 226 171 226 171 269 223.5 c 128,-1,49
 312 276 312 276 312 362 c 0,50,51
 312 395 312 395 295 414 c 128,-1,52
 278 433 278 433 250 433 c 0,43,44
246 -40 m 2,53,-1
 100 -11 l 1,54,55
 11 -84 11 -84 11 -106 c 0,56,57
 11 -204 11 -204 105 -204 c 0,58,59
 175 -204 175 -204 234.5 -162 c 128,-1,60
 294 -120 294 -120 294 -69 c 0,61,62
 294 -59 294 -59 285 -52.5 c 128,-1,63
 276 -46 276 -46 246 -40 c 2,53,-1
EndSplineSet
EndChar

StartChar: C
Encoding: 67 67 27
Width: 561
Flags: HMW
HStem: -12 53<264 335> 692 20G<439 458>
VStem: 50 80<185 376 185 395.5>
LayerCount: 2
Fore
SplineSet
485 82 m 1,0,-1
 506 46 l 1,1,2
 407 -12 407 -12 296.5 -12 c 128,-1,3
 186 -12 186 -12 118 56 c 128,-1,4
 50 124 50 124 50 254 c 0,5,6
 50 357 50 357 80 439.5 c 128,-1,7
 110 522 110 522 164.5 576.5 c 0,8,9
 271.797101449 683.797101449 271.797101449 683.797101449 439 712 c 1,10,11
 480 712 480 712 597 673 c 1,12,-1
 571 623 l 1,13,14
 456 646 456 646 413 646 c 0,15,16
 277 646 277 646 203.5 542 c 128,-1,17
 130 438 130 438 130 258 c 0,18,19
 130 151 130 151 181.5 96 c 128,-1,20
 233 41 233 41 323 41 c 128,-1,21
 413 41 413 41 485 82 c 1,0,-1
EndSplineSet
Position2: "'cpsp' Capital Spacing in Latin lookup 0 subtable" dx=7 dy=0 dh=35 dv=0
EndChar

StartChar: G
Encoding: 71 71 28
Width: 627
Flags: HMW
HStem: -12 53<264 340.5> 311 49 692 20G<469 488>
VStem: 50 80<185 376 185 403>
LayerCount: 2
Fore
SplineSet
443 646 m 0,0,1
 293 646 293 646 211.5 542 c 128,-1,2
 130 438 130 438 130 258 c 0,3,4
 130 151 130 151 181.5 96 c 128,-1,5
 233 41 233 41 320 41 c 128,-1,6
 407 41 407 41 476 72 c 1,7,-1
 505 306 l 1,8,-1
 355 317 l 1,9,-1
 363 360 l 1,10,-1
 588 360 l 1,11,-1
 535 86 l 1,12,-1
 538 47 l 1,13,14
 419 -12 419 -12 302.5 -12 c 128,-1,15
 186 -12 186 -12 118 56 c 128,-1,16
 50 124 50 124 50 254 c 0,17,18
 50 362 50 362 82.5 445.5 c 128,-1,19
 115 529 115 529 174.5 582 c 0,20,21
 289.011430023 684.001778004 289.011430023 684.001778004 469 712 c 1,22,23
 510 712 510 712 627 673 c 1,24,-1
 601 623 l 1,25,26
 486 646 486 646 443 646 c 0,0,1
EndSplineSet
Position2: "'cpsp' Capital Spacing in Latin lookup 0 subtable" dx=7 dy=0 dh=35 dv=0
EndChar

StartChar: A
Encoding: 65 65 29
Width: 618
Flags: HMW
HStem: 0 21G<-64 -64 -64 129 359 359 359 582> 222 51 686 20G<399 403>
LayerCount: 2
Fore
SplineSet
-64 0 m 1,0,-1
 -70 22 l 1,1,2
 -56 31 -56 31 3 57 c 1,3,-1
 339 691 l 1,4,5
 376 706 376 706 403 706 c 1,6,-1
 418 697 l 1,7,-1
 509 56 l 1,8,9
 550 42 550 42 588 22 c 1,10,-1
 582 0 l 1,11,-1
 359 0 l 1,12,-1
 351 26 l 1,13,14
 393 43 393 43 431 55 c 1,15,-1
 406 229 l 1,16,-1
 144 215 l 1,17,-1
 61 56 l 1,18,-1
 137 26 l 1,19,-1
 129 0 l 1,20,-1
 -64 0 l 1,0,-1
352 617 m 1,21,-1
 174 273 l 1,22,-1
 400 273 l 1,23,-1
 352 617 l 1,21,-1
EndSplineSet
Position2: "'cpsp' Capital Spacing in Latin lookup 0 subtable" dx=7 dy=0 dh=35 dv=0
EndChar

StartChar: guillemotleft
Encoding: 171 171 30
Width: 448
Flags: HMW
HStem: 15 21G<193 193 348 348> 424 20G<270 270 425 425>
LayerCount: 2
Fore
SplineSet
205 213 m 1,0,-1
 210 241 l 1,1,-1
 425 444 l 1,2,-1
 448 420 l 1,3,-1
 291 227 l 1,4,-1
 379 34 l 1,5,-1
 348 15 l 1,6,-1
 205 213 l 1,0,-1
50 213 m 1,7,-1
 55 241 l 1,8,-1
 270 444 l 1,9,-1
 294 420 l 1,10,-1
 136 227 l 1,11,-1
 225 34 l 1,12,-1
 193 15 l 1,13,-1
 50 213 l 1,7,-1
EndSplineSet
Position2: "'case' Case-Sensitive Forms in Latin lookup 1 per glyph data 0" dx=0 dy=70 dh=0 dv=0
EndChar

StartChar: guillemotright
Encoding: 187 187 31
Width: 448
Flags: HMW
HStem: 10 21G<23 23 178 178> 419 20G<100 100 255 255>
LayerCount: 2
Fore
SplineSet
398 241 m 1,0,-1
 393 213 l 1,1,-1
 178 10 l 1,2,-1
 154 34 l 1,3,-1
 312 227 l 1,4,-1
 223 420 l 1,5,-1
 255 439 l 1,6,-1
 398 241 l 1,0,-1
243 241 m 1,7,-1
 238 213 l 1,8,-1
 23 10 l 1,9,-1
 0 34 l 1,10,-1
 157 227 l 1,11,-1
 69 420 l 1,12,-1
 100 439 l 1,13,-1
 243 241 l 1,7,-1
EndSplineSet
Position2: "'case' Case-Sensitive Forms in Latin lookup 1 per glyph data 0" dx=0 dy=70 dh=0 dv=0
EndChar

StartChar: V
Encoding: 86 86 32
Width: 582
Flags: HMW
HStem: -8 21G<226 226> 680 20G<66 196 196 196> 687 20G<591.5 596>
LayerCount: 2
Fore
SplineSet
196 700 m 1,0,-1
 284 89 l 1,1,2
 333 161 333 161 397.5 293 c 128,-1,3
 462 425 462 425 495 531 c 1,4,-1
 505 655 l 1,5,6
 560 707 560 707 596 707 c 1,7,-1
 617 694 l 1,8,9
 571 554 571 554 480 357.5 c 128,-1,10
 389 161 389 161 283 0 c 1,11,-1
 226 -8 l 1,12,-1
 124 646 l 1,13,14
 88 659 88 659 60 678 c 1,15,-1
 66 700 l 1,16,-1
 196 700 l 1,0,-1
EndSplineSet
Position2: "'cpsp' Capital Spacing in Latin lookup 0 subtable" dx=7 dy=0 dh=35 dv=0
EndChar

StartChar: M
Encoding: 77 77 33
Width: 883
Flags: HMW
HStem: 0 21G<-9 194 -9 -9 559 812 559 559> 680 20G<142 142 883 883>
LayerCount: 2
Fore
SplineSet
136 678 m 1,0,-1
 142 700 l 1,1,-1
 307 696 l 1,2,-1
 425 185 l 1,3,-1
 730 696 l 1,4,-1
 883 700 l 1,5,-1
 891 674 l 1,6,7
 853 658 853 658 806 642 c 1,8,-1
 737 56 l 1,9,10
 782 42 782 42 820 26 c 1,11,-1
 812 0 l 1,12,-1
 559 0 l 1,13,-1
 553 22 l 1,14,15
 603 44 603 44 658 58 c 1,16,-1
 727 601 l 1,17,-1
 397 50 l 1,18,-1
 379 50 l 1,19,-1
 246 598 l 1,20,-1
 120 58 l 1,21,22
 148 48 148 48 202 26 c 1,23,-1
 194 0 l 1,24,-1
 -9 0 l 1,25,-1
 -15 22 l 1,26,27
 27 47 27 47 64 58 c 1,28,-1
 206 644 l 1,29,30
 169 658 169 658 136 678 c 1,0,-1
EndSplineSet
Position2: "'cpsp' Capital Spacing in Latin lookup 0 subtable" dx=7 dy=0 dh=35 dv=0
EndChar

StartChar: W
Encoding: 87 87 34
Width: 858
Flags: HMW
HStem: -8 21G<182 182 505 505> 680 20G<71 203 203 203> 687 20G<528.5 533 867.5 872>
LayerCount: 2
Fore
SplineSet
203 700 m 1,0,-1
 246 102 l 1,1,2
 298 195 298 195 357.5 320.5 c 128,-1,3
 417 446 417 446 455 550 c 1,4,-1
 444 655 l 1,5,6
 499 707 499 707 533 707 c 1,7,-1
 554 694 l 1,8,9
 539 650 539 650 521 602 c 1,10,11
 525 566 525 566 538.5 405.5 c 128,-1,12
 552 245 552 245 566 102 c 1,13,14
 615 174 615 174 676.5 299.5 c 128,-1,15
 738 425 738 425 771 531 c 1,16,-1
 781 655 l 1,17,18
 836 707 836 707 872 707 c 1,19,-1
 893 694 l 1,20,21
 847 554 847 554 756 357.5 c 128,-1,22
 665 161 665 161 559 0 c 1,23,-1
 505 -8 l 1,24,-1
 463 454 l 1,25,26
 358 197 358 197 240 0 c 1,27,-1
 182 -8 l 1,28,-1
 129 646 l 1,29,30
 93 659 93 659 65 678 c 1,31,-1
 71 700 l 1,32,-1
 203 700 l 1,0,-1
EndSplineSet
Position2: "'cpsp' Capital Spacing in Latin lookup 0 subtable" dx=7 dy=0 dh=35 dv=0
EndChar

StartChar: D
Encoding: 68 68 35
Width: 717
Flags: HMW
HStem: -6 47<299 299> 658 54<454 492>
VStem: 622 80<358 519>
LayerCount: 2
Fore
SplineSet
125 678 m 1,0,-1
 131 700 l 1,1,-1
 257 696 l 1,2,-1
 454 712 l 1,3,4
 566 712 566 712 634 647 c 128,-1,5
 702 582 702 582 702 459.5 c 128,-1,6
 702 337 702 337 657 235.5 c 128,-1,7
 612 134 612 134 519 67 c 128,-1,8
 426 0 426 0 299 -6 c 1,9,-1
 123 8 l 1,10,-1
 21 0 l 1,11,-1
 13 26 l 1,12,13
 64 47 64 47 98 57 c 1,14,-1
 209 642 l 1,15,16
 172 652 172 652 125 678 c 1,0,-1
317 41 m 128,-1,18
 386 41 386 41 445.5 79 c 128,-1,19
 505 117 505 117 542.5 177 c 0,20,21
 622 304.2 622 304.2 622 449 c 0,22,23
 622 551 622 551 572 604.5 c 128,-1,24
 522 658 522 658 439 658 c 128,-1,25
 356 658 356 658 276 639 c 1,26,-1
 230 350 l 1,27,-1
 167 60 l 1,28,17
 248 41 248 41 317 41 c 128,-1,18
EndSplineSet
Position2: "'cpsp' Capital Spacing in Latin lookup 0 subtable" dx=7 dy=0 dh=35 dv=0
EndChar

StartChar: Y
Encoding: 89 89 36
Width: 511
Flags: HMW
HStem: 0 21G<100 363 100 100> 680 20G<52 172 172 172> 687 20G<526.5 531>
LayerCount: 2
Fore
SplineSet
369 22 m 1,0,-1
 363 0 l 1,1,-1
 100 0 l 1,2,-1
 92 26 l 1,3,4
 145 44 145 44 196 58 c 1,5,-1
 233 271 l 1,6,-1
 110 646 l 1,7,8
 74 659 74 659 46 678 c 1,9,-1
 52 700 l 1,10,-1
 172 700 l 1,11,-1
 289 309 l 1,12,13
 366 425 366 425 426 534 c 1,14,-1
 440 655 l 1,15,16
 495 707 495 707 531 707 c 1,17,-1
 552 694 l 1,18,19
 521 613 521 613 451.5 490 c 128,-1,20
 382 367 382 367 305 264 c 1,21,-1
 266 59 l 1,22,23
 316 47 316 47 369 22 c 1,0,-1
EndSplineSet
Position2: "'cpsp' Capital Spacing in Latin lookup 0 subtable" dx=7 dy=0 dh=35 dv=0
EndChar

StartChar: X
Encoding: 88 88 37
Width: 635
Flags: HMW
HStem: 0 21G<8 152 8 8 373 596 373 373> 680 20G<114 337 337 337> 685 20G<637 644.5>
LayerCount: 2
Fore
SplineSet
108 678 m 1,0,-1
 114 700 l 1,1,-1
 337 700 l 1,2,-1
 345 674 l 1,3,4
 315 661 315 661 266 645 c 1,5,-1
 373 399 l 1,6,-1
 522 587 l 2,7,8
 538 606 538 606 553 693 c 1,9,10
 590 705 590 705 622.5 705 c 0,11,12
 655 705 655 705 662 704 c 1,13,-1
 674 692 l 1,14,-1
 394 352 l 1,15,-1
 523 56 l 1,16,17
 564 42 564 42 602 22 c 1,18,-1
 596 0 l 1,19,-1
 373 0 l 1,20,-1
 365 26 l 1,21,22
 397 39 397 39 441 54 c 1,23,-1
 337 293 l 1,24,-1
 188 105 l 2,25,26
 166 76 166 76 156 51 c 1,27,-1
 152 0 l 1,28,-1
 8 0 l 1,29,-1
 0 26 l 1,30,31
 43 46 43 46 83 61 c 1,32,-1
 315 343 l 1,33,-1
 183 645 l 1,34,35
 145 657 145 657 108 678 c 1,0,-1
EndSplineSet
Position2: "'cpsp' Capital Spacing in Latin lookup 0 subtable" dx=7 dy=0 dh=35 dv=0
EndChar

StartChar: tilde
Encoding: 732 732 38
Width: 416
Flags: HMW
HStem: 551 62<319.5 345> 580 33 580 62<206 231>
LayerCount: 2
Fore
SplineSet
407 642 m 1,0,-1
 426 625 l 1,1,2
 381 551 381 551 330 551 c 0,3,4
 310 551 310 551 270.5 565.5 c 128,-1,5
 231 580 231 580 211 580 c 0,6,7
 173 580 173 580 144 551 c 1,8,-1
 125 568 l 1,9,10
 169 642 169 642 221 642 c 0,11,12
 241 642 241 642 280 627.5 c 128,-1,13
 319 613 319 613 340 613 c 0,14,15
 377 613 377 613 407 642 c 1,0,-1
EndSplineSet
EndChar

StartChar: dieresis
Encoding: 168 168 39
Width: 374
Flags: HMW
HStem: 544 21G<84 103.5 220 239.5> 639 20G<128 146 264 282>
VStem: 68 94<567 634.5> 204 94<567 634.5>
LayerCount: 2
Fore
SplineSet
273 659 m 0,0,1
 298 659 298 659 298 625 c 0,2,3
 298 599 298 599 289 576 c 128,-1,4
 280 553 280 553 279 553 c 0,5,6
 249 544 249 544 230 544 c 0,7,8
 204 544 204 544 204 576 c 0,9,10
 204 601.333333333 204 601.333333333 218.5 640 c 2,11,-1
 223 652 l 1,12,13
 255 659 255 659 273 659 c 0,0,1
137 659 m 0,14,15
 162 659 162 659 162 625 c 0,16,17
 162 599 162 599 153 576 c 128,-1,18
 144 553 144 553 143 553 c 0,19,20
 113 544 113 544 94 544 c 0,21,22
 68 544 68 544 68 576 c 0,23,24
 68 601.333333333 68 601.333333333 82.5 640 c 2,25,-1
 87 652 l 1,26,27
 119 659 119 659 137 659 c 0,14,15
EndSplineSet
EndChar

StartChar: grave
Encoding: 96 96 40
Width: 200
Flags: HMW
HStem: 514 21G<135 135> 694 20G
LayerCount: 2
Fore
SplineSet
150 530 m 1,0,-1
 135 514 l 1,1,2
 33 578 33 578 -20 640 c 1,3,-1
 -24 659 l 1,4,5
 -21 673 -21 673 -7.5 690 c 128,-1,6
 6 707 6 707 16 714 c 1,7,8
 72 628 72 628 130.5 554.5 c 2,9,-1
 150 530 l 1,0,-1
EndSplineSet
EndChar

StartChar: Eacute
Encoding: 201 201 43
Width: 570
Flags: HMW
HStem: -4 21G 8 47<166 166 166 184> 332 50 646 50<252 278> 693 20G<571 571> 746 21G<392 392> 926 20G
LayerCount: 2
Fore
SplineSet
125 678 m 1,0,-1
 131 700 l 1,1,-1
 252 696 l 1,2,3
 502 698 502 698 571 713 c 1,4,-1
 577 696 l 1,5,6
 568 667 568 667 546 640 c 1,7,8
 382 640 382 640 278 646 c 1,9,-1
 235 382 l 1,10,-1
 482 382 l 1,11,-1
 473 339 l 1,12,-1
 225 326 l 1,13,-1
 166 55 l 1,14,15
 421 57 421 57 491 72 c 1,16,-1
 497 55 l 1,17,18
 488 22 488 22 466 -4 c 1,19,20
 304 8 304 8 126 8 c 1,21,-1
 21 0 l 1,22,-1
 13 26 l 1,23,24
 64 47 64 47 98 57 c 1,25,-1
 209 642 l 1,26,27
 172 652 172 652 125 678 c 1,0,-1
392 746 m 1,28,-1
 377 762 l 1,29,30
 447 850 447 850 511 946 c 1,31,32
 521 939 521 939 534.5 922 c 128,-1,33
 548 905 548 905 551 891 c 1,34,-1
 547 872 l 1,35,36
 494 810 494 810 392 746 c 1,28,-1
EndSplineSet
Position2: "'cpsp' Capital Spacing in Latin lookup 0 subtable" dx=7 dy=0 dh=35 dv=0
EndChar

StartChar: Oacute
Encoding: 211 211 45
Width: 694
Flags: HMW
HStem: -12 53<240 389.5 240 392> 659 53<325.5 474> 746 21G<423 423> 926 20G
VStem: 50 80<182 338.5 182 349.5> 599 80<359.5 510>
LayerCount: 2
Fore
SplineSet
451 712 m 0,0,1
 558 712 558 712 618.5 638.5 c 128,-1,2
 679 565 679 565 679 453 c 128,-1,3
 679 341 679 341 629.5 235.5 c 128,-1,4
 580 130 580 130 483 59 c 128,-1,5
 386 -12 386 -12 266 -12 c 0,6,7
 166 -12 166 -12 108 60 c 128,-1,8
 50 132 50 132 50 242 c 0,9,10
 50 324 50 324 78 406.5 c 128,-1,11
 106 489 106 489 156 557.5 c 128,-1,12
 206 626 206 626 283.5 669 c 128,-1,13
 361 712 361 712 451 712 c 0,0,1
548.5 599 m 128,-1,15
 498 659 498 659 425.5 659 c 128,-1,16
 353 659 353 659 294 621.5 c 128,-1,17
 235 584 235 584 200.5 522.5 c 0,18,19
 130 396.826086957 130 396.826086957 130 241 c 0,20,21
 130 153 130 153 173.5 97 c 128,-1,22
 217 41 217 41 288.5 41 c 128,-1,23
 360 41 360 41 421.5 79 c 128,-1,24
 483 117 483 117 521 177.5 c 0,25,26
 599 301.684210526 599 301.684210526 599 451 c 0,27,14
 599 539 599 539 548.5 599 c 128,-1,15
423 746 m 1,28,-1
 408 762 l 1,29,30
 478 850 478 850 542 946 c 1,31,32
 552 939 552 939 565.5 922 c 128,-1,33
 579 905 579 905 582 891 c 1,34,-1
 578 872 l 1,35,36
 525 810 525 810 423 746 c 1,28,-1
EndSplineSet
Position2: "'cpsp' Capital Spacing in Latin lookup 0 subtable" dx=7 dy=0 dh=35 dv=0
EndChar

StartChar: Yacute
Encoding: 221 221 46
Width: 538
Flags: HMW
HStem: 0 21G<118 381 118 118> 680 20G<70 190 190 190> 687 20G<544.5 549> 746 21G<335 335> 926 20G
LayerCount: 2
Fore
SplineSet
387 22 m 1,0,-1
 381 0 l 1,1,-1
 118 0 l 1,2,-1
 110 26 l 1,3,4
 163 44 163 44 214 58 c 1,5,-1
 251 271 l 1,6,-1
 128 646 l 1,7,8
 92 659 92 659 64 678 c 1,9,-1
 70 700 l 1,10,-1
 190 700 l 1,11,-1
 307 309 l 1,12,13
 384 425 384 425 444 534 c 1,14,-1
 458 655 l 1,15,16
 513 707 513 707 549 707 c 1,17,-1
 570 694 l 1,18,19
 539 613 539 613 469.5 490 c 128,-1,20
 400 367 400 367 323 264 c 1,21,-1
 284 59 l 1,22,23
 334 47 334 47 387 22 c 1,0,-1
335 746 m 1,24,-1
 320 762 l 1,25,26
 390 850 390 850 454 946 c 1,27,28
 464 939 464 939 477.5 922 c 128,-1,29
 491 905 491 905 494 891 c 1,30,-1
 490 872 l 1,31,32
 437 810 437 810 335 746 c 1,24,-1
EndSplineSet
Position2: "'cpsp' Capital Spacing in Latin lookup 0 subtable" dx=7 dy=0 dh=35 dv=0
EndChar

StartChar: Ydieresis
Encoding: 376 376 47
Width: 538
Flags: HMW
HStem: 0 21G<118 381 118 118> 680 20G<70 190 190 190> 687 20G<544.5 549> 788 21G<276 295.5 412 431.5> 883 20G<320 338 456 474>
VStem: 260 94<811 878.5> 396 94<811 878.5>
LayerCount: 2
Fore
SplineSet
387 22 m 1,0,-1
 381 0 l 1,1,-1
 118 0 l 1,2,-1
 110 26 l 1,3,4
 163 44 163 44 214 58 c 1,5,-1
 251 271 l 1,6,-1
 128 646 l 1,7,8
 92 659 92 659 64 678 c 1,9,-1
 70 700 l 1,10,-1
 190 700 l 1,11,-1
 307 309 l 1,12,13
 384 425 384 425 444 534 c 1,14,-1
 458 655 l 1,15,16
 513 707 513 707 549 707 c 1,17,-1
 570 694 l 1,18,19
 539 613 539 613 469.5 490 c 128,-1,20
 400 367 400 367 323 264 c 1,21,-1
 284 59 l 1,22,23
 334 47 334 47 387 22 c 1,0,-1
465 903 m 0,24,25
 490 903 490 903 490 869 c 0,26,27
 490 843 490 843 481 820 c 128,-1,28
 472 797 472 797 471 797 c 0,29,30
 441 788 441 788 422 788 c 0,31,32
 396 788 396 788 396 820 c 0,33,34
 396 845.333333333 396 845.333333333 410.5 884 c 2,35,-1
 415 896 l 1,36,37
 447 903 447 903 465 903 c 0,24,25
329 903 m 0,38,39
 354 903 354 903 354 869 c 0,40,41
 354 843 354 843 345 820 c 128,-1,42
 336 797 336 797 335 797 c 0,43,44
 305 788 305 788 286 788 c 0,45,46
 260 788 260 788 260 820 c 0,47,48
 260 845.333333333 260 845.333333333 274.5 884 c 2,49,-1
 279 896 l 1,50,51
 311 903 311 903 329 903 c 0,38,39
EndSplineSet
Position2: "'cpsp' Capital Spacing in Latin lookup 0 subtable" dx=7 dy=0 dh=35 dv=0
EndChar

StartChar: Idieresis
Encoding: 207 207 49
Width: 355
Flags: HMW
HStem: 0 21G<22 245 22 22> 680 20G<132 355 355 355> 788 21G<186 205.5 322 341.5> 883 20G<230 248 366 384>
VStem: 170 94<811 878.5> 306 94<811 878.5>
LayerCount: 2
Fore
SplineSet
251 22 m 1,0,-1
 245 0 l 1,1,-1
 22 0 l 1,2,-1
 14 26 l 1,3,4
 40 37 40 37 98 57 c 1,5,-1
 149 350 l 1,6,-1
 210 642 l 1,7,8
 173 652 173 652 126 678 c 1,9,-1
 132 700 l 1,10,-1
 355 700 l 1,11,-1
 363 674 l 1,12,13
 312 653 312 653 278 643 c 1,14,-1
 228 350 l 1,15,-1
 167 58 l 1,16,17
 210 44 210 44 251 22 c 1,0,-1
375 903 m 0,18,19
 400 903 400 903 400 869 c 0,20,21
 400 843 400 843 391 820 c 128,-1,22
 382 797 382 797 381 797 c 0,23,24
 351 788 351 788 332 788 c 0,25,26
 306 788 306 788 306 820 c 0,27,28
 306 845.333333333 306 845.333333333 320.5 884 c 2,29,-1
 325 896 l 1,30,31
 357 903 357 903 375 903 c 0,18,19
239 903 m 0,32,33
 264 903 264 903 264 869 c 0,34,35
 264 843 264 843 255 820 c 128,-1,36
 246 797 246 797 245 797 c 0,37,38
 215 788 215 788 196 788 c 0,39,40
 170 788 170 788 170 820 c 0,41,42
 170 845.333333333 170 845.333333333 184.5 884 c 2,43,-1
 189 896 l 1,44,45
 221 903 221 903 239 903 c 0,32,33
EndSplineSet
Position2: "'cpsp' Capital Spacing in Latin lookup 0 subtable" dx=7 dy=0 dh=35 dv=0
EndChar

StartChar: Egrave
Encoding: 200 200 52
Width: 570
Flags: HMW
HStem: -4 21G 8 47<166 166 166 184> 332 50 646 50<252 278> 693 20G<571 571> 758 21G<444 444> 938 20G
LayerCount: 2
Fore
SplineSet
125 678 m 1,0,-1
 131 700 l 1,1,-1
 252 696 l 1,2,3
 502 698 502 698 571 713 c 1,4,-1
 577 696 l 1,5,6
 568 667 568 667 546 640 c 1,7,8
 382 640 382 640 278 646 c 1,9,-1
 235 382 l 1,10,-1
 482 382 l 1,11,-1
 473 339 l 1,12,-1
 225 326 l 1,13,-1
 166 55 l 1,14,15
 421 57 421 57 491 72 c 1,16,-1
 497 55 l 1,17,18
 488 22 488 22 466 -4 c 1,19,20
 304 8 304 8 126 8 c 1,21,-1
 21 0 l 1,22,-1
 13 26 l 1,23,24
 64 47 64 47 98 57 c 1,25,-1
 209 642 l 1,26,27
 172 652 172 652 125 678 c 1,0,-1
459 774 m 1,28,-1
 444 758 l 1,29,30
 342 822 342 822 289 884 c 1,31,-1
 285 903 l 1,32,33
 288 917 288 917 301.5 934 c 128,-1,34
 315 951 315 951 325 958 c 1,35,36
 381 872 381 872 439.5 798.5 c 2,37,-1
 459 774 l 1,28,-1
EndSplineSet
Position2: "'cpsp' Capital Spacing in Latin lookup 0 subtable" dx=7 dy=0 dh=35 dv=0
EndChar

StartChar: Ograve
Encoding: 210 210 54
Width: 694
Flags: HMW
HStem: -12 53<240 389.5 240 392> 659 53<325.5 474> 758 21G<522 522> 938 20G
VStem: 50 80<182 338.5 182 349.5> 599 80<359.5 510>
LayerCount: 2
Fore
SplineSet
451 712 m 0,0,1
 558 712 558 712 618.5 638.5 c 128,-1,2
 679 565 679 565 679 453 c 128,-1,3
 679 341 679 341 629.5 235.5 c 128,-1,4
 580 130 580 130 483 59 c 128,-1,5
 386 -12 386 -12 266 -12 c 0,6,7
 166 -12 166 -12 108 60 c 128,-1,8
 50 132 50 132 50 242 c 0,9,10
 50 324 50 324 78 406.5 c 128,-1,11
 106 489 106 489 156 557.5 c 128,-1,12
 206 626 206 626 283.5 669 c 128,-1,13
 361 712 361 712 451 712 c 0,0,1
548.5 599 m 128,-1,15
 498 659 498 659 425.5 659 c 128,-1,16
 353 659 353 659 294 621.5 c 128,-1,17
 235 584 235 584 200.5 522.5 c 0,18,19
 130 396.826086957 130 396.826086957 130 241 c 0,20,21
 130 153 130 153 173.5 97 c 128,-1,22
 217 41 217 41 288.5 41 c 128,-1,23
 360 41 360 41 421.5 79 c 128,-1,24
 483 117 483 117 521 177.5 c 0,25,26
 599 301.684210526 599 301.684210526 599 451 c 0,27,14
 599 539 599 539 548.5 599 c 128,-1,15
537 774 m 1,28,-1
 522 758 l 1,29,30
 420 822 420 822 367 884 c 1,31,-1
 363 903 l 1,32,33
 366 917 366 917 379.5 934 c 128,-1,34
 393 951 393 951 403 958 c 1,35,36
 459 872 459 872 517.5 798.5 c 2,37,-1
 537 774 l 1,28,-1
EndSplineSet
Position2: "'cpsp' Capital Spacing in Latin lookup 0 subtable" dx=7 dy=0 dh=35 dv=0
EndChar

StartChar: Eth
Encoding: 208 208 55
Width: 717
Flags: HMW
HStem: -6 47<299 299> 324 21G<67 67> 331 51 658 54<454 492>
VStem: 622 80<358 519>
LayerCount: 2
Fore
SplineSet
67 324 m 1,0,-1
 67 382 l 1,1,-1
 403 382 l 1,2,-1
 403 339 l 1,3,-1
 67 324 l 1,0,-1
125 678 m 1,4,-1
 131 700 l 1,5,-1
 257 696 l 1,6,-1
 454 712 l 1,7,8
 566 712 566 712 634 647 c 128,-1,9
 702 582 702 582 702 459.5 c 128,-1,10
 702 337 702 337 657 235.5 c 128,-1,11
 612 134 612 134 519 67 c 128,-1,12
 426 0 426 0 299 -6 c 1,13,-1
 123 8 l 1,14,-1
 21 0 l 1,15,-1
 13 26 l 1,16,17
 64 47 64 47 98 57 c 1,18,-1
 209 642 l 1,19,20
 172 652 172 652 125 678 c 1,4,-1
317 41 m 128,-1,22
 386 41 386 41 445.5 79 c 128,-1,23
 505 117 505 117 542.5 177 c 0,24,25
 622 304.2 622 304.2 622 449 c 0,26,27
 622 551 622 551 572 604.5 c 128,-1,28
 522 658 522 658 439 658 c 128,-1,29
 356 658 356 658 276 639 c 1,30,-1
 230 350 l 1,31,-1
 167 60 l 1,32,21
 248 41 248 41 317 41 c 128,-1,22
EndSplineSet
Position2: "'cpsp' Capital Spacing in Latin lookup 0 subtable" dx=7 dy=0 dh=35 dv=0
EndChar

StartChar: Adieresis
Encoding: 196 196 57
Width: 618
Flags: HMW
HStem: 0 21G<-64 -64 -64 129 359 359 359 582> 222 51 686 20G<399 403> 788 21G<307 326.5 443 462.5> 883 20G<351 369 487 505>
VStem: 291 94<811 878.5> 427 94<811 878.5>
LayerCount: 2
Fore
SplineSet
-64 0 m 1,0,-1
 -70 22 l 1,1,2
 -56 31 -56 31 3 57 c 1,3,-1
 339 691 l 1,4,5
 376 706 376 706 403 706 c 1,6,-1
 418 697 l 1,7,-1
 509 56 l 1,8,9
 550 42 550 42 588 22 c 1,10,-1
 582 0 l 1,11,-1
 359 0 l 1,12,-1
 351 26 l 1,13,14
 393 43 393 43 431 55 c 1,15,-1
 406 229 l 1,16,-1
 144 215 l 1,17,-1
 61 56 l 1,18,-1
 137 26 l 1,19,-1
 129 0 l 1,20,-1
 -64 0 l 1,0,-1
352 617 m 1,21,-1
 174 273 l 1,22,-1
 400 273 l 1,23,-1
 352 617 l 1,21,-1
496 903 m 0,24,25
 521 903 521 903 521 869 c 0,26,27
 521 843 521 843 512 820 c 128,-1,28
 503 797 503 797 502 797 c 0,29,30
 472 788 472 788 453 788 c 0,31,32
 427 788 427 788 427 820 c 0,33,34
 427 850.4 427 850.4 441 884 c 2,35,-1
 446 896 l 1,36,37
 478 903 478 903 496 903 c 0,24,25
360 903 m 0,38,39
 385 903 385 903 385 869 c 0,40,41
 385 843 385 843 376 820 c 128,-1,42
 367 797 367 797 366 797 c 0,43,44
 336 788 336 788 317 788 c 0,45,46
 291 788 291 788 291 820 c 0,47,48
 291 850.4 291 850.4 305 884 c 2,49,-1
 310 896 l 1,50,51
 342 903 342 903 360 903 c 0,38,39
EndSplineSet
Position2: "'cpsp' Capital Spacing in Latin lookup 0 subtable" dx=7 dy=0 dh=35 dv=0
EndChar

StartChar: dotaccent
Encoding: 729 729 58
Width: 247
Flags: HMW
HStem: 547 21G<159 178.5> 642 20G<203 221>
VStem: 143 94<570 637.5>
LayerCount: 2
Fore
SplineSet
212 662 m 0,0,1
 237 662 237 662 237 628 c 0,2,3
 237 602 237 602 228 579 c 128,-1,4
 219 556 219 556 218 556 c 0,5,6
 188 547 188 547 169 547 c 0,7,8
 143 547 143 547 143 579 c 0,9,10
 143 609.4 143 609.4 157 643 c 2,11,-1
 162 655 l 1,12,13
 194 662 194 662 212 662 c 0,0,1
EndSplineSet
EndChar

StartChar: Otilde
Encoding: 213 213 59
Width: 694
Flags: HMW
HStem: -12 53<240 389.5 240 392> 659 53<325.5 474> 795 62<516.5 542> 824 33 824 62<403 428>
VStem: 50 80<182 338.5 182 349.5> 599 80<359.5 510>
LayerCount: 2
Fore
SplineSet
451 712 m 0,0,1
 558 712 558 712 618.5 638.5 c 128,-1,2
 679 565 679 565 679 453 c 128,-1,3
 679 341 679 341 629.5 235.5 c 128,-1,4
 580 130 580 130 483 59 c 128,-1,5
 386 -12 386 -12 266 -12 c 0,6,7
 166 -12 166 -12 108 60 c 128,-1,8
 50 132 50 132 50 242 c 0,9,10
 50 324 50 324 78 406.5 c 128,-1,11
 106 489 106 489 156 557.5 c 128,-1,12
 206 626 206 626 283.5 669 c 128,-1,13
 361 712 361 712 451 712 c 0,0,1
548.5 599 m 128,-1,15
 498 659 498 659 425.5 659 c 128,-1,16
 353 659 353 659 294 621.5 c 128,-1,17
 235 584 235 584 200.5 522.5 c 0,18,19
 130 396.826086957 130 396.826086957 130 241 c 0,20,21
 130 153 130 153 173.5 97 c 128,-1,22
 217 41 217 41 288.5 41 c 128,-1,23
 360 41 360 41 421.5 79 c 128,-1,24
 483 117 483 117 521 177.5 c 0,25,26
 599 301.684210526 599 301.684210526 599 451 c 0,27,14
 599 539 599 539 548.5 599 c 128,-1,15
604 886 m 1,28,-1
 623 869 l 1,29,30
 578 795 578 795 527 795 c 0,31,32
 507 795 507 795 467.5 809.5 c 128,-1,33
 428 824 428 824 408 824 c 0,34,35
 370 824 370 824 341 795 c 1,36,-1
 322 812 l 1,37,38
 366 886 366 886 418 886 c 0,39,40
 438 886 438 886 477 871.5 c 128,-1,41
 516 857 516 857 537 857 c 0,42,43
 574 857 574 857 604 886 c 1,28,-1
EndSplineSet
Position2: "'cpsp' Capital Spacing in Latin lookup 0 subtable" dx=7 dy=0 dh=35 dv=0
EndChar

StartChar: ring
Encoding: 730 730 60
Width: 285
Flags: HMW
HStem: 503 33<167 191.5 167 201.5> 659 20G<175.5 226>
VStem: 93 47<562 599.5 562 605> 235 47<581.5 619>
LayerCount: 2
Fore
SplineSet
204 679 m 0,0,1
 282 679 282 679 282 605 c 0,2,3
 282 566 282 566 249.5 534.5 c 128,-1,4
 217 503 217 503 175.5 503 c 0,5,6
 93 503 93 503 93 570 c 0,7,8
 93 620 93 620 126 649.5 c 128,-1,9
 159 679 159 679 204 679 c 0,0,1
198 646 m 0,10,11
 175 646 175 646 157.5 627.5 c 128,-1,12
 140 609 140 609 140 575 c 0,13,14
 140 536 140 536 178 536 c 0,15,16
 201 536 201 536 218 554 c 128,-1,17
 235 572 235 572 235 609 c 128,-1,18
 235 646 235 646 198 646 c 0,10,11
EndSplineSet
EndChar

StartChar: circumflex
Encoding: 710 710 61
Width: 282
Flags: HMW
HStem: 504 21G<69 69 287 287> 668 20G<212 220>
LayerCount: 2
Fore
SplineSet
192 685 m 1,0,-1
 216 688 l 1,1,2
 228 688 228 688 240 685 c 1,3,-1
 306 518 l 1,4,-1
 287 504 l 1,5,6
 237 563 237 563 208 608 c 1,7,8
 171 576 171 576 69 504 c 1,9,-1
 50 521 l 1,10,11
 111 580 111 580 192 685 c 1,0,-1
EndSplineSet
EndChar

StartChar: Ocircumflex
Encoding: 212 212 63
Width: 694
Flags: HMW
HStem: -12 53<240 389.5 240 392> 659 53<325.5 474> 748 21G<344 344 562 562> 912 20G<487 495>
VStem: 50 80<182 338.5 182 349.5> 599 80<359.5 510>
LayerCount: 2
Fore
SplineSet
451 712 m 0,0,1
 558 712 558 712 618.5 638.5 c 128,-1,2
 679 565 679 565 679 453 c 128,-1,3
 679 341 679 341 629.5 235.5 c 128,-1,4
 580 130 580 130 483 59 c 128,-1,5
 386 -12 386 -12 266 -12 c 0,6,7
 166 -12 166 -12 108 60 c 128,-1,8
 50 132 50 132 50 242 c 0,9,10
 50 324 50 324 78 406.5 c 128,-1,11
 106 489 106 489 156 557.5 c 128,-1,12
 206 626 206 626 283.5 669 c 128,-1,13
 361 712 361 712 451 712 c 0,0,1
548.5 599 m 128,-1,15
 498 659 498 659 425.5 659 c 128,-1,16
 353 659 353 659 294 621.5 c 128,-1,17
 235 584 235 584 200.5 522.5 c 0,18,19
 130 396.826086957 130 396.826086957 130 241 c 0,20,21
 130 153 130 153 173.5 97 c 128,-1,22
 217 41 217 41 288.5 41 c 128,-1,23
 360 41 360 41 421.5 79 c 128,-1,24
 483 117 483 117 521 177.5 c 0,25,26
 599 301.684210526 599 301.684210526 599 451 c 0,27,14
 599 539 599 539 548.5 599 c 128,-1,15
467 929 m 1,28,-1
 491 932 l 1,29,30
 503 932 503 932 515 929 c 1,31,-1
 581 762 l 1,32,-1
 562 748 l 1,33,34
 512 807 512 807 483 852 c 1,35,36
 446 820 446 820 344 748 c 1,37,-1
 325 765 l 1,38,39
 386 824 386 824 467 929 c 1,28,-1
EndSplineSet
Position2: "'cpsp' Capital Spacing in Latin lookup 0 subtable" dx=7 dy=0 dh=35 dv=0
EndChar

StartChar: Acircumflex
Encoding: 194 194 65
Width: 618
Flags: HMW
HStem: 0 21G<-64 -64 -64 129 359 359 359 582> 222 51 686 20G<399 403> 748 21G<269 269 487 487> 912 20G<412 420>
LayerCount: 2
Fore
SplineSet
-64 0 m 1,0,-1
 -70 22 l 1,1,2
 -56 31 -56 31 3 57 c 1,3,-1
 339 691 l 1,4,5
 376 706 376 706 403 706 c 1,6,-1
 418 697 l 1,7,-1
 509 56 l 1,8,9
 550 42 550 42 588 22 c 1,10,-1
 582 0 l 1,11,-1
 359 0 l 1,12,-1
 351 26 l 1,13,14
 393 43 393 43 431 55 c 1,15,-1
 406 229 l 1,16,-1
 144 215 l 1,17,-1
 61 56 l 1,18,-1
 137 26 l 1,19,-1
 129 0 l 1,20,-1
 -64 0 l 1,0,-1
352 617 m 1,21,-1
 174 273 l 1,22,-1
 400 273 l 1,23,-1
 352 617 l 1,21,-1
392 929 m 1,24,-1
 416 932 l 1,25,26
 428 932 428 932 440 929 c 1,27,-1
 506 762 l 1,28,-1
 487 748 l 1,29,30
 437 807 437 807 408 852 c 1,31,32
 371 820 371 820 269 748 c 1,33,-1
 250 765 l 1,34,35
 311 824 311 824 392 929 c 1,24,-1
EndSplineSet
Position2: "'cpsp' Capital Spacing in Latin lookup 0 subtable" dx=7 dy=0 dh=35 dv=0
EndChar

StartChar: caron
Encoding: 711 711 67
Width: 335
Flags: HMW
HStem: 519 21G<147 155> 683 20G<80 80 298 298>
LayerCount: 2
Fore
SplineSet
127 522 m 1,0,-1
 61 689 l 1,1,-1
 80 703 l 1,2,3
 130 644 130 644 159 599 c 1,4,5
 196 631 196 631 298 703 c 1,6,-1
 317 686 l 1,7,8
 256 627 256 627 175 522 c 1,9,10
 163 519 163 519 151 519 c 128,-1,11
 139 519 139 519 127 522 c 1,0,-1
EndSplineSet
EndChar

StartChar: cedilla
Encoding: 184 184 68
Width: 410
Flags: HMW
HStem: -237 21G<120 120> -20 20G<189 216 216 216>
VStem: 185 67<-134.5 -94.5>
LayerCount: 2
Fore
SplineSet
120 -237 m 1,0,-1
 109 -220 l 1,1,2
 185 -172 185 -172 185 -111 c 0,3,4
 185 -93 185 -93 177 -74 c 128,-1,5
 169 -55 169 -55 169 -47 c 1,6,-1
 189 0 l 1,7,-1
 216 0 l 1,8,-1
 208 -27 l 1,9,10
 208 -43 208 -43 230 -65.5 c 128,-1,11
 252 -88 252 -88 252 -110 c 0,12,13
 252 -150 252 -150 212.5 -183.5 c 128,-1,14
 173 -217 173 -217 120 -237 c 1,0,-1
EndSplineSet
EndChar

StartChar: Thorn
Encoding: 222 222 69
Width: 541
Flags: HMW
HStem: 0 21G<22 245 22 22> 120 21G<308.5 321> 501 20G<382 416.5> 516 47 680 20G<132 355 355 355>
VStem: 481 80<340 419.5>
LayerCount: 2
Fore
SplineSet
331 174 m 0,0,1
 405 174 405 174 443 240 c 128,-1,2
 481 306 481 306 481 374 c 128,-1,3
 481 442 481 442 456 481.5 c 128,-1,4
 431 521 431 521 382 521 c 1,5,-1
 255 511 l 1,6,-1
 229 561 l 1,7,-1
 400 563 l 2,8,9
 476 563 476 563 518.5 515 c 128,-1,10
 561 467 561 467 561 382 c 128,-1,11
 561 297 561 297 488.5 219.5 c 128,-1,12
 416 142 416 142 321 120 c 1,13,14
 300.526315789 120 300.526315789 120 260.263157895 135 c 128,-1,15
 220 150 220 150 218 151 c 1,16,-1
 230 192 l 1,17,18
 288 174 288 174 331 174 c 0,0,1
251 22 m 1,19,-1
 245 0 l 1,20,-1
 22 0 l 1,21,-1
 14 26 l 1,22,23
 40 37 40 37 98 57 c 1,24,-1
 149 350 l 1,25,-1
 210 642 l 1,26,27
 173 652 173 652 126 678 c 1,28,-1
 132 700 l 1,29,-1
 355 700 l 1,30,-1
 363 674 l 1,31,32
 312 653 312 653 278 643 c 1,33,-1
 228 350 l 1,34,-1
 167 58 l 1,35,36
 210 44 210 44 251 22 c 1,19,-1
EndSplineSet
EndChar

StartChar: endash
Encoding: 8211 8211 70
Width: 591
Flags: HMW
HStem: 225 56<125 486 125 486>
LayerCount: 2
Fore
SplineSet
125 225 m 1,0,-1
 125 281 l 1,1,-1
 486 281 l 1,2,-1
 486 225 l 1,3,-1
 125 225 l 1,0,-1
EndSplineSet
Position2: "'case' Case-Sensitive Forms in Latin lookup 1 per glyph data 0" dx=0 dy=70 dh=0 dv=0
EndChar

StartChar: emdash
Encoding: 8212 8212 71
Width: 839
Flags: HMW
HStem: 225 56<125 734 125 734>
LayerCount: 2
Fore
SplineSet
125 225 m 1,0,-1
 125 281 l 1,1,-1
 734 281 l 1,2,-1
 734 225 l 1,3,-1
 125 225 l 1,0,-1
EndSplineSet
Position2: "'case' Case-Sensitive Forms in Latin lookup 1 per glyph data 0" dx=0 dy=70 dh=0 dv=0
EndChar

StartChar: Z
Encoding: 90 90 73
Width: 605
Flags: HMW
HStem: -12 21G<-1 -1> 8 47 643 53 693 20G<139 139>
LayerCount: 2
Fore
SplineSet
-13 8 m 1,0,-1
 483 643 l 1,1,2
 354 640 354 640 164 640 c 1,3,4
 142 667 142 667 133 696 c 1,5,-1
 139 713 l 1,6,7
 233 698 233 698 578 696 c 1,8,-1
 604 712 l 1,9,-1
 622 695 l 1,10,-1
 116 55 l 1,11,12
 430 59 430 59 516 72 c 1,13,-1
 522 55 l 1,14,15
 513 25 513 25 491 -4 c 1,16,17
 302 6 302 6 41 8 c 1,18,-1
 -1 -12 l 1,19,-1
 -13 8 l 1,0,-1
EndSplineSet
Position2: "'cpsp' Capital Spacing in Latin lookup 0 subtable" dx=7 dy=0 dh=35 dv=0
EndChar

StartChar: slash
Encoding: 47 47 74
Width: 327
Flags: HMW
HStem: -50 21G<-30 -30 -30 24> 730 20G<303 357 357 357>
LayerCount: 2
Fore
SplineSet
-30 -50 m 1,0,-1
 303 750 l 1,1,-1
 357 750 l 1,2,-1
 24 -50 l 1,3,-1
 -30 -50 l 1,0,-1
EndSplineSet
EndChar

StartChar: Oslash
Encoding: 216 216 75
Width: 694
Flags: HMW
HStem: -119 21G<157 157 157 211> -12 53<240 389.5 240 392> 659 53<325.5 474> 797 20G<546 600 600 600>
VStem: 50 80<182 338.5 182 349.5> 599 80<359.5 510>
LayerCount: 2
Fore
SplineSet
157 -119 m 1,0,-1
 546 817 l 1,1,-1
 600 817 l 1,2,-1
 211 -119 l 1,3,-1
 157 -119 l 1,0,-1
451 712 m 0,4,5
 558 712 558 712 618.5 638.5 c 128,-1,6
 679 565 679 565 679 453 c 128,-1,7
 679 341 679 341 629.5 235.5 c 128,-1,8
 580 130 580 130 483 59 c 128,-1,9
 386 -12 386 -12 266 -12 c 0,10,11
 166 -12 166 -12 108 60 c 128,-1,12
 50 132 50 132 50 242 c 0,13,14
 50 324 50 324 78 406.5 c 128,-1,15
 106 489 106 489 156 557.5 c 128,-1,16
 206 626 206 626 283.5 669 c 128,-1,17
 361 712 361 712 451 712 c 0,4,5
548.5 599 m 128,-1,19
 498 659 498 659 425.5 659 c 128,-1,20
 353 659 353 659 294 621.5 c 128,-1,21
 235 584 235 584 200.5 522.5 c 0,22,23
 130 396.826086957 130 396.826086957 130 241 c 0,24,25
 130 153 130 153 173.5 97 c 128,-1,26
 217 41 217 41 288.5 41 c 128,-1,27
 360 41 360 41 421.5 79 c 128,-1,28
 483 117 483 117 521 177.5 c 0,29,30
 599 301.684210526 599 301.684210526 599 451 c 0,31,18
 599 539 599 539 548.5 599 c 128,-1,19
EndSplineSet
EndChar

StartChar: OE
Encoding: 338 338 77
Width: 853
Flags: HMW
HStem: -12 51<240 295.5> -4 21G 8 47<449 449 449 467> 332 50 646 50<535 561> 653 53<325.5 445> 693 20G<854 854>
VStem: 50 80<182 338.5 182 349.5>
LayerCount: 2
Fore
SplineSet
535 696 m 1,0,-1
 538 620 l 1,1,2
 492 653 492 653 422.5 653 c 128,-1,3
 353 653 353 653 294 616.5 c 128,-1,4
 235 580 235 580 200.5 519.5 c 0,5,6
 130 395.869565217 130 395.869565217 130 241 c 0,7,8
 130 153 130 153 173.5 96 c 128,-1,9
 217 39 217 39 283 39 c 128,-1,10
 349 39 349 39 408 70 c 1,11,-1
 420 11 l 1,12,13
 345 -12 345 -12 266 -12 c 0,14,15
 166 -12 166 -12 108 60 c 128,-1,16
 50 132 50 132 50 242 c 0,17,18
 50 324 50 324 78 405.5 c 128,-1,19
 106 487 106 487 156 554.5 c 128,-1,20
 206 622 206 622 283.5 664 c 128,-1,21
 361 706 361 706 451 706 c 0,22,23
 493 706 493 706 535 696 c 1,0,-1
408 678 m 1,24,-1
 414 700 l 1,25,-1
 535 696 l 1,26,27
 785 698 785 698 854 713 c 1,28,-1
 860 696 l 1,29,30
 851 667 851 667 829 640 c 1,31,32
 665 640 665 640 561 646 c 1,33,-1
 518 382 l 1,34,-1
 765 382 l 1,35,-1
 756 339 l 1,36,-1
 508 326 l 1,37,-1
 449 55 l 1,38,39
 704 57 704 57 774 72 c 1,40,-1
 780 55 l 1,41,42
 771 22 771 22 749 -4 c 1,43,44
 587 8 587 8 409 8 c 1,45,-1
 304 0 l 1,46,-1
 296 26 l 1,47,48
 347 47 347 47 381 57 c 1,49,-1
 492 642 l 1,50,51
 455 652 455 652 408 678 c 1,24,-1
EndSplineSet
Position2: "'cpsp' Capital Spacing in Latin lookup 0 subtable" dx=7 dy=0 dh=35 dv=0
EndChar

StartChar: U
Encoding: 85 85 78
Width: 703
Flags: HMW
HStem: -12 55<269 385> 680 20G<108 331 331 331 549 752 752 752>
VStem: 95 75<132 164.5>
LayerCount: 2
Fore
SplineSet
102 678 m 1,0,-1
 108 700 l 1,1,-1
 331 700 l 1,2,-1
 339 674 l 1,3,4
 300 657.5 300 657.5 258 644 c 1,5,-1
 175 215 l 2,6,7
 170 188 170 188 170 170 c 0,8,9
 170 110 170 110 207.5 76.5 c 128,-1,10
 245 43 245 43 328.5 43 c 0,11,12
 412 43 412 43 468.5 93.5 c 128,-1,13
 525 144 525 144 539 216 c 2,14,-1
 622 642 l 1,15,16
 588 654 588 654 541 674 c 1,17,-1
 549 700 l 1,18,-1
 752 700 l 1,19,-1
 758 678 l 1,20,21
 713 652 713 652 677 641 c 1,22,-1
 595 218 l 2,23,24
 575 115 575 115 498 51.5 c 128,-1,25
 421 -12 421 -12 310 -12 c 0,26,27
 95 -12 95 -12 95 155 c 0,28,29
 95 186 95 186 102 218 c 2,30,-1
 184 643 l 1,31,32
 143 655 143 655 102 678 c 1,0,-1
EndSplineSet
Position2: "'cpsp' Capital Spacing in Latin lookup 0 subtable" dx=7 dy=0 dh=35 dv=0
EndChar

StartChar: J
Encoding: 74 74 79
Width: 324
Flags: HMW
HStem: -204 21G 680 20G<110 353 353 353>
LayerCount: 2
Fore
SplineSet
104 678 m 1,0,-1
 110 700 l 1,1,-1
 353 700 l 1,2,-1
 361 674 l 1,3,4
 322 657.5 322 657.5 280 644 c 1,5,-1
 192 186 l 2,6,7
 156 3 156 3 -59 -204 c 1,8,-1
 -84 -183 l 1,9,10
 80 -2 80 -2 111 159 c 2,11,-1
 204 641 l 1,12,13
 148 657 148 657 104 678 c 1,0,-1
EndSplineSet
Position2: "'cpsp' Capital Spacing in Latin lookup 0 subtable" dx=7 dy=0 dh=35 dv=0
EndChar

StartChar: S
Encoding: 83 83 80
Width: 490
Flags: HMW
HStem: -12 48<186 261.5> 692 20G<342 361>
VStem: 107 70<499.5 547> 372 84<142 193.5>
LayerCount: 2
Fore
SplineSet
0 36 m 1,0,-1
 36 186 l 1,1,-1
 59 181 l 1,2,3
 68 134 68 134 73 77 c 1,4,5
 125 36 125 36 204.5 36 c 128,-1,6
 284 36 284 36 328 78 c 128,-1,7
 372 120 372 120 372 177.5 c 128,-1,8
 372 235 372 235 324 267 c 2,9,-1
 175 368 l 2,10,11
 107 414 107 414 107 494.5 c 128,-1,12
 107 575 107 575 170.5 635.5 c 128,-1,13
 234 696 234 696 342 712 c 1,14,15
 383 712 383 712 500 673 c 1,16,-1
 474 623 l 1,17,18
 359 646 359 646 326 646 c 128,-1,19
 293 646 293 646 271.5 641 c 128,-1,20
 250 636 250 636 227.5 623.5 c 128,-1,21
 205 611 205 611 191 585 c 128,-1,22
 177 559 177 559 177 523 c 0,23,24
 177 460 177 460 227 427 c 2,25,-1
 372 329 l 1,26,27
 456 271 456 271 456 196 c 0,28,29
 456 104 456 104 377 46 c 128,-1,30
 298 -12 298 -12 197.5 -12 c 128,-1,31
 97 -12 97 -12 0 36 c 1,0,-1
EndSplineSet
Position2: "'cpsp' Capital Spacing in Latin lookup 0 subtable" dx=7 dy=0 dh=35 dv=0
EndChar

StartChar: Ucircumflex
Encoding: 219 219 82
Width: 703
Flags: HMW
HStem: -12 55<269 385> 680 20G<108 331 331 331 549 752 752 752> 748 21G<360 360 578 578> 912 20G<503 511>
VStem: 95 75<132 164.5>
LayerCount: 2
Fore
SplineSet
102 678 m 1,0,-1
 108 700 l 1,1,-1
 331 700 l 1,2,-1
 339 674 l 1,3,4
 300 657.5 300 657.5 258 644 c 1,5,-1
 175 215 l 2,6,7
 170 188 170 188 170 170 c 0,8,9
 170 110 170 110 207.5 76.5 c 128,-1,10
 245 43 245 43 328.5 43 c 128,-1,11
 412 43 412 43 468.5 93.5 c 128,-1,12
 525 144 525 144 539 216 c 2,13,-1
 622 642 l 1,14,15
 588 654 588 654 541 674 c 1,16,-1
 549 700 l 1,17,-1
 752 700 l 1,18,-1
 758 678 l 1,19,20
 713 652 713 652 677 641 c 1,21,-1
 595 218 l 2,22,23
 575 115 575 115 498 51.5 c 128,-1,24
 421 -12 421 -12 310 -12 c 0,25,26
 95 -12 95 -12 95 155 c 0,27,28
 95 186 95 186 102 218 c 2,29,-1
 184 643 l 1,30,31
 143 655 143 655 102 678 c 1,0,-1
483 929 m 1,32,-1
 507 932 l 1,33,34
 519 932 519 932 531 929 c 1,35,-1
 597 762 l 1,36,-1
 578 748 l 1,37,38
 528 807 528 807 499 852 c 1,39,40
 462 820 462 820 360 748 c 1,41,-1
 341 765 l 1,42,43
 402 824 402 824 483 929 c 1,32,-1
EndSplineSet
Position2: "'cpsp' Capital Spacing in Latin lookup 0 subtable" dx=7 dy=0 dh=35 dv=0
EndChar

StartChar: Ugrave
Encoding: 217 217 84
Width: 703
Flags: HMW
HStem: -12 55<269 385> 680 20G<108 331 331 331 549 752 752 752> 758 21G<506 506> 938 20G
VStem: 95 75<132 164.5>
LayerCount: 2
Fore
SplineSet
102 678 m 1,0,-1
 108 700 l 1,1,-1
 331 700 l 1,2,-1
 339 674 l 1,3,4
 300 657.5 300 657.5 258 644 c 1,5,-1
 175 215 l 2,6,7
 170 188 170 188 170 170 c 0,8,9
 170 110 170 110 207.5 76.5 c 128,-1,10
 245 43 245 43 328.5 43 c 128,-1,11
 412 43 412 43 468.5 93.5 c 128,-1,12
 525 144 525 144 539 216 c 2,13,-1
 622 642 l 1,14,15
 588 654 588 654 541 674 c 1,16,-1
 549 700 l 1,17,-1
 752 700 l 1,18,-1
 758 678 l 1,19,20
 713 652 713 652 677 641 c 1,21,-1
 595 218 l 2,22,23
 575 115 575 115 498 51.5 c 128,-1,24
 421 -12 421 -12 310 -12 c 0,25,26
 95 -12 95 -12 95 155 c 0,27,28
 95 186 95 186 102 218 c 2,29,-1
 184 643 l 1,30,31
 143 655 143 655 102 678 c 1,0,-1
521 774 m 1,32,-1
 506 758 l 1,33,34
 404 822 404 822 351 884 c 1,35,-1
 347 903 l 1,36,37
 350 917 350 917 363.5 934 c 128,-1,38
 377 951 377 951 387 958 c 1,39,40
 443 872 443 872 501.5 798.5 c 2,41,-1
 521 774 l 1,32,-1
EndSplineSet
Position2: "'cpsp' Capital Spacing in Latin lookup 0 subtable" dx=7 dy=0 dh=35 dv=0
EndChar

StartChar: Zcaron
Encoding: 381 381 86
Width: 605
Flags: HMW
HStem: -12 21G<-1 -1> 8 47 643 53 693 20G<139 139> 763 21G<393 401> 927 20G<326 326 544 544>
LayerCount: 2
Fore
SplineSet
-13 8 m 1,0,-1
 483 643 l 1,1,2
 354 640 354 640 164 640 c 1,3,4
 142 667 142 667 133 696 c 1,5,-1
 139 713 l 1,6,7
 233 698 233 698 578 696 c 1,8,-1
 604 712 l 1,9,-1
 622 695 l 1,10,-1
 116 55 l 1,11,12
 430 59 430 59 516 72 c 1,13,-1
 522 55 l 1,14,15
 513 25 513 25 491 -4 c 1,16,17
 302 6 302 6 41 8 c 1,18,-1
 -1 -12 l 1,19,-1
 -13 8 l 1,0,-1
373 766 m 1,20,-1
 307 933 l 1,21,-1
 326 947 l 1,22,23
 376 888 376 888 405 843 c 1,24,25
 442 875 442 875 544 947 c 1,26,-1
 563 930 l 1,27,28
 502 871 502 871 421 766 c 1,29,30
 409 763 409 763 397 763 c 128,-1,31
 385 763 385 763 373 766 c 1,20,-1
EndSplineSet
Position2: "'cpsp' Capital Spacing in Latin lookup 0 subtable" dx=7 dy=0 dh=35 dv=0
EndChar

StartChar: B
Encoding: 66 66 87
Width: 613
Flags: HMW
HStem: 0 21G<21 21 328 395.5> 8 36 651 47 656 21G<403 436> 680 20G<131 131>
VStem: 497 70
LayerCount: 2
Fore
SplineSet
125 678 m 1,0,-1
 131 700 l 1,1,-1
 252 696 l 1,2,-1
 425 698 l 2,3,4
 496 698 496 698 536.5 655 c 128,-1,5
 577 612 577 612 577 553 c 128,-1,6
 577 494 577 494 539 448.5 c 128,-1,7
 501 403 501 403 441 374 c 1,8,9
 503 358 503 358 535 317.5 c 128,-1,10
 567 277 567 277 567 225 c 0,11,12
 567 135 567 135 497 67.5 c 128,-1,13
 427 0 427 0 330 0 c 0,14,15
 323 0 323 0 126 8 c 1,16,-1
 21 0 l 1,17,-1
 13 26 l 1,18,19
 64 47 64 47 98 57 c 1,20,-1
 209 642 l 1,21,22
 172 652 172 652 125 678 c 1,0,-1
166 58 m 1,23,24
 250 44 250 44 320.5 44 c 128,-1,25
 391 44 391 44 438.5 99 c 128,-1,26
 486 154 486 154 486 223 c 0,27,28
 486 272 486 272 459 307.5 c 128,-1,29
 432 343 432 343 379 351 c 1,30,31
 365.5 346.5 365.5 346.5 348.75 345.75 c 128,-1,32
 332 345 332 345 269 366 c 1,33,-1
 281 407 l 1,34,35
 343 399 343 399 362 399 c 0,36,37
 429 399 429 399 463 442.5 c 128,-1,38
 497 486 497 486 497 537.5 c 128,-1,39
 497 589 497 589 473.5 622.5 c 128,-1,40
 450 656 450 656 403 656 c 1,41,-1
 278 646 l 1,42,-1
 230 350 l 1,43,-1
 166 58 l 1,23,24
EndSplineSet
Position2: "'cpsp' Capital Spacing in Latin lookup 0 subtable" dx=7 dy=0 dh=35 dv=0
EndChar

StartChar: question
Encoding: 63 63 88
Width: 376
Flags: HMW
HStem: -13 21G<85.5 103.5> -5 21G<144 144.5> 658 20G<182 196>
VStem: 70 91<10.5 75.5> 309 67<464.5 538.5>
LayerCount: 2
Fore
SplineSet
309 506 m 0,0,1
 309 555 309 555 283.5 586 c 128,-1,2
 258 617 258 617 216 617 c 0,3,4
 183 617 183 617 145 610 c 128,-1,5
 107 603 107 603 93 601 c 1,6,-1
 77 650 l 1,7,8
 173 678 173 678 196 678 c 1,9,10
 261.024 667.84 261.024 667.84 314 630 c 0,11,12
 342 610 342 610 359 576 c 128,-1,13
 376 542 376 542 376 498 c 0,14,15
 376 412 376 412 301 309.5 c 128,-1,16
 226 207 226 207 146 148 c 1,17,-1
 121 166 l 1,18,-1
 209 285 l 1,19,20
 309 422 309 422 309 506 c 0,0,1
136 100 m 0,21,22
 161 100 161 100 161 66 c 0,23,24
 161 43 161 43 153 19 c 128,-1,25
 145 -5 145 -5 144 -5 c 0,26,27
 113 -13 113 -13 94 -13 c 0,28,29
 70 -13 70 -13 70 20 c 0,30,31
 70 42 70 42 78.5 67.5 c 128,-1,32
 87 93 87 93 88 93 c 0,33,34
 120 100 120 100 136 100 c 0,21,22
EndSplineSet
EndChar

StartChar: questiondown
Encoding: 191 191 89
Width: 347
Flags: HMW
HStem: -223 21G<201 215> -182 20G<153 205> 440 20G<252.5 253> 448 20G<293.5 311.5>
VStem: 21 67<-83.5 -9.5 -83.5 20> 236 91<379.5 444.5>
LayerCount: 2
Fore
SplineSet
261 355 m 0,0,1
 236 355 236 355 236 389 c 0,2,3
 236 412 236 412 244 436 c 128,-1,4
 252 460 252 460 253 460 c 0,5,6
 284 468 284 468 303 468 c 0,7,8
 327 468 327 468 327 435 c 0,9,10
 327 413 327 413 318.5 387.5 c 128,-1,11
 310 362 310 362 309 362 c 0,12,13
 277 355 277 355 261 355 c 0,0,1
88 -51 m 0,14,15
 88 -100 88 -100 113.5 -131 c 128,-1,16
 139 -162 139 -162 181 -162 c 0,17,18
 214 -162 214 -162 252 -155 c 128,-1,19
 290 -148 290 -148 304 -146 c 1,20,-1
 320 -195 l 1,21,22
 224 -223 224 -223 201 -223 c 1,23,24
 135.976 -212.84 135.976 -212.84 83 -175 c 0,25,26
 55 -155 55 -155 38 -121 c 128,-1,27
 21 -87 21 -87 21 -43 c 0,28,29
 21 43 21 43 96 145.5 c 128,-1,30
 171 248 171 248 251 307 c 1,31,-1
 276 289 l 1,32,-1
 188 170 l 1,33,34
 88 33 88 33 88 -51 c 0,14,15
EndSplineSet
Position2: "'case' Case-Sensitive Forms in Latin lookup 1 per glyph data 1" dx=0 dy=224 dh=0 dv=0
EndChar

StartChar: quoteright
Encoding: 8217 8217 90
Width: 173
Flags: HMW
HStem: 486 21G<74 74> 710 20G<152.5 176>
LayerCount: 2
Fore
SplineSet
105 719 m 1,0,1
 138 730 138 730 161 730 c 0,2,3
 203 730 203 730 203 669 c 1,4,5
 193 628 193 628 149 572 c 128,-1,6
 105 516 105 516 74 486 c 1,7,-1
 52 502 l 1,8,9
 75 534 75 534 87 553 c 0,10,11
 119 603.666666667 119 603.666666667 119 641.833333333 c 128,-1,12
 119 680 119 680 105 719 c 1,0,1
EndSplineSet
EndChar

StartChar: quotesingle
Encoding: 39 39 91
Width: 175
Flags: HMW
HStem: 474 21G<124 151 124 124> 688 20G<200 203>
LayerCount: 2
Fore
SplineSet
143 693 m 1,0,1
 178 708 178 708 203 708 c 1,2,-1
 218 699 l 1,3,-1
 151 474 l 1,4,-1
 124 474 l 1,5,6
 124 597 124 597 143 693 c 1,0,1
EndSplineSet
EndChar

StartChar: quotedbl
Encoding: 34 34 92
Width: 300
Flags: HMW
HStem: 474 21G<124 151 124 124 249 276 249 249> 688 20G<200 203 325 328>
LayerCount: 2
Fore
SplineSet
268 693 m 1,0,1
 303 708 303 708 328 708 c 1,2,-1
 343 699 l 1,3,-1
 276 474 l 1,4,-1
 249 474 l 1,5,6
 249 597 249 597 268 693 c 1,0,1
143 693 m 1,7,8
 178 708 178 708 203 708 c 1,9,-1
 218 699 l 1,10,-1
 151 474 l 1,11,-1
 124 474 l 1,12,13
 124 597 124 597 143 693 c 1,7,8
EndSplineSet
EndChar

StartChar: lslash
Encoding: 322 322 93
Width: 234
Flags: HMW
HStem: -12 21G<55 57> 302 21G 436 20G 742 20G<246 250>
VStem: 40 57<53 91>
LayerCount: 2
Fore
SplineSet
239 456 m 1,0,1
 256 444 256 444 262 438 c 1,2,-1
 264 426 l 1,3,4
 193 380 193 380 53 302 c 1,5,6
 23 320 23 320 15 330 c 1,7,-1
 13 343 l 1,8,9
 110 379 110 379 239 456 c 1,0,1
57 -12 m 1,10,11
 40 -12 40 -12 40 23 c 0,12,13
 40 104 40 104 107 415.5 c 128,-1,14
 174 727 174 727 177 747 c 1,15,16
 216 762 216 762 250 762 c 1,17,-1
 265 753 l 1,18,19
 227 676 227 676 162 396.5 c 128,-1,20
 97 117 97 117 97 53 c 1,21,22
 161 46 161 46 187 26 c 1,23,-1
 181 7 l 1,24,-1
 57 -12 l 1,10,11
EndSplineSet
EndChar

StartChar: exclam
Encoding: 33 33 94
Width: 267
Flags: HMW
HStem: -13 21G<72.5 90.5> -5 21G<131 131.5> 659 20G<242.5 246>
VStem: 57 91<10.5 75.5>
LayerCount: 2
Fore
SplineSet
105 160 m 1,0,-1
 195 664 l 1,1,2
 224 679 224 679 246 679 c 1,3,-1
 260 670 l 1,4,5
 254 536 254 536 225.5 422 c 128,-1,6
 197 308 197 308 137 164 c 1,7,-1
 105 160 l 1,0,-1
123 100 m 0,8,9
 148 100 148 100 148 66 c 0,10,11
 148 43 148 43 140 19 c 128,-1,12
 132 -5 132 -5 131 -5 c 0,13,14
 100 -13 100 -13 81 -13 c 0,15,16
 57 -13 57 -13 57 20 c 0,17,18
 57 42 57 42 65.5 67.5 c 128,-1,19
 74 93 74 93 75 93 c 0,20,21
 107 100 107 100 123 100 c 0,8,9
EndSplineSet
EndChar

StartChar: exclamdown
Encoding: 161 161 95
Width: 287
Flags: HMW
HStem: -224 21G<41 44.5> 440 20G<155.5 156> 448 20G<196.5 214.5>
VStem: 139 91<379.5 444.5>
LayerCount: 2
Fore
SplineSet
164 355 m 0,0,1
 139 355 139 355 139 389 c 0,2,3
 139 412 139 412 147 436 c 128,-1,4
 155 460 155 460 156 460 c 0,5,6
 187 468 187 468 206 468 c 0,7,8
 230 468 230 468 230 435 c 0,9,10
 230 413 230 413 221.5 387.5 c 128,-1,11
 213 362 213 362 212 362 c 0,12,13
 180 355 180 355 164 355 c 0,0,1
182 295 m 1,14,-1
 92 -209 l 1,15,16
 63 -224 63 -224 41 -224 c 1,17,-1
 27 -215 l 1,18,19
 33 -81 33 -81 61.5 33 c 128,-1,20
 90 147 90 147 150 291 c 1,21,-1
 182 295 l 1,14,-1
EndSplineSet
Position2: "'case' Case-Sensitive Forms in Latin lookup 1 per glyph data 1" dx=0 dy=224 dh=0 dv=0
EndChar

StartChar: one
Encoding: 49 49 96
Width: 484
Flags: HMW
HStem: 0 21G<83 396 83 83> 543 20G<366 374>
LayerCount: 2
Fore
SplineSet
386 540 m 1,0,-1
 292 55 l 1,1,2
 337 45 337 45 402 22 c 1,3,-1
 396 0 l 1,4,-1
 83 0 l 1,5,-1
 75 26 l 1,6,7
 160 47 160 47 219 57 c 1,8,-1
 304 499 l 1,9,-1
 172 466 l 1,10,-1
 157 518 l 2,11,12
 157 520.614678899 157 520.614678899 262 541.80733945 c 128,-1,13
 367 563 367 563 374 563 c 1,14,15
 386 557 386 557 386 540 c 1,0,-1
EndSplineSet
EndChar

StartChar: zero
Encoding: 48 48 97
Width: 484
Flags: HMW
HStem: -12 49<176 282.5 176 290> 513 50<228 334.5>
VStem: 31 76<125 229.5 125 256.5> 402 78<321 425>
LayerCount: 2
Fore
SplineSet
480 368 m 0,0,1
 480 236.882352941 480 236.882352941 410 118.5 c 0,2,3
 376 61 376 61 319 24.5 c 128,-1,4
 262 -12 262 -12 190 -12 c 128,-1,5
 118 -12 118 -12 74.5 36.5 c 128,-1,6
 31 85 31 85 31 179 c 0,7,8
 31 284.425531915 31 284.425531915 75.5 381 c 0,9,10
 99 432 99 432 131 472.5 c 128,-1,11
 163 513 163 513 211 538 c 128,-1,12
 259 563 259 563 315 563 c 0,13,14
 390 563 390 563 435 513 c 128,-1,15
 480 463 480 463 480 368 c 0,0,1
209 37 m 0,16,17
 261 37 261 37 300.5 73 c 128,-1,18
 340 109 340 109 361 165 c 0,19,20
 402 274.333333333 402 274.333333333 402 380 c 0,21,22
 402 513 402 513 301 513 c 0,23,24
 249 513 249 513 209.5 477 c 128,-1,25
 170 441 170 441 149 385.5 c 0,26,27
 107 274.5 107 274.5 107 170 c 0,28,29
 107 37 107 37 209 37 c 0,16,17
EndSplineSet
EndChar

StartChar: two
Encoding: 50 50 98
Width: 484
Flags: HMW
HStem: -4 21G 0 47<73 73 73 76> 484 20G<220 276> 543 20G<228.5 244>
VStem: 345 76<404 447>
LayerCount: 2
Fore
SplineSet
12 0 m 1,0,-1
 -3 32 l 1,1,-1
 261 283 l 2,2,3
 345 362 345 362 345 429 c 0,4,5
 345 459 345 459 317.5 481.5 c 128,-1,6
 290 504 290 504 251.5 504 c 0,7,8
 213 504 213 504 121 489 c 1,9,-1
 109 529 l 1,10,11
 224 563 224 563 244 563 c 1,12,13
 316 553 316 553 368.5 517.5 c 128,-1,14
 421 482 421 482 421 427 c 0,15,16
 421 329 421 329 271 208 c 2,17,-1
 73 47 l 1,18,19
 304 52 304 52 416 72 c 1,20,-1
 422 55 l 1,21,22
 413 25 413 25 391 -4 c 1,23,24
 329 0 329 0 12 0 c 1,0,-1
EndSplineSet
EndChar

StartChar: seven
Encoding: 55 55 99
Width: 484
Flags: HMW
HStem: -68 21G<170 170> 485 47<360 408> 544 20G<475 475>
LayerCount: 2
Fore
SplineSet
170 -68 m 1,0,-1
 98 -49 l 1,1,-1
 408 485 l 1,2,3
 209 485 209 485 118 481 c 1,4,5
 96 510 96 510 87 540 c 1,6,-1
 93 557 l 1,7,8
 259 532 259 532 443 532 c 1,9,-1
 475 564 l 1,10,-1
 499 546 l 1,11,-1
 170 -68 l 1,0,-1
EndSplineSet
EndChar

StartChar: four
Encoding: 52 52 100
Width: 484
Flags: HMW
HStem: -56 21G<153 416 153 153> 89 45<65 283 361 447> 564 20G<265 265>
LayerCount: 2
Fore
SplineSet
406 365 m 1,0,-1
 361 134 l 1,1,-1
 456 134 l 1,2,-1
 447 89 l 1,3,-1
 353 89 l 1,4,-1
 335 -3 l 1,5,6
 373 -12 373 -12 422 -34 c 1,7,-1
 416 -56 l 1,8,-1
 153 -56 l 1,9,-1
 145 -30 l 1,10,11
 216 -10 216 -10 266 1 c 1,12,-1
 283 89 l 1,13,-1
 17 89 l 2,14,15
 -8 89 -8 89 -8 100 c 128,-1,16
 -8 111 -8 111 54 218 c 2,17,-1
 265 584 l 1,18,-1
 330 562 l 1,19,-1
 65 134 l 1,20,-1
 291 134 l 1,21,-1
 339 379 l 2,22,23
 339 381.142857143 339 381.142857143 363 384.571428571 c 128,-1,24
 387 388 387 388 394 388 c 1,25,26
 406 382 406 382 406 365 c 1,0,-1
EndSplineSet
EndChar

StartChar: three
Encoding: 51 51 101
Width: 484
Flags: HMW
HStem: -68 49<155.5 210 155.5 231.5> 484 20G<254 308.5> 543 20G<254.5 270>
VStem: 338 77<79 158.5> 371 72<396 447>
LayerCount: 2
Fore
SplineSet
80 105 m 1,0,-1
 81 64 l 2,1,2
 81 24 81 24 79 4 c 1,3,4
 120 -19 120 -19 178 -19 c 128,-1,5
 236 -19 236 -19 287 20 c 128,-1,6
 338 59 338 59 338 128 c 0,7,8
 338 176 338 176 299 206.5 c 128,-1,9
 260 237 260 237 187 238 c 1,10,-1
 188 272 l 1,11,12
 273 283 273 283 322 329 c 128,-1,13
 371 375 371 375 371 429 c 0,14,15
 371 459 371 459 346 481.5 c 128,-1,16
 321 504 321 504 284.5 504 c 128,-1,17
 248 504 248 504 147 489 c 1,18,-1
 135 529 l 1,19,20
 250 563 250 563 270 563 c 1,21,22
 443 533 443 533 443 427 c 0,23,24
 443 379 443 379 400.5 333 c 128,-1,25
 358 287 358 287 292 264 c 1,26,27
 351 252 351 252 383 216.5 c 128,-1,28
 415 181 415 181 415 127.5 c 128,-1,29
 415 74 415 74 377 26.5 c 128,-1,30
 339 -21 339 -21 286 -44.5 c 128,-1,31
 233 -68 233 -68 180 -68 c 0,32,33
 78 -68 78 -68 8 -29 c 1,34,-1
 59 109 l 1,35,-1
 80 105 l 1,0,-1
EndSplineSet
EndChar

StartChar: five
Encoding: 53 53 102
Width: 484
Flags: HMW
HStem: -68 49<147.5 202 147.5 226> 247 52<184.5 231.5> 485 47<217 248> 537 20G<452 452>
VStem: 329 78<79 161.5>
LayerCount: 2
Fore
SplineSet
71 105 m 1,0,-1
 72 64 l 2,1,2
 72 24 72 24 70 4 c 1,3,4
 111 -19 111 -19 169 -19 c 128,-1,5
 227 -19 227 -19 278 20 c 128,-1,6
 329 59 329 59 329 128 c 0,7,8
 329 181 329 181 291 214 c 128,-1,9
 253 247 253 247 183 247 c 0,10,11
 156 247 156 247 129 242 c 1,12,-1
 106 265 l 1,13,-1
 166 532 l 1,14,-1
 186 532 l 2,15,16
 325 532 325 532 452 557 c 1,17,-1
 458 540 l 1,18,19
 449 510 449 510 427 481 c 1,20,21
 362 485 362 485 217 485 c 1,22,-1
 161 298 l 1,23,24
 170 299 170 299 189 299 c 0,25,26
 302 299 302 299 354.5 255.5 c 128,-1,27
 407 212 407 212 407 142 c 0,28,29
 407 49 407 49 333.5 -9.5 c 128,-1,30
 260 -68 260 -68 165 -68 c 128,-1,31
 70 -68 70 -68 -1 -29 c 1,32,-1
 50 109 l 1,33,-1
 71 105 l 1,0,-1
EndSplineSet
EndChar

StartChar: mu
Encoding: 181 181 103
Width: 526
Flags: HMW
HStem: -227 21G<6 6> -17 56<149.5 153> -12 21G<344 346> 446 20G<211 214 467 471>
VStem: 329 57<8 92.5>
LayerCount: 2
Fore
SplineSet
346 -12 m 1,0,1
 329 -12 329 -12 329 23 c 0,2,3
 329 78 329 78 350 201 c 1,4,5
 274 78 274 78 222 30.5 c 128,-1,6
 170 -17 170 -17 127 -17 c 0,7,8
 98.5 -17 98.5 -17 88 16 c 1,9,-1
 79 -101 l 1,10,11
 79 -159 79 -159 80 -184 c 1,12,13
 40 -223 40 -223 6 -227 c 1,14,-1
 -10 -220 l 1,15,16
 3 -164 3 -164 26 -56.5 c 128,-1,17
 49 51 49 51 64 118.5 c 0,18,19
 103.620689655 296.793103448 103.620689655 296.793103448 157 451 c 1,20,21
 188 466 188 466 214 466 c 1,22,-1
 229 457 l 1,23,24
 192 367 192 367 162 249.5 c 128,-1,25
 132 132 132 132 132 67 c 0,26,27
 132 39 132 39 157 39 c 0,28,29
 212 39 212 39 366 293 c 1,30,31
 377 354 377 354 396 451 c 1,32,33
 436 466 436 466 471 466 c 1,34,-1
 486 457 l 1,35,36
 450 378 450 378 418 246.5 c 128,-1,37
 386 115 386 115 386 53 c 1,38,39
 450 46 450 46 476 26 c 1,40,-1
 470 7 l 1,41,-1
 346 -12 l 1,0,1
EndSplineSet
EndChar

StartChar: ordmasculine
Encoding: 186 186 104
Width: 301
Flags: HMW
HStem: 298 51<146 192.5> 393 36<131 164.5> 652 32<192.5 227.5>
VStem: 60 49<464.5 534 464.5 559.5> 252 49<545.5 615.5>
LayerCount: 2
Fore
SplineSet
218 684 m 0,0,1
 301 684 301 684 301 595 c 0,2,3
 301 474.130434783 301 474.130434783 218 420 c 0,4,5
 176.6 393 176.6 393 138.3 393 c 128,-1,6
 100 393 100 393 80 417 c 128,-1,7
 60 441 60 441 60 489 c 128,-1,8
 60 537 60 537 77 578.5 c 128,-1,9
 94 620 94 620 120 641.5 c 0,10,11
 171.395348837 684 171.395348837 684 218 684 c 0,0,1
217 652 m 0,12,13
 173 652 173 652 141 605 c 128,-1,14
 109 558 109 558 109 481 c 0,15,16
 109 429 109 429 142 429 c 0,17,18
 183 429 183 429 217.5 476.5 c 128,-1,19
 252 524 252 524 252 599 c 0,20,21
 252 624 252 624 242.5 638 c 128,-1,22
 233 652 233 652 217 652 c 0,12,13
25 321 m 1,23,-1
 31 349 l 1,24,-1
 275 349 l 1,25,-1
 271 306 l 1,26,27
 223 298 223 298 174 298 c 0,28,29
 71 298 71 298 25 321 c 1,23,-1
EndSplineSet
EndChar

StartChar: ordfeminine
Encoding: 170 170 105
Width: 283
Flags: HMW
HStem: 298 51<133 179.5> 349 44<44.5 74 187.5 190> 413 20G<73.5 84.5> 642 41<131.5 188.5>
VStem: 16 51<445.5 493 445.5 529.5>
LayerCount: 2
Fore
SplineSet
182 683 m 1,0,1
 199.5 683 199.5 683 237 668 c 1,2,-1
 242 680 l 1,3,4
 263 680 263 680 278 676 c 1,5,6
 257 631 257 631 238.5 554 c 128,-1,7
 220 477 220 477 218 438 c 1,8,9
 254 432 254 432 272 421 c 1,10,-1
 267 405 l 1,11,-1
 190 393 l 1,12,13
 173 393 173 393 173 421.5 c 128,-1,14
 173 450 173 450 184 513 c 1,15,16
 141 445 141 445 112.5 419 c 128,-1,17
 84 393 84 393 61 393 c 128,-1,18
 38 393 38 393 27 409.5 c 128,-1,19
 16 426 16 426 16 466.5 c 128,-1,20
 16 507 16 507 31.5 550.5 c 128,-1,21
 47 594 47 594 73.5 620 c 0,22,23
 121.181338028 666.781690141 121.181338028 666.781690141 182 683 c 1,0,1
67 451 m 0,24,25
 67 433 67 433 76 433 c 0,26,27
 105 433 105 433 196 585 c 1,28,-1
 207 638 l 1,29,30
 187 642 187 642 164 642 c 0,31,32
 119 642 119 642 93 582 c 128,-1,33
 67 522 67 522 67 451 c 0,24,25
12 321 m 1,34,-1
 18 349 l 1,35,-1
 262 349 l 1,36,-1
 258 306 l 1,37,38
 210 298 210 298 161 298 c 0,39,40
 58 298 58 298 12 321 c 1,34,-1
EndSplineSet
EndChar

StartChar: six
Encoding: 54 54 106
Width: 484
Flags: HMW
HStem: -12 52<183.5 246 183.5 257> 302 48<241.5 282 282 289> 650 20G<456 456>
VStem: 41 82<124 185 124 275.5> 361 81<159.5 249.5>
LayerCount: 2
Fore
SplineSet
456 670 m 1,0,-1
 481 632 l 1,1,2
 254 494 254 494 173 350 c 1,3,-1
 282 350 l 2,4,5
 352 350 352 350 397 314.5 c 128,-1,6
 442 279 442 279 442 213 c 0,7,8
 442 113 442 113 367 50.5 c 128,-1,9
 292 -12 292 -12 203 -12 c 0,10,11
 133 -12 133 -12 87 30.5 c 128,-1,12
 41 73 41 73 41 157.5 c 0,13,14
 41 242 41 242 76.5 320 c 128,-1,15
 112 398 112 398 175.5 462 c 128,-1,16
 239 526 239 526 305.5 574.5 c 128,-1,17
 372 623 372 623 456 670 c 1,0,-1
260 302 m 0,18,19
 213 302 213 302 144 286 c 1,20,21
 123 229 123 229 123 167 c 0,22,23
 123 105 123 105 146.5 72.5 c 128,-1,24
 170 40 170 40 210 40 c 0,25,26
 269 40 269 40 315 88 c 128,-1,27
 361 136 361 136 361 216 c 0,28,29
 361 302 361 302 260 302 c 0,18,19
EndSplineSet
EndChar

StartChar: nine
Encoding: 57 57 107
Width: 484
Flags: HMW
HStem: -131 21G<62 62> 192 48<221.5 236 236 273.5 221.5 333> 512 51<257.5 331>
VStem: 75 79<307 378.5 307 405.5> 388 86<370 432.5>
LayerCount: 2
Fore
SplineSet
38 -97 m 1,0,1
 139 -26 139 -26 213.5 42.5 c 128,-1,2
 288 111 288 111 333 192 c 1,3,-1
 236 192 l 2,4,5
 165 192 165 192 120 229 c 128,-1,6
 75 266 75 266 75 335 c 0,7,8
 75 435 75 435 148 499 c 128,-1,9
 221 563 221 563 310 563 c 0,10,11
 380 563 380 563 427 519 c 128,-1,12
 474 475 474 475 474 391 c 0,13,14
 474 307 474 307 440.5 231 c 128,-1,15
 407 155 407 155 343 89 c 128,-1,16
 279 23 279 23 215 -26 c 128,-1,17
 151 -75 151 -75 62 -131 c 1,18,-1
 38 -97 l 1,0,1
303 512 m 0,19,20
 238 512 238 512 196 458 c 128,-1,21
 154 404 154 404 154 335 c 0,22,23
 154 240 154 240 260 240 c 0,24,25
 303 240 303 240 363 256 c 1,26,27
 388 323 388 323 388 395 c 0,28,29
 388 512 388 512 303 512 c 0,19,20
EndSplineSet
EndChar

StartChar: eight
Encoding: 56 56 108
Width: 484
Flags: HMW
HStem: -12 49<174 241 174 269> 619 49<289.5 352>
VStem: 32 80<105 155> 122 77<478 528.5> 352 83<137 197> 404 77<517 561.5>
LayerCount: 2
Fore
SplineSet
76 26.5 m 128,-1,1
 32 65 32 65 32 121.5 c 128,-1,2
 32 178 32 178 73 241.5 c 128,-1,3
 114 305 114 305 196 346 c 1,4,5
 122 401 122 401 122 479 c 128,-1,6
 122 557 122 557 180 612.5 c 128,-1,7
 238 668 238 668 334 668 c 0,8,9
 401 668 401 668 441 633.5 c 128,-1,10
 481 599 481 599 481 548 c 128,-1,11
 481 497 481 497 445.5 440 c 128,-1,12
 410 383 410 383 338 345 c 1,13,14
 435 274 435 274 435 191 c 128,-1,15
 435 108 435 108 368.5 48 c 128,-1,16
 302 -12 302 -12 196 -12 c 0,17,0
 120 -12 120 -12 76 26.5 c 128,-1,1
299 270 m 1,18,-1
 229 322 l 1,19,20
 173 283 173 283 142.5 229.5 c 128,-1,21
 112 176 112 176 112 132.5 c 128,-1,22
 112 89 112 89 136 63 c 128,-1,23
 160 37 160 37 211 37 c 128,-1,24
 262 37 262 37 307 75.5 c 128,-1,25
 352 114 352 114 352 171.5 c 128,-1,26
 352 229 352 229 299 270 c 1,18,-1
235.5 584.5 m 128,-1,28
 199 550 199 550 199 496.5 c 128,-1,29
 199 443 199 443 261 400 c 2,30,-1
 306 368 l 1,31,32
 355 402 355 402 379.5 450.5 c 128,-1,33
 404 499 404 499 404 537 c 128,-1,34
 404 575 404 575 384 597 c 128,-1,35
 364 619 364 619 318 619 c 128,-1,27
 272 619 272 619 235.5 584.5 c 128,-1,28
EndSplineSet
EndChar

StartChar: sterling
Encoding: 163 163 109
Width: 484
Flags: HMW
HStem: -4 21G 0 47<26 95> 263 37<66 131 72 130 202 338> 481 20G<269.5 335> 543 20G<313 328.5>
VStem: 132 70<327 381.5 300 405>
LayerCount: 2
Fore
SplineSet
131 300 m 1,0,-1
 132 330 l 1,1,2
 132 432 132 432 188.5 491.5 c 128,-1,3
 245 551 245 551 313 563 c 1,4,5
 351 563 351 563 449 534 c 1,6,-1
 434 486 l 1,7,8
 342 501 342 501 314 501 c 0,9,10
 247 501 247 501 224.5 461.5 c 128,-1,11
 202 422 202 422 202 300 c 1,12,-1
 344 300 l 1,13,-1
 338 263 l 1,14,-1
 200 263 l 1,15,16
 192 172 192 172 93 51 c 1,17,-1
 95 47 l 1,18,19
 319 53 319 53 416 72 c 1,20,-1
 422 55 l 1,21,22
 413 25 413 25 391 -4 c 1,23,24
 329 0 329 0 26 0 c 1,25,-1
 9 32 l 1,26,27
 67 80 67 80 97 142 c 128,-1,28
 127 204 127 204 130 263 c 1,29,-1
 66 263 l 1,30,-1
 72 300 l 1,31,-1
 131 300 l 1,0,-1
EndSplineSet
EndChar

StartChar: cent
Encoding: 162 162 110
Width: 484
Flags: HMW
HStem: -35 21G<186 224 186 186> 554 20G<335 373 373 373>
VStem: 90 75<192.5 289.5 192.5 303.5>
LayerCount: 2
Fore
SplineSet
224 -35 m 1,0,-1
 186 -35 l 1,1,-1
 205 44 l 1,2,3
 151 57 151 57 120.5 100.5 c 128,-1,4
 90 144 90 144 90 214 c 0,5,6
 90 339 90 339 155 413 c 128,-1,7
 220 487 220 487 320 515 c 1,8,-1
 335 574 l 1,9,-1
 373 574 l 1,10,-1
 359 518 l 1,11,12
 386 517 386 517 463 490 c 1,13,-1
 447 441 l 1,14,15
 371 455 371 455 344 457 c 1,16,-1
 254 88 l 1,17,18
 270 86 270 86 279 86 c 0,19,20
 324 86 324 86 381 111 c 1,21,-1
 392 81 l 1,22,23
 323 38 323 38 257 38 c 2,24,-1
 242 38 l 1,25,-1
 224 -35 l 1,0,-1
165 222 m 0,26,27
 165 132 165 132 219 101 c 1,28,-1
 306 455 l 1,29,30
 165 440 165 440 165 222 c 0,26,27
EndSplineSet
EndChar

StartChar: Lslash
Encoding: 321 321 111
Width: 499
Flags: HMW
HStem: -4 21G 5 50<166 166 166 181.5> 302 21G 436 20G 680 20G<131 354 354 354>
LayerCount: 2
Fore
SplineSet
303 456 m 1,0,1
 320 444 320 444 326 438 c 1,2,-1
 328 426 l 1,3,4
 246 377 246 377 97 302 c 1,5,6
 67 320 67 320 59 330 c 1,7,-1
 57 343 l 1,8,9
 157 376 157 376 303 456 c 1,0,1
130 5 m 1,10,-1
 21 0 l 1,11,-1
 13 26 l 1,12,13
 39 37 39 37 97 57 c 1,14,-1
 148 350 l 1,15,-1
 209 642 l 1,16,17
 172 652 172 652 125 678 c 1,18,-1
 131 700 l 1,19,-1
 354 700 l 1,20,-1
 362 674 l 1,21,22
 311 653 311 653 277 643 c 1,23,-1
 227 350 l 1,24,-1
 166 55 l 1,25,26
 378 57 378 57 447 72 c 1,27,-1
 453 55 l 1,28,29
 444 22 444 22 422 -4 c 1,30,31
 314 5 314 5 130 5 c 1,10,-1
EndSplineSet
EndChar

StartChar: germandbls
Encoding: 223 223 112
Width: 521
Flags: HMW
HStem: -193 21G<15 15> -12 44<346.5 383 346.5 396> 696 21G<288.5 344.5> 741 20G<359 369.5>
VStem: 262 56<347 384 347 388.5> 432 64 432 79
LayerCount: 2
Fore
SplineSet
479 725 m 1,0,1
 496 698 496 698 496 661.5 c 128,-1,2
 496 625 496 625 468 575 c 128,-1,3
 440 525 440 525 407 487 c 0,4,5
 318 384.515151515 318 384.515151515 318 355.757575758 c 128,-1,6
 318 327 318 327 341 309 c 1,7,-1
 447 217 l 2,8,9
 482 186 482 186 496.5 162.5 c 128,-1,10
 511 139 511 139 511 105 c 0,11,12
 511 52 511 52 465.5 20 c 128,-1,13
 420 -12 420 -12 347.5 -12 c 128,-1,14
 275 -12 275 -12 206 14 c 1,15,-1
 236 141 l 1,16,-1
 258 137 l 1,17,18
 268 91 268 91 270 48 c 1,19,20
 314 32 314 32 355 32 c 128,-1,21
 396 32 396 32 419 48.5 c 128,-1,22
 442 65 442 65 442 98.5 c 128,-1,23
 442 132 442 132 403 166 c 2,24,-1
 308 248 l 2,25,26
 282 270 282 270 272 289 c 128,-1,27
 262 308 262 308 262 340 c 128,-1,28
 262 372 262 372 288 416 c 128,-1,29
 314 460 314 460 345.5 497.5 c 128,-1,30
 377 535 377 535 404 586 c 128,-1,31
 431 637 431 637 432 682 c 1,32,33
 379 696 379 696 325 696 c 0,34,35
 272.184210526 696 272.184210526 696 241 617 c 0,36,37
 212.643835616 545.164383562 212.643835616 545.164383562 196 449 c 1,38,-1
 122 53 l 1,39,-1
 55 -188 l 1,40,-1
 15 -193 l 1,41,-1
 116 396 l 1,42,-1
 44 396 l 1,43,-1
 36 422 l 1,44,45
 78 438.5 78 438.5 126 455 c 1,46,47
 147 573 147 573 210.5 657.5 c 128,-1,48
 274 742 274 742 359 761 c 1,49,50
 382 761 382 761 479 725 c 1,0,1
EndSplineSet
Position2: "'cpsp' Capital Spacing in Latin lookup 0 subtable" dx=7 dy=0 dh=35 dv=0
EndChar

StartChar: minus
Encoding: 8722 8722 113
Width: 484
Flags: HMW
HStem: 249 57<88 444 98 434>
LayerCount: 2
Fore
SplineSet
88 249 m 1,0,-1
 98 306 l 1,1,-1
 444 306 l 1,2,-1
 434 249 l 1,3,-1
 88 249 l 1,0,-1
EndSplineSet
EndChar

StartChar: plus
Encoding: 43 43 114
Width: 484
Flags: HMW
HStem: 95 21G<207 261 207 207> 249 57<88 244 98 234 98 288 298 434> 439 20G<271 325 325 325>
LayerCount: 2
Fore
SplineSet
88 249 m 1,0,-1
 98 306 l 1,1,-1
 244 306 l 1,2,-1
 271 459 l 1,3,-1
 325 459 l 1,4,-1
 298 306 l 1,5,-1
 444 306 l 1,6,-1
 434 249 l 1,7,-1
 288 249 l 1,8,-1
 261 95 l 1,9,-1
 207 95 l 1,10,-1
 234 249 l 1,11,-1
 88 249 l 1,0,-1
EndSplineSet
EndChar

StartChar: equal
Encoding: 61 61 115
Width: 484
Flags: HMW
HStem: 168 57<74 430 84 420> 330 57<102 458 112 448>
LayerCount: 2
Fore
SplineSet
102 330 m 1,0,-1
 112 387 l 1,1,-1
 458 387 l 1,2,-1
 448 330 l 1,3,-1
 102 330 l 1,0,-1
74 168 m 1,4,-1
 84 225 l 1,5,-1
 430 225 l 1,6,-1
 420 168 l 1,7,-1
 74 168 l 1,4,-1
EndSplineSet
EndChar

StartChar: multiply
Encoding: 215 215 116
Width: 484
Flags: HMW
HStem: 115 21G<120 120 353 353> 420 20G<178 178 411 411>
LayerCount: 2
Fore
SplineSet
120 115 m 1,0,-1
 89 155 l 1,1,-1
 227 277 l 1,2,-1
 133 400 l 1,3,-1
 178 440 l 1,4,-1
 272 317 l 1,5,-1
 411 440 l 1,6,-1
 442 400 l 1,7,-1
 303 277 l 1,8,-1
 398 155 l 1,9,-1
 353 115 l 1,10,-1
 258 237 l 1,11,-1
 120 115 l 1,0,-1
EndSplineSet
EndChar

StartChar: divide
Encoding: 247 247 117
Width: 484
Flags: HMW
HStem: 112 21G<227.5 248.5> 193 56<238 260.5> 423 20G<282 304.5>
LayerCount: 2
Fore
SplineSet
258 371 m 128,-1,1
 249 380 249 380 249 396 c 128,-1,2
 249 412 249 412 262.5 427.5 c 128,-1,3
 276 443 276 443 292.5 443 c 128,-1,4
 309 443 309 443 318.5 433 c 128,-1,5
 328 423 328 423 328 407 c 128,-1,6
 328 391 328 391 313.5 376.5 c 128,-1,7
 299 362 299 362 283 362 c 128,-1,0
 267 362 267 362 258 371 c 128,-1,1
88 249 m 1,8,-1
 98 306 l 1,9,-1
 444 306 l 1,10,-1
 434 249 l 1,11,-1
 88 249 l 1,8,-1
214 121 m 128,-1,13
 205 130 205 130 205 146 c 128,-1,14
 205 162 205 162 218.5 177.5 c 128,-1,15
 232 193 232 193 248.5 193 c 128,-1,16
 265 193 265 193 274.5 183 c 128,-1,17
 284 173 284 173 284 157 c 128,-1,18
 284 141 284 141 269.5 126.5 c 128,-1,19
 255 112 255 112 239 112 c 128,-1,12
 223 112 223 112 214 121 c 128,-1,13
EndSplineSet
EndChar

StartChar: ampersand
Encoding: 38 38 118
Width: 580
Flags: HMW
HStem: -14 48<153.5 196.5> -12 21G<405.5 409> 427 20G<516.5 520> 661 20G<435 447>
VStem: 20 76<100 161 100 164> 185 67<450.5 510.5 434.5 522.5>
LayerCount: 2
Fore
SplineSet
291.5 576 m 128,-1,1
 252 532 252 532 252 473.5 c 128,-1,2
 252 415 252 415 289.5 323 c 128,-1,3
 327 231 327 231 385 139 c 1,4,5
 454 211 454 211 472 300 c 1,6,-1
 445 403 l 1,7,8
 490 447 490 447 520 447 c 1,9,-1
 538 437 l 1,10,11
 538 231 538 231 409 102 c 1,12,13
 441 57 441 57 444 53 c 1,14,15
 468 51 468 51 498 42.5 c 128,-1,16
 528 34 528 34 539 26 c 1,17,-1
 533 7 l 1,18,-1
 409 -12 l 1,19,20
 398 -12 398 -12 353 54 c 1,21,22
 258 -14 258 -14 176.5 -14 c 128,-1,23
 95 -14 95 -14 57.5 22 c 128,-1,24
 20 58 20 58 20 122 c 128,-1,25
 20 186 20 186 67 260.5 c 128,-1,26
 114 335 114 335 192 395 c 1,27,28
 185 427 185 427 185 461 c 0,29,30
 185 519 185 519 226.5 569 c 128,-1,31
 268 619 268 619 324 647 c 128,-1,32
 380 675 380 675 435 681 c 1,33,34
 454 681 454 681 534 653 c 1,35,-1
 518 604 l 1,36,37
 434 620 434 620 401 620 c 0,38,0
 331 620 331 620 291.5 576 c 128,-1,1
329 90 m 1,39,40
 241 231 241 231 205 347 c 1,41,42
 157 301 157 301 126.5 239.5 c 128,-1,43
 96 178 96 178 96 131 c 0,44,45
 96 34 96 34 185 34 c 0,46,47
 253 34 253 34 329 90 c 1,39,40
EndSplineSet
EndChar

StartChar: dollar
Encoding: 36 36 119
Width: 484
Flags: HMW
HStem: -88 21G<145 183 145 145> -12 51<201 248.5> 607 20G<317 355 355 355>
VStem: 118 68<392 429> 328 80<112.5 149.5>
LayerCount: 2
Fore
SplineSet
292 203 m 2,0,-1
 258 225 l 1,1,-1
 214 39 l 1,2,3
 264 39 264 39 296 68.5 c 128,-1,4
 328 98 328 98 328 138.5 c 128,-1,5
 328 179 328 179 292 203 c 2,0,-1
213.5 471.5 m 128,-1,7
 186 449 186 449 186 409 c 128,-1,8
 186 369 186 369 224 343 c 2,9,-1
 245 328 l 1,10,-1
 286 499 l 1,11,6
 241 494 241 494 213.5 471.5 c 128,-1,7
112 162 m 1,12,-1
 113 121 l 2,13,14
 113 81 113 81 111 61 c 1,15,16
 139 48 139 48 176 42 c 1,17,-1
 226 247 l 1,18,-1
 175 282 l 2,19,20
 118 321 118 321 118 385 c 128,-1,21
 118 449 118 449 167.5 496 c 128,-1,22
 217 543 217 543 301 562 c 1,23,-1
 317 627 l 1,24,-1
 355 627 l 1,25,-1
 339 561 l 1,26,27
 380 557 380 557 449 534 c 1,28,-1
 433 485 l 1,29,30
 384 496 384 496 324 501 c 1,31,-1
 278 307 l 1,32,-1
 338 267 l 2,33,34
 408 220 408 220 408 149 c 128,-1,35
 408 78 408 78 346.5 34 c 128,-1,36
 285 -10 285 -10 201 -12 c 1,37,-1
 183 -88 l 1,38,-1
 145 -88 l 1,39,-1
 164 -10 l 1,40,41
 105 -2 105 -2 40 28 c 1,42,-1
 91 166 l 1,43,-1
 112 162 l 1,12,-1
EndSplineSet
EndChar

StartChar: dagger
Encoding: 8224 8224 120
Width: 348
Flags: HMW
HStem: -45 21G<100 147 100 100> 486 20G<56 189 189 189 251 375 375 375> 621 20G<221 268 268 268>
LayerCount: 2
Fore
SplineSet
375 506 m 1,0,-1
 367 457 l 1,1,-1
 243 442 l 1,2,-1
 226 298 l 1,3,-1
 147 -45 l 1,4,-1
 100 -45 l 1,5,-1
 141 298 l 1,6,-1
 174 440 l 1,7,-1
 48 457 l 1,8,-1
 56 506 l 1,9,-1
 189 506 l 1,10,-1
 221 641 l 1,11,-1
 268 641 l 1,12,-1
 251 506 l 1,13,-1
 375 506 l 1,0,-1
EndSplineSet
EndChar

StartChar: daggerdbl
Encoding: 8225 8225 121
Width: 348
Flags: HMW
HStem: -45 21G<100 147 100 100> 486 20G<56 189 189 189 251 375 375 375> 621 20G<221 268 268 268>
LayerCount: 2
Fore
SplineSet
-10 90 m 1,0,-1
 -1 139 l 1,1,-1
 123 154 l 1,2,-1
 141 298 l 1,3,-1
 174 440 l 1,4,-1
 48 457 l 1,5,-1
 56 506 l 1,6,-1
 189 506 l 1,7,-1
 221 641 l 1,8,-1
 268 641 l 1,9,-1
 251 506 l 1,10,-1
 375 506 l 1,11,-1
 367 457 l 1,12,-1
 243 442 l 1,13,-1
 226 298 l 1,14,-1
 193 155 l 1,15,-1
 318 139 l 1,16,-1
 309 90 l 1,17,-1
 178 90 l 1,18,-1
 147 -45 l 1,19,-1
 100 -45 l 1,20,-1
 116 90 l 1,21,-1
 -10 90 l 1,0,-1
EndSplineSet
EndChar

StartChar: at
Encoding: 64 64 122
Width: 882
Flags: HMW
HStem: -172 37<294.5 407.5 294.5 407.5> -12 41<581 640.5> 385 20G<415 474 474 549> 442 20G<506 514.5> 448 20G<604 627 627 627> 555 37<397.5 585.5>
VStem: 50 71<42 222 42 237> 245 71<81 177.5 81 234.5> 761 71<240 377>
LayerCount: 2
Fore
SplineSet
747 514.5 m 128,-1,1
 832 437 832 437 832 304.5 c 128,-1,2
 832 172 832 172 755 80 c 128,-1,3
 678 -12 678 -12 562 -12 c 0,4,5
 528 -12 528 -12 511 3 c 128,-1,6
 494 18 494 18 493 51 c 1,7,-1
 442 27 l 2,8,9
 359 -12 359 -12 319.5 -12 c 128,-1,10
 280 -12 280 -12 262.5 15.5 c 128,-1,11
 245 43 245 43 245 111 c 128,-1,12
 245 179 245 179 261.5 238.5 c 128,-1,13
 278 298 278 298 303.5 334.5 c 128,-1,14
 329 371 329 371 365.5 398.5 c 128,-1,15
 402 426 402 426 434.5 439 c 128,-1,16
 467 452 467 452 506 462 c 1,17,18
 528 462 528 462 581 441 c 1,19,-1
 604 468 l 1,20,-1
 627 468 l 1,21,22
 605 368 605 368 581 228.5 c 128,-1,23
 557 89 557 89 557 65 c 0,24,25
 557 29 557 29 597 29 c 128,-1,26
 637 29 637 29 670.5 54.5 c 128,-1,27
 704 80 704 80 723 121 c 0,28,29
 761 203 761 203 761 295 c 0,30,31
 761 416 761 416 692.5 485.5 c 128,-1,32
 624 555 624 555 513.5 555 c 128,-1,33
 403 555 403 555 311 488 c 128,-1,34
 219 421 219 421 170 322.5 c 128,-1,35
 121 224 121 224 121 113.5 c 128,-1,36
 121 3 121 3 188.5 -66 c 128,-1,37
 256 -135 256 -135 372.5 -135 c 128,-1,38
 489 -135 489 -135 596 -50 c 1,39,-1
 643 -73 l 1,40,41
 513 -172 513 -172 366 -172 c 128,-1,42
 219 -172 219 -172 134.5 -94.5 c 128,-1,43
 50 -17 50 -17 50 109.5 c 128,-1,44
 50 236 50 236 112.5 345 c 128,-1,45
 175 454 175 454 285.5 523 c 128,-1,46
 396 592 396 592 529 592 c 128,-1,0
 662 592 662 592 747 514.5 c 128,-1,1
358 40 m 0,47,48
 382 40 382 40 425 60 c 2,49,-1
 495 92 l 1,50,-1
 549 405 l 1,51,-1
 474 405 l 2,52,53
 418 405 418 405 381 358.5 c 128,-1,54
 344 312 344 312 330 248 c 128,-1,55
 316 184 316 184 316 105 c 0,56,57
 316 40 316 40 358 40 c 0,47,48
EndSplineSet
EndChar

StartChar: asterisk
Encoding: 42 42 123
Width: 427
Flags: HMW
HStem: 352 21G<313 319> 494 20G<275 275 392 414.5> 531 20G<259 274 259 259> 692 20G<288 309.5>
LayerCount: 2
Fore
SplineSet
328 690 m 0,0,1
 328 665 328 665 274 551 c 1,2,-1
 259 551 l 1,3,4
 244 624 244 624 244 679 c 0,5,6
 244 695 244 695 261.5 703.5 c 128,-1,7
 279 712 279 712 303.5 712 c 128,-1,8
 328 712 328 712 328 690 c 0,0,1
121 645 m 0,9,10
 149 645 149 645 233 561 c 2,11,-1
 245 549 l 1,12,-1
 240 535 l 1,13,14
 167 543 167 543 114 560 c 1,15,16
 95 565 95 565 95 588 c 0,17,18
 95 645 95 645 121 645 c 0,9,10
406.5 514 m 0,19,20
 384 514 384 514 285 523 c 1,21,-1
 281 538 l 1,22,23
 302 553 302 553 343.5 573.5 c 128,-1,24
 385 594 385 594 404 594 c 0,25,26
 429 594 429 594 446 551 c 0,27,28
 449 542 449 542 449 531 c 0,29,30
 449 514 449 514 406.5 514 c 0,19,20
113 440 m 0,31,32
 123 455 123 455 238 521 c 1,33,-1
 250 512 l 1,34,35
 219 445 219 445 187 399 c 0,36,37
 180 389 180 389 163 389 c 128,-1,38
 146 389 146 389 127 403 c 128,-1,39
 108 417 108 417 108 425.5 c 128,-1,40
 108 434 108 434 113 440 c 0,31,32
338 361 m 1,41,42
 324 352 324 352 315.5 352 c 128,-1,43
 307 352 307 352 300 361.5 c 128,-1,44
 293 371 293 371 262 505 c 1,45,-1
 275 514 l 1,46,47
 327 465 327 465 363 419 c 0,48,49
 367 414 367 414 367 406 c 0,50,51
 367 383 367 383 338 361 c 1,41,42
EndSplineSet
EndChar

StartChar: yen
Encoding: 165 165 124
Width: 484
Flags: HMW
HStem: 0 21G<77 345 77 77> 179 37<97 202 90 209 283 390> 263 37<105 184 111 184 111 196 335 405> 531 20G<94 99 242 245.5 377 383 507 510.5>
LayerCount: 2
Fore
SplineSet
251 534 m 1,0,-1
 250 521 l 1,1,-1
 191 501 l 1,2,-1
 265 261 l 1,3,-1
 421 501 l 1,4,-1
 365 521 l 1,5,6
 371 551 371 551 383 551 c 0,7,8
 384 551 384 551 448 547 c 1,9,-1
 507 551 l 2,10,11
 516 551 516 551 516 537.5 c 128,-1,12
 516 524 516 524 515 521 c 1,13,-1
 466 499 l 1,14,-1
 335 300 l 1,15,-1
 411 300 l 1,16,-1
 405 263 l 1,17,-1
 310 263 l 1,18,-1
 285 224 l 1,19,-1
 283 216 l 1,20,-1
 397 216 l 1,21,-1
 390 179 l 1,22,-1
 276 179 l 1,23,-1
 251 54 l 1,24,25
 297 43 297 43 351 22 c 1,26,-1
 345 0 l 1,27,-1
 77 0 l 1,28,-1
 69 26 l 1,29,30
 129 44 129 44 177 55 c 1,31,-1
 202 179 l 1,32,-1
 90 179 l 1,33,-1
 97 216 l 1,34,-1
 209 216 l 1,35,-1
 210 220 l 1,36,-1
 196 263 l 1,37,-1
 105 263 l 1,38,-1
 111 300 l 1,39,-1
 184 300 l 1,40,-1
 120 499 l 1,41,-1
 80 521 l 1,42,43
 89 551 89 551 99 551 c 2,44,-1
 172 547 l 1,45,-1
 242 551 l 2,46,47
 251 551 251 551 251 534 c 1,0,-1
EndSplineSet
EndChar

StartChar: bracketleft
Encoding: 91 91 125
Width: 235
Flags: HMW
HStem: -233 21G<29 186 29 29> -202 20G<92 101> 680 21G<198 207> 711 20G<147 313 313 313>
LayerCount: 2
Fore
SplineSet
117 249 m 1,0,1
 103 330 103 330 103 429.5 c 128,-1,2
 103 529 103 529 147 731 c 1,3,-1
 313 731 l 1,4,-1
 305 697 l 2,5,6
 305 694.943396226 305 694.943396226 255.5 687.471698113 c 128,-1,7
 206 680 206 680 198 680 c 1,8,-1
 92 -182 l 1,9,10
 108 -182 108 -182 152 -190 c 128,-1,11
 196 -198 196 -198 196 -199 c 2,12,-1
 186 -233 l 1,13,-1
 29 -233 l 1,14,15
 29 30 29 30 117 249 c 1,0,1
EndSplineSet
Position2: "'case' Case-Sensitive Forms in Latin lookup 1 per glyph data 0" dx=0 dy=70 dh=0 dv=0
EndChar

StartChar: braceleft
Encoding: 123 123 126
Width: 258
Flags: HMW
HStem: -233 21G<38 195 38 38> -202 20G<95 104.5> 680 21G<201 210.5> 711 20G<156 322 322 322>
VStem: 114 76<305 494>
LayerCount: 2
Fore
SplineSet
186 463 m 1,0,-1
 190 332 l 1,1,2
 190 293 190 293 175 276 c 128,-1,3
 160 259 160 259 127 253 c 1,4,-1
 126 245 l 1,5,6
 176 236 176 236 176 200 c 0,7,8
 176 178 176 178 162.5 135 c 0,9,10
 115.528669725 -14.6123853211 115.528669725 -14.6123853211 95 -182 c 1,11,12
 111 -182 111 -182 158 -190 c 128,-1,13
 205 -198 205 -198 205 -199 c 2,14,-1
 195 -233 l 1,15,-1
 38 -233 l 1,16,17
 38 24 38 24 121 209 c 1,18,-1
 29 236 l 1,19,-1
 33 263 l 1,20,-1
 131 290 l 1,21,22
 114 368 114 368 114 456.5 c 128,-1,23
 114 545 114 545 156 731 c 1,24,-1
 322 731 l 1,25,-1
 314 697 l 2,26,27
 314 694.857142857 314 694.857142857 262 687.428571429 c 128,-1,28
 210 680 210 680 201 680 c 1,29,30
 186 561 186 561 186 463 c 1,0,-1
EndSplineSet
Position2: "'case' Case-Sensitive Forms in Latin lookup 1 per glyph data 0" dx=0 dy=70 dh=0 dv=0
EndChar

StartChar: bracketright
Encoding: 93 93 127
Width: 235
Flags: HMW
HStem: -233 21G<-78 88 -78 -78> -202 20G<28 37> 680 21G<134 143> 711 20G<49 206 206 206>
LayerCount: 2
Fore
SplineSet
118 249 m 1,0,1
 132 168 132 168 132 68.5 c 128,-1,2
 132 -31 132 -31 88 -233 c 1,3,-1
 -78 -233 l 1,4,-1
 -70 -199 l 2,5,6
 -70 -196.943396226 -70 -196.943396226 -20.5 -189.471698113 c 128,-1,7
 29 -182 29 -182 37 -182 c 1,8,-1
 143 680 l 1,9,10
 127 680 127 680 83 688 c 128,-1,11
 39 696 39 696 39 697 c 2,12,-1
 49 731 l 1,13,-1
 206 731 l 1,14,15
 206 468 206 468 118 249 c 1,0,1
EndSplineSet
Position2: "'case' Case-Sensitive Forms in Latin lookup 1 per glyph data 0" dx=0 dy=70 dh=0 dv=0
EndChar

StartChar: braceright
Encoding: 125 125 128
Width: 258
Flags: HMW
HStem: -233 21G<-64 102 -64 -64> -202 20G<47.5 57> 680 21G<153.5 163> 711 20G<63 220 220 220>
VStem: 68 76<4 193>
LayerCount: 2
Fore
SplineSet
72 35 m 1,0,-1
 68 166 l 1,1,2
 68 205 68 205 83 222 c 128,-1,3
 98 239 98 239 131 245 c 1,4,-1
 132 253 l 1,5,6
 82 262 82 262 82 298 c 0,7,8
 82 320 82 320 95.5 363 c 0,9,10
 142.471330275 512.612385321 142.471330275 512.612385321 163 680 c 1,11,12
 147 680 147 680 100 688 c 128,-1,13
 53 696 53 696 53 697 c 2,14,-1
 63 731 l 1,15,-1
 220 731 l 1,16,17
 220 474 220 474 137 289 c 1,18,-1
 229 262 l 1,19,-1
 225 235 l 1,20,-1
 127 208 l 1,21,22
 144 130 144 130 144 41.5 c 128,-1,23
 144 -47 144 -47 102 -233 c 1,24,-1
 -64 -233 l 1,25,-1
 -56 -199 l 2,26,27
 -56 -196.857142857 -56 -196.857142857 -4 -189.428571429 c 128,-1,28
 48 -182 48 -182 57 -182 c 1,29,30
 72 -63 72 -63 72 35 c 1,0,-1
EndSplineSet
Position2: "'case' Case-Sensitive Forms in Latin lookup 1 per glyph data 0" dx=0 dy=70 dh=0 dv=0
EndChar

StartChar: parenleft
Encoding: 40 40 129
Width: 235
Flags: HMW
HStem: -241 21G<135 135> 708 20G<297 297>
VStem: 38 75<39.5 164.5 13.5 219.5>
LayerCount: 2
Fore
SplineSet
165 -237 m 1,0,-1
 135 -241 l 1,1,2
 38 -113 38 -113 38 106 c 0,3,4
 38 283 38 283 107.5 456.5 c 128,-1,5
 177 630 177 630 297 728 c 1,6,-1
 320 716 l 1,7,8
 249 640 249 640 200 518 c 0,9,10
 113 301.387755102 113 301.387755102 113 89.693877551 c 128,-1,11
 113 -122 113 -122 165 -237 c 1,0,-1
EndSplineSet
Position2: "'case' Case-Sensitive Forms in Latin lookup 1 per glyph data 0" dx=0 dy=70 dh=0 dv=0
EndChar

StartChar: parenright
Encoding: 41 41 130
Width: 235
Flags: HMW
HStem: -241 21G<-60 -60> 708 20G<101 101>
VStem: 122 75<322 445 265 473>
LayerCount: 2
Fore
SplineSet
70 724 m 1,0,-1
 101 728 l 1,1,2
 197 598 197 598 197 378 c 0,3,4
 197 203 197 203 127.5 30.5 c 128,-1,5
 58 -142 58 -142 -60 -241 c 1,6,-1
 -85 -229 l 1,7,8
 18 -118 18 -118 70 67.5 c 128,-1,9
 122 253 122 253 122 431 c 0,10,11
 122 609 122 609 70 724 c 1,0,-1
EndSplineSet
Position2: "'case' Case-Sensitive Forms in Latin lookup 1 per glyph data 0" dx=0 dy=70 dh=0 dv=0
EndChar

StartChar: quoteleft
Encoding: 8216 8216 131
Width: 129
Flags: HMW
HStem: 494 21G<57 80.5> 718 20G<159 159>
LayerCount: 2
Fore
SplineSet
128 505 m 1,0,1
 95 494 95 494 72 494 c 0,2,3
 30 494 30 494 30 555 c 1,4,5
 40 596 40 596 84 652 c 128,-1,6
 128 708 128 708 159 738 c 1,7,-1
 181 722 l 1,8,9
 158 690 158 690 146 671 c 0,10,11
 114 620.333333333 114 620.333333333 114 582.166666667 c 128,-1,12
 114 544 114 544 128 505 c 1,0,1
EndSplineSet
EndChar

StartChar: fraction
Encoding: 8260 8260 132
Width: 305
Flags: HMW
HStem: -208 21G<-60 -60 -60 -1> 652 20G<306 365 365 365>
LayerCount: 2
Fore
SplineSet
-60 -208 m 1,0,-1
 306 672 l 1,1,-1
 365 672 l 1,2,-1
 -1 -208 l 1,3,-1
 -60 -208 l 1,0,-1
EndSplineSet
EndChar

StartChar: backslash
Encoding: 92 92 133
Width: 327
Flags: HMW
HStem: -50 21G<303 357 303 303> 730 20G<-30 24 24 24>
LayerCount: 2
Fore
SplineSet
24 750 m 1,0,-1
 357 -50 l 1,1,-1
 303 -50 l 1,2,-1
 -30 750 l 1,3,-1
 24 750 l 1,0,-1
EndSplineSet
EndChar

StartChar: greater
Encoding: 62 62 134
Width: 484
Flags: HMW
HStem: 87 21G<59 59> 448 20G<127 127>
LayerCount: 2
Fore
SplineSet
116 408 m 1,0,-1
 127 468 l 1,1,-1
 444 306 l 1,2,-1
 434 249 l 1,3,-1
 59 87 l 1,4,-1
 70 147 l 1,5,-1
 377 277 l 1,6,-1
 116 408 l 1,0,-1
EndSplineSet
EndChar

StartChar: less
Encoding: 60 60 135
Width: 484
Flags: HMW
HStem: 87 21G<405 405> 448 20G<473 473>
LayerCount: 2
Fore
SplineSet
416 147 m 1,0,-1
 405 87 l 1,1,-1
 88 249 l 1,2,-1
 98 306 l 1,3,-1
 473 468 l 1,4,-1
 462 408 l 1,5,-1
 155 277 l 1,6,-1
 416 147 l 1,0,-1
EndSplineSet
EndChar

StartChar: plusminus
Encoding: 177 177 136
Width: 484
Flags: HMW
HStem: -12 57<42 398 52 388> 95 21G<207 261 207 207> 249 57<88 244 98 234 98 288 298 434> 439 20G<271 325 325 325>
LayerCount: 2
Fore
SplineSet
88 249 m 1,0,-1
 98 306 l 1,1,-1
 244 306 l 1,2,-1
 271 459 l 1,3,-1
 325 459 l 1,4,-1
 298 306 l 1,5,-1
 444 306 l 1,6,-1
 434 249 l 1,7,-1
 288 249 l 1,8,-1
 261 95 l 1,9,-1
 207 95 l 1,10,-1
 234 249 l 1,11,-1
 88 249 l 1,0,-1
42 -12 m 1,12,-1
 52 45 l 1,13,-1
 398 45 l 1,14,-1
 388 -12 l 1,15,-1
 42 -12 l 1,12,-1
EndSplineSet
EndChar

StartChar: bar
Encoding: 124 124 137
Width: 270
Flags: HMW
HStem: -208 21G<100 100 100 170> 653 20G<100 170 170 170>
VStem: 100 70<-208 673 -208 673>
LayerCount: 2
Fore
SplineSet
100 -208 m 1,0,-1
 100 673 l 1,1,-1
 170 673 l 1,2,-1
 170 -208 l 1,3,-1
 100 -208 l 1,0,-1
EndSplineSet
Position2: "'case' Case-Sensitive Forms in Latin lookup 1 per glyph data 0" dx=0 dy=70 dh=0 dv=0
EndChar

StartChar: brokenbar
Encoding: 166 166 138
Width: 270
Flags: HMW
HStem: -208 21G<100 100 100 170> 653 20G<100 170 170 170>
VStem: 100 70<-208 143 -208 143 322 673>
LayerCount: 2
Fore
SplineSet
100 322 m 1,0,-1
 100 673 l 1,1,-1
 170 673 l 1,2,-1
 170 322 l 1,3,-1
 100 322 l 1,0,-1
100 -208 m 1,4,-1
 100 143 l 1,5,-1
 170 143 l 1,6,-1
 170 -208 l 1,7,-1
 100 -208 l 1,4,-1
EndSplineSet
Position2: "'case' Case-Sensitive Forms in Latin lookup 1 per glyph data 0" dx=0 dy=70 dh=0 dv=0
EndChar

StartChar: degree
Encoding: 176 176 139
Width: 318
Flags: HMW
HStem: 439 46<133 185 133 197.5> 670 47<133 185>
VStem: 20 46<552 604 552 616.5> 251 47<552 604>
LayerCount: 2
Fore
SplineSet
20 578 m 128,-1,1
 20 636 20 636 60.5 676.5 c 128,-1,2
 101 717 101 717 159 717 c 128,-1,3
 217 717 217 717 257.5 676.5 c 128,-1,4
 298 636 298 636 298 578 c 128,-1,5
 298 520 298 520 257.5 479.5 c 128,-1,6
 217 439 217 439 159 439 c 128,-1,7
 101 439 101 439 60.5 479.5 c 128,-1,0
 20 520 20 520 20 578 c 128,-1,1
66 578 m 128,-1,9
 66 539 66 539 93 512 c 128,-1,10
 120 485 120 485 159 485 c 128,-1,11
 198 485 198 485 224.5 512 c 128,-1,12
 251 539 251 539 251 578 c 128,-1,13
 251 617 251 617 224.5 643.5 c 128,-1,14
 198 670 198 670 159 670 c 128,-1,15
 120 670 120 670 93 643.5 c 128,-1,8
 66 617 66 617 66 578 c 128,-1,9
EndSplineSet
EndChar

StartChar: percent
Encoding: 37 37 140
Width: 713
Flags: HMW
HStem: -56 21G<133 133 133 189> -12 42<499 552 499 560.5> 296 42<166 219 166 229.5> 598 43<196.5 244> 665 20G<555 611 611 611>
VStem: 65 71<381.5 433 381.5 490> 275 70<502.5 554> 398 70<73.5 125.5 73.5 180.5> 607 71<194.5 246>
LayerCount: 2
Fore
SplineSet
133 -56 m 1,0,-1
 555 685 l 1,1,-1
 611 685 l 1,2,-1
 189 -56 l 1,3,-1
 133 -56 l 1,0,-1
345 518 m 0,4,5
 345 436 345 436 298.5 366 c 128,-1,6
 252 296 252 296 171 296 c 0,7,8
 122 296 122 296 93.5 327 c 128,-1,9
 65 358 65 358 65 418 c 0,10,11
 65 520 65 520 117.5 580.5 c 128,-1,12
 170 641 170 641 238 641 c 0,13,14
 286 641 286 641 315.5 609.5 c 128,-1,15
 345 578 345 578 345 518 c 0,4,5
182 338 m 0,16,17
 208 338 208 338 227.5 359.5 c 128,-1,18
 247 381 247 381 256.5 413.5 c 0,19,20
 275 476.789473684 275 476.789473684 275 537.394736842 c 128,-1,21
 275 598 275 598 228 598 c 0,22,23
 202 598 202 598 183 576.5 c 128,-1,24
 164 555 164 555 154.5 522 c 0,25,26
 136 457.736842105 136 457.736842105 136 404 c 0,27,28
 136 338 136 338 182 338 c 0,16,17
678 209 m 0,29,30
 678 127 678 127 630.5 57.5 c 128,-1,31
 583 -12 583 -12 502 -12 c 0,32,33
 454 -12 454 -12 426 18.5 c 128,-1,34
 398 49 398 49 398 108 c 0,35,36
 398 211 398 211 450.5 272 c 128,-1,37
 503 333 503 333 570 333 c 0,38,39
 618 333 618 333 648 301 c 128,-1,40
 678 269 678 269 678 209 c 0,29,30
515 30 m 0,41,42
 541 30 541 30 560.5 51.5 c 128,-1,43
 580 73 580 73 589 105.5 c 0,44,45
 607 170.5 607 170.5 607 224 c 0,46,47
 607 290 607 290 561 290 c 0,48,49
 535 290 535 290 515.5 268.5 c 128,-1,50
 496 247 496 247 486.5 214.5 c 0,51,52
 468 151.210526316 468 151.210526316 468 90.6052631579 c 128,-1,53
 468 30 468 30 515 30 c 0,41,42
EndSplineSet
EndChar

StartChar: perthousand
Encoding: 8240 8240 141
Width: 1033
Flags: HMW
HStem: -56 21G<133 133 133 189> -12 42<499 552 499 560.5 819 872> 296 42<166 219 166 229.5> 598 43<196.5 244> 665 20G<555 611 611 611>
VStem: 65 71<381.5 433 381.5 490> 275 70<502.5 554> 398 70<73.5 125.5 73.5 180.5> 607 71<194.5 246> 718 70<73.5 125.5 73.5 180.5> 927 71<194.5 246>
LayerCount: 2
Fore
SplineSet
133 -56 m 1,0,-1
 555 685 l 1,1,-1
 611 685 l 1,2,-1
 189 -56 l 1,3,-1
 133 -56 l 1,0,-1
345 518 m 0,4,5
 345 436 345 436 298.5 366 c 128,-1,6
 252 296 252 296 171 296 c 0,7,8
 122 296 122 296 93.5 327 c 128,-1,9
 65 358 65 358 65 418 c 0,10,11
 65 520 65 520 117.5 580.5 c 128,-1,12
 170 641 170 641 238 641 c 0,13,14
 286 641 286 641 315.5 609.5 c 128,-1,15
 345 578 345 578 345 518 c 0,4,5
182 338 m 0,16,17
 208 338 208 338 227.5 359.5 c 128,-1,18
 247 381 247 381 256.5 413.5 c 0,19,20
 275 476.789473684 275 476.789473684 275 537.394736842 c 128,-1,21
 275 598 275 598 228 598 c 0,22,23
 202 598 202 598 183 576.5 c 128,-1,24
 164 555 164 555 154.5 522 c 0,25,26
 136 457.736842105 136 457.736842105 136 404 c 0,27,28
 136 338 136 338 182 338 c 0,16,17
998 209 m 0,29,30
 998 127 998 127 950.5 57.5 c 128,-1,31
 903 -12 903 -12 822 -12 c 0,32,33
 774 -12 774 -12 746 18.5 c 128,-1,34
 718 49 718 49 718 108 c 0,35,36
 718 211 718 211 770.5 272 c 128,-1,37
 823 333 823 333 890 333 c 0,38,39
 938 333 938 333 968 301 c 128,-1,40
 998 269 998 269 998 209 c 0,29,30
678 209 m 0,41,42
 678 127 678 127 630.5 57.5 c 128,-1,43
 583 -12 583 -12 502 -12 c 0,44,45
 454 -12 454 -12 426 18.5 c 128,-1,46
 398 49 398 49 398 108 c 0,47,48
 398 211 398 211 450.5 272 c 128,-1,49
 503 333 503 333 570 333 c 0,50,51
 618 333 618 333 648 301 c 128,-1,52
 678 269 678 269 678 209 c 0,41,42
835 30 m 0,53,54
 861 30 861 30 880.5 51.5 c 128,-1,55
 900 73 900 73 909 105.5 c 0,56,57
 927 170.5 927 170.5 927 224 c 0,58,59
 927 290 927 290 881 290 c 0,60,61
 855 290 855 290 835.5 268.5 c 128,-1,62
 816 247 816 247 806.5 214.5 c 0,63,64
 788 151.210526316 788 151.210526316 788 90.6052631579 c 128,-1,65
 788 30 788 30 835 30 c 0,53,54
515 30 m 0,66,67
 541 30 541 30 560.5 51.5 c 128,-1,68
 580 73 580 73 589 105.5 c 0,69,70
 607 170.5 607 170.5 607 224 c 0,71,72
 607 290 607 290 561 290 c 0,73,74
 535 290 535 290 515.5 268.5 c 128,-1,75
 496 247 496 247 486.5 214.5 c 0,76,77
 468 151.210526316 468 151.210526316 468 90.6052631579 c 128,-1,78
 468 30 468 30 515 30 c 0,66,67
EndSplineSet
EndChar

StartChar: guilsinglleft
Encoding: 8249 8249 142
Width: 294
Flags: HMW
HStem: 15 21G<193 193> 424 20G<270 270>
LayerCount: 2
Fore
SplineSet
50 213 m 1,0,-1
 55 241 l 1,1,-1
 270 444 l 1,2,-1
 294 420 l 1,3,-1
 136 227 l 1,4,-1
 225 34 l 1,5,-1
 193 15 l 1,6,-1
 50 213 l 1,0,-1
EndSplineSet
Position2: "'case' Case-Sensitive Forms in Latin lookup 1 per glyph data 0" dx=0 dy=70 dh=0 dv=0
EndChar

StartChar: guilsinglright
Encoding: 8250 8250 143
Width: 294
Flags: HMW
HStem: 10 21G<24 24> 419 20G<101 101>
LayerCount: 2
Fore
SplineSet
244 241 m 1,0,-1
 239 213 l 1,1,-1
 24 10 l 1,2,-1
 0 34 l 1,3,-1
 158 227 l 1,4,-1
 69 420 l 1,5,-1
 101 439 l 1,6,-1
 244 241 l 1,0,-1
EndSplineSet
Position2: "'case' Case-Sensitive Forms in Latin lookup 1 per glyph data 0" dx=0 dy=70 dh=0 dv=0
EndChar

StartChar: periodcentered
Encoding: 183 183 144
Width: 197
Flags: HMW
HStem: 173 21G<62 84> 182 21G<131 131.5> 286 20G<112.5 133.5>
VStem: 44 107<200 277.5>
LayerCount: 2
Fore
SplineSet
123 306 m 0,0,1
 151 306 151 306 151 266 c 0,2,3
 151 241.111111111 151 241.111111111 141.5 211.555555556 c 128,-1,4
 132 182 132 182 131 182 c 0,5,6
 95 173 95 173 73 173 c 0,7,8
 44 173 44 173 44 211 c 0,9,10
 44 241 44 241 54 270 c 128,-1,11
 64 299 64 299 65 299 c 0,12,13
 102 306 102 306 123 306 c 0,0,1
EndSplineSet
EndChar

StartChar: K
Encoding: 75 75 145
Width: 594
Flags: HMW
HStem: -12 21G<423 440> 0 21G<21 244 21 21> 680 20G<131 354 354 354> 687 20G<598.5 603>
LayerCount: 2
Fore
SplineSet
125 678 m 1,0,-1
 131 700 l 1,1,-1
 354 700 l 1,2,-1
 362 674 l 1,3,4
 311 653 311 653 277 643 c 1,5,-1
 234 376 l 1,6,7
 272 368 272 368 303.5 368 c 0,8,9
 335 368 335 368 343 369 c 1,10,11
 401 434 401 434 470 534 c 1,12,-1
 512 655 l 1,13,14
 567 707 567 707 603 707 c 1,15,-1
 624 694 l 1,16,17
 596 634 596 634 539.5 554.5 c 128,-1,18
 483 475 483 475 379 343 c 1,19,20
 406 182 406 182 482 57 c 1,21,22
 506 55 506 55 536 46 c 128,-1,23
 566 37 566 37 577 28 c 1,24,-1
 571 8 l 1,25,-1
 440 -12 l 1,26,27
 415 -12 415 -12 377 96 c 128,-1,28
 339 204 339 204 322 315 c 1,29,30
 297 315 297 315 226 334 c 1,31,-1
 166 58 l 1,32,33
 209 44 209 44 250 22 c 1,34,-1
 244 0 l 1,35,-1
 21 0 l 1,36,-1
 13 26 l 1,37,38
 64 47 64 47 98 57 c 1,39,-1
 209 642 l 1,40,41
 172 652 172 652 125 678 c 1,0,-1
EndSplineSet
Position2: "'cpsp' Capital Spacing in Latin lookup 0 subtable" dx=7 dy=0 dh=35 dv=0
EndChar

StartChar: R
Encoding: 82 82 146
Width: 602
Flags: HMW
HStem: -12 21G<427.5 440> 0 21G<21 254 21 21> 651 47 656 21G<403 437.5> 680 20G<131 131>
VStem: 502 80<480 554.5>
LayerCount: 2
Fore
SplineSet
260 22 m 1,0,-1
 254 0 l 1,1,-1
 21 0 l 1,2,-1
 13 26 l 1,3,4
 64 47 64 47 98 57 c 1,5,-1
 209 642 l 1,6,7
 172 652 172 652 125 678 c 1,8,-1
 131 700 l 1,9,-1
 252 696 l 1,10,-1
 421 698 l 2,11,12
 497 698 497 698 539.5 650 c 128,-1,13
 582 602 582 602 582 528.5 c 128,-1,14
 582 455 582 455 532.5 393 c 128,-1,15
 483 331 483 331 410 299 c 1,16,17
 429 160 429 160 482 57 c 1,18,19
 506 55 506 55 536 46 c 128,-1,20
 566 37 566 37 577 28 c 1,21,-1
 571 8 l 1,22,-1
 440 -12 l 1,23,24
 422 -12 422 -12 393 84.5 c 128,-1,25
 364 181 364 181 352 280 c 1,26,27
 341 280 341 280 305.5 291 c 128,-1,28
 270 302 270 302 249 311 c 1,29,-1
 261 352 l 1,30,31
 320 334 320 334 365 334 c 128,-1,32
 410 334 410 334 443 365 c 0,33,34
 502 420.424242424 502 420.424242424 502 518 c 0,35,36
 502 577 502 577 477 616.5 c 128,-1,37
 452 656 452 656 403 656 c 1,38,-1
 278 646 l 1,39,-1
 230 350 l 1,40,-1
 166 58 l 1,41,42
 208 47 208 47 260 22 c 1,0,-1
EndSplineSet
Position2: "'cpsp' Capital Spacing in Latin lookup 0 subtable" dx=7 dy=0 dh=35 dv=0
EndChar

StartChar: Q
Encoding: 81 81 147
Width: 694
Flags: HMW
HStem: -179 21G<498 517> -133 20G<450.5 500> -20 20G<269 342 342 342> -12 53<240 389.5 240 392> 659 53<325.5 474>
VStem: 50 80<182 338.5 182 349.5> 599 80<359.5 510>
LayerCount: 2
Fore
SplineSet
269 0 m 1,0,-1
 342 0 l 1,1,2
 377 -62 377 -62 407.5 -87.5 c 128,-1,3
 438 -113 438 -113 472 -113 c 0,4,5
 531 -113 531 -113 643 -91 c 1,6,-1
 656 -140 l 1,7,8
 539 -179 539 -179 498 -179 c 1,9,10
 427 -165 427 -165 373.5 -121 c 128,-1,11
 320 -77 320 -77 269 0 c 1,0,-1
451 712 m 0,12,13
 558 712 558 712 618.5 638.5 c 128,-1,14
 679 565 679 565 679 453 c 128,-1,15
 679 341 679 341 629.5 235.5 c 128,-1,16
 580 130 580 130 483 59 c 128,-1,17
 386 -12 386 -12 266 -12 c 0,18,19
 166 -12 166 -12 108 60 c 128,-1,20
 50 132 50 132 50 242 c 0,21,22
 50 324 50 324 78 406.5 c 128,-1,23
 106 489 106 489 156 557.5 c 128,-1,24
 206 626 206 626 283.5 669 c 128,-1,25
 361 712 361 712 451 712 c 0,12,13
548.5 599 m 128,-1,27
 498 659 498 659 425.5 659 c 128,-1,28
 353 659 353 659 294 621.5 c 128,-1,29
 235 584 235 584 200.5 522.5 c 0,30,31
 130 396.826086957 130 396.826086957 130 241 c 0,32,33
 130 153 130 153 173.5 97 c 128,-1,34
 217 41 217 41 288.5 41 c 128,-1,35
 360 41 360 41 421.5 79 c 128,-1,36
 483 117 483 117 521 177.5 c 0,37,38
 599 301.684210526 599 301.684210526 599 451 c 0,39,26
 599 539 599 539 548.5 599 c 128,-1,27
EndSplineSet
Position2: "'cpsp' Capital Spacing in Latin lookup 0 subtable" dx=7 dy=0 dh=35 dv=0
EndChar

StartChar: thorn
Encoding: 254 254 148
Width: 475
Flags: HMW
HStem: -262 21G<-24 -20> -11 21G<154.5 162> 412 56<346.5 350.5> 742 20G<265 269>
VStem: 368 67<303.5 387>
LayerCount: 2
Fore
SplineSet
-39 -253 m 1,0,1
 11 -125 11 -125 92 250 c 0,2,3
 94 261 94 261 196 747 c 1,4,5
 235 762 235 762 269 762 c 1,6,-1
 284 753 l 1,7,8
 259 702 259 702 219.5 551 c 128,-1,9
 180 400 180 400 148 246 c 1,10,11
 225 372 225 372 277 420 c 128,-1,12
 329 468 329 468 373 468 c 0,13,14
 402 468 402 468 418.5 442 c 128,-1,15
 435 416 435 416 435 374 c 0,16,17
 435 282 435 282 409 209.5 c 128,-1,18
 383 137 383 137 340 93.5 c 0,19,20
 261.221374046 13.8053435115 261.221374046 13.8053435115 162 -11 c 1,21,22
 146 -11 146 -11 100 5 c 1,23,24
 58 -199 58 -199 51 -247 c 1,25,26
 12 -262 12 -262 -24 -262 c 1,27,-1
 -39 -253 l 1,0,1
368 376 m 0,28,29
 368 412 368 412 343 412 c 0,30,31
 287 412 287 412 130 151 c 1,32,33
 126 128 126 128 110 54 c 1,34,35
 155 46 155 46 194 46 c 0,36,37
 250 46 250 46 291 99.5 c 0,38,39
 368 199.975609756 368 199.975609756 368 376 c 0,28,29
EndSplineSet
EndChar

StartChar: quotesinglbase
Encoding: 8218 8218 149
Width: 197
Flags: HMW
HStem: -123 21G<39 39> 101 20G<117.5 141>
LayerCount: 2
Fore
SplineSet
70 110 m 1,0,1
 103 121 103 121 126 121 c 0,2,3
 168 121 168 121 168 60 c 1,4,5
 158 19 158 19 114 -37 c 128,-1,6
 70 -93 70 -93 39 -123 c 1,7,-1
 17 -107 l 1,8,9
 40 -75 40 -75 52 -56 c 0,10,11
 84 -5.33333333333 84 -5.33333333333 84 32.8333333333 c 128,-1,12
 84 71 84 71 70 110 c 1,0,1
EndSplineSet
EndChar

StartChar: quotedblbase
Encoding: 8222 8222 150
Width: 353
Flags: HMW
HStem: -123 21G<39 39 195 195> 101 20G<117.5 141 273.5 297>
LayerCount: 2
Fore
SplineSet
226 110 m 1,0,1
 259 121 259 121 282 121 c 0,2,3
 324 121 324 121 324 60 c 1,4,5
 314 19 314 19 270 -37 c 128,-1,6
 226 -93 226 -93 195 -123 c 1,7,-1
 173 -107 l 1,8,9
 196 -75 196 -75 208 -56 c 0,10,11
 240 -5.33333333333 240 -5.33333333333 240 32.8333333333 c 128,-1,12
 240 71 240 71 226 110 c 1,0,1
70 110 m 1,13,14
 103 121 103 121 126 121 c 0,15,16
 168 121 168 121 168 60 c 1,17,18
 158 19 158 19 114 -37 c 128,-1,19
 70 -93 70 -93 39 -123 c 1,20,-1
 17 -107 l 1,21,22
 40 -75 40 -75 52 -56 c 0,23,24
 84 -5.33333333333 84 -5.33333333333 84 32.8333333333 c 128,-1,25
 84 71 84 71 70 110 c 1,13,14
EndSplineSet
EndChar

StartChar: bullet
Encoding: 8226 8226 151
Width: 251
Flags: HMW
HStem: 186 21G<82.5 121.5> 327 20G<131.5 167.5>
LayerCount: 2
Fore
SplineSet
147 347 m 0,0,1
 201 347 201 347 201 271 c 0,2,3
 201 241 201 241 193.5 208 c 2,4,-1
 191 197 l 1,5,6
 138 186 138 186 105 186 c 0,7,8
 50 186 50 186 50 260 c 0,9,10
 50 293 50 293 59 327.5 c 2,11,-1
 62 339 l 1,12,13
 116 347 116 347 147 347 c 0,0,1
EndSplineSet
Position2: "'case' Case-Sensitive Forms in Latin lookup 1 per glyph data 0" dx=0 dy=70 dh=0 dv=0
EndChar

StartChar: registered
Encoding: 174 174 152
Width: 626
Flags: HMW
HStem: 217 37<244.5 381.5 244.5 391.5> 492 20G<280 304 304 304> 681 21G<191.5 198 323 357> 746 37<244.5 381.5>
VStem: 30 37<431.5 568.5 431.5 578.5> 226 51 380 48<565 598> 559 37<431.5 568.5>
LayerCount: 2
Fore
SplineSet
30 500 m 128,-1,1
 30 618 30 618 112.5 700.5 c 128,-1,2
 195 783 195 783 313 783 c 128,-1,3
 431 783 431 783 513.5 700.5 c 128,-1,4
 596 618 596 618 596 500 c 128,-1,5
 596 382 596 382 513.5 299.5 c 128,-1,6
 431 217 431 217 313 217 c 128,-1,7
 195 217 195 217 112.5 299.5 c 128,-1,0
 30 382 30 382 30 500 c 128,-1,1
67 500 m 128,-1,9
 67 397 67 397 138.5 325.5 c 128,-1,10
 210 254 210 254 313 254 c 128,-1,11
 416 254 416 254 487.5 325.5 c 128,-1,12
 559 397 559 397 559 500 c 128,-1,13
 559 603 559 603 487.5 674.5 c 128,-1,14
 416 746 416 746 313 746 c 128,-1,15
 210 746 210 746 138.5 674.5 c 128,-1,8
 67 603 67 603 67 500 c 128,-1,9
226 645 m 1,16,-1
 185 655 l 1,17,18
 185 681 185 681 198 681 c 2,19,-1
 247 678 l 1,20,-1
 323 681 l 1,21,22
 372 681 372 681 400 652 c 128,-1,23
 428 623 428 623 428 581 c 0,24,25
 428 556 428 556 410.5 532 c 128,-1,26
 393 508 393 508 363 494 c 1,27,28
 368 490 368 490 381 471 c 1,29,-1
 442 361 l 1,30,-1
 477 353 l 1,31,32
 477 328 477 328 463 328 c 2,33,-1
 401 328 l 1,34,-1
 329 463 l 2,35,36
 321 476 321 476 316 481 c 1,37,-1
 279 475 l 1,38,-1
 275 364 l 1,39,-1
 324 353 l 1,40,41
 324 328 324 328 310 328 c 0,42,43
 294 328 294 328 249 330 c 1,44,-1
 198 328 l 2,45,46
 185 328 185 328 185 353 c 1,47,-1
 226 364 l 1,48,-1
 226 645 l 1,16,-1
313 649 m 1,49,-1
 275 645 l 1,50,-1
 280 512 l 1,51,-1
 304 512 l 1,52,53
 341 513 341 513 360.5 533.5 c 128,-1,54
 380 554 380 554 380 581 c 0,55,56
 380 608 380 608 362.5 628 c 128,-1,57
 345 648 345 648 313 649 c 1,49,-1
EndSplineSet
EndChar

StartChar: copyright
Encoding: 169 169 153
Width: 626
Flags: HMW
HStem: 217 37<244.5 381.5 244.5 391.5> 322 37<294.5 340.5 294.5 343.5> 414 20G<437 440> 687 21G<282 349.5> 746 37<244.5 381.5>
VStem: 30 37<431.5 568.5 431.5 578.5> 158 56<456 534 456 565> 559 37<431.5 568.5>
LayerCount: 2
Fore
SplineSet
30 500 m 128,-1,1
 30 618 30 618 112.5 700.5 c 128,-1,2
 195 783 195 783 313 783 c 128,-1,3
 431 783 431 783 513.5 700.5 c 128,-1,4
 596 618 596 618 596 500 c 128,-1,5
 596 382 596 382 513.5 299.5 c 128,-1,6
 431 217 431 217 313 217 c 128,-1,7
 195 217 195 217 112.5 299.5 c 128,-1,0
 30 382 30 382 30 500 c 128,-1,1
67 500 m 128,-1,9
 67 397 67 397 138.5 325.5 c 128,-1,10
 210 254 210 254 313 254 c 128,-1,11
 416 254 416 254 487.5 325.5 c 128,-1,12
 559 397 559 397 559 500 c 128,-1,13
 559 603 559 603 487.5 674.5 c 128,-1,14
 416 746 416 746 313 746 c 128,-1,15
 210 746 210 746 138.5 674.5 c 128,-1,8
 67 603 67 603 67 500 c 128,-1,9
440 434 m 1,16,-1
 436 355 l 1,17,18
 391 322 391 322 319.5 322 c 0,19,20
 248 322 248 322 203 369.5 c 128,-1,21
 158 417 158 417 158 504 c 0,22,23
 158 591 158 591 206.5 639 c 128,-1,24
 255 687 255 687 321.5 687 c 0,25,26
 388 687 388 687 437 654 c 1,27,-1
 423 573 l 1,28,29
 389 573 389 573 389 585 c 2,30,-1
 389 636 l 1,31,32
 355 646 355 646 322.5 646 c 0,33,34
 290 646 290 646 260 635 c 1,35,36
 240 618 240 618 227 582.5 c 128,-1,37
 214 547 214 547 214 505 c 0,38,39
 214 434 214 434 245 396.5 c 128,-1,40
 276 359 276 359 320.5 359 c 0,41,42
 365 359 365 359 393 375 c 1,43,-1
 404 424 l 2,44,45
 407 434 407 434 440 434 c 1,16,-1
EndSplineSet
EndChar

StartChar: onesuperior
Encoding: 185 185 154
Width: 392
Flags: HMW
HStem: 175 21G<74 308 74 74> 585 20G<272 278>
LayerCount: 2
Fore
SplineSet
278 605 m 1,0,1
 291 601 291 601 290.5 592 c 128,-1,2
 290 583 290 583 290 581 c 2,3,-1
 226 217 l 1,4,5
 271 208 271 208 314 195 c 1,6,-1
 308 175 l 1,7,-1
 74 175 l 1,8,-1
 67 199 l 1,9,10
 69 199 69 199 107 207 c 128,-1,11
 145 215 145 215 166 219 c 1,12,-1
 226 555 l 1,13,-1
 115 528 l 1,14,15
 104 562 104 562 104 567 c 1,16,17
 105.397058824 568.397058824 105.397058824 568.397058824 189.198529412 586.698529412 c 128,-1,18
 273 605 273 605 278 605 c 1,0,1
EndSplineSet
EndChar

StartChar: twosuperior
Encoding: 178 178 155
Width: 392
Flags: HMW
HStem: 175 35<89 89 89 311> 585 20G<205 216>
VStem: 283 65<469 508>
LayerCount: 2
Fore
SplineSet
33 175 m 1,0,-1
 16 201 l 1,1,-1
 219 371 l 1,2,3
 283 423 283 423 283 489 c 0,4,5
 283 519 283 519 263.5 539.5 c 128,-1,6
 244 560 244 560 208 560 c 0,7,8
 193 560 193 560 112 546 c 1,9,-1
 103 580 l 1,10,11
 188 605 188 605 216 605 c 1,12,13
 277 595 277 595 312.5 566.5 c 128,-1,14
 348 538 348 538 348 495 c 0,15,16
 348 401 348 401 228 313 c 2,17,-1
 89 210 l 1,18,19
 217 214 217 214 328 230 c 1,20,-1
 333 214 l 1,21,22
 327 194 327 194 311 175 c 1,23,-1
 33 175 l 1,0,-1
EndSplineSet
EndChar

StartChar: threesuperior
Encoding: 179 179 156
Width: 392
Flags: HMW
HStem: 167 39<150.5 187 150.5 207> 585 20G<221 232>
VStem: 276 61<269 321> 289 48 289 61<486 522>
LayerCount: 2
Fore
SplineSet
350 510 m 0,0,1
 350 440 350 440 265 398 c 1,2,3
 300 388 300 388 318.5 364 c 128,-1,4
 337 340 337 340 337 309 c 0,5,6
 337 247 337 247 284 207 c 128,-1,7
 231 167 231 167 163.5 167 c 0,8,9
 96 167 96 167 40 195 c 1,10,-1
 75 288 l 1,11,-1
 99 286 l 1,12,13
 99 233 99 233 98 220 c 1,14,15
 127 206 127 206 165.5 206 c 0,16,17
 204 206 204 206 240 231.5 c 128,-1,18
 276 257 276 257 276 295 c 0,19,20
 276 333 276 333 244.5 354 c 128,-1,21
 213 375 213 375 155 375 c 1,22,-1
 155 406 l 1,23,24
 289 422 289 422 289 510 c 0,25,26
 289 530 289 530 272 545 c 128,-1,27
 255 560 255 560 232 560 c 0,28,29
 209 560 209 560 129 546 c 1,30,-1
 119 580 l 1,31,32
 204 605 204 605 232 605 c 1,33,34
 280 598 280 598 315 574 c 128,-1,35
 350 550 350 550 350 510 c 0,0,1
EndSplineSet
EndChar

StartChar: trademark
Encoding: 8482 8482 157
Width: 798
Flags: HMW
HStem: 347 21G<93 100 231 238 326.5 334 435 442.5 616.5 624 737 744> 663 36 680 20G<40.5 46 285 291 343 350 720 727>
VStem: 140 51 368 40 651 51
LayerCount: 2
Fore
SplineSet
381 349 m 1,0,-1
 334 347 l 2,1,2
 319 347 319 347 319 372 c 1,3,-1
 361 383 l 1,4,-1
 376 663 l 1,5,-1
 336 673 l 1,6,7
 336 700 336 700 350 700 c 2,8,-1
 433 698 l 1,9,-1
 530 459 l 1,10,-1
 640 698 l 1,11,-1
 720 700 l 2,12,13
 734 700 734 700 734 673 c 1,14,-1
 694 663 l 1,15,-1
 710 383 l 1,16,-1
 751 372 l 1,17,18
 751 347 751 347 737 347 c 2,19,-1
 680 349 l 1,20,-1
 624 347 l 2,21,22
 609 347 609 347 609 372 c 1,23,-1
 656 383 l 1,24,-1
 646 617 l 1,25,-1
 534 371 l 1,26,-1
 516 371 l 1,27,-1
 414 611 l 1,28,-1
 403 383 l 1,29,-1
 450 372 l 1,30,31
 450 347 450 347 435 347 c 2,32,-1
 381 349 l 1,0,-1
165 697 m 1,33,-1
 285 700 l 2,34,35
 307 700 307 700 307 691 c 0,36,37
 307 690 307 690 301 606 c 1,38,39
 268 606 268 606 267 618 c 2,40,-1
 261 664 l 1,41,-1
 190 662 l 1,42,-1
 192 523 l 1,43,-1
 190 383 l 1,44,-1
 245 372 l 1,45,46
 245 347 245 347 231 347 c 0,47,48
 212 347 212 347 167 349 c 1,49,-1
 100 347 l 2,50,51
 86 347 86 347 86 372 c 1,52,-1
 141 383 l 1,53,-1
 139 523 l 1,54,-1
 141 662 l 1,55,-1
 71 664 l 1,56,-1
 64 618 l 2,57,58
 62 606 62 606 30 606 c 1,59,-1
 24 691 l 2,60,61
 24 700 24 700 46 700 c 2,62,-1
 165 697 l 1,33,-1
EndSplineSet
EndChar

StartChar: ogonek
Encoding: 731 731 158
Width: 469
Flags: HMW
HStem: -233 43<222.5 233> 6 20G<293 293>
VStem: 134 56<-159.5 -125>
LayerCount: 2
Fore
SplineSet
293 26 m 1,0,-1
 303 9 l 1,1,2
 254 -19 254 -19 222 -64 c 128,-1,3
 190 -109 190 -109 190 -142 c 0,4,5
 190 -190 190 -190 235 -190 c 0,6,7
 258 -190 258 -190 283 -178 c 128,-1,8
 308 -166 308 -166 323 -147 c 1,9,-1
 342 -165 l 1,10,11
 284 -233 284 -233 211 -233 c 0,12,13
 173 -233 173 -233 153.5 -213 c 128,-1,14
 134 -193 134 -193 134 -161 c 0,15,16
 134 -108 134 -108 176 -60 c 128,-1,17
 218 -12 218 -12 293 26 c 1,0,-1
EndSplineSet
EndChar

StartChar: onehalf
Encoding: 189 189 159
Width: 990
Flags: HMW
HStem: -56 20G 0 35<654 654 654 876> 410 20G<770 781> 631 20G<272 278> 681 19
VStem: 848 65<294 333>
LayerCount: 2
Fore
SplineSet
278 651 m 1,0,1
 291 647 291 647 290.5 638 c 128,-1,2
 290 629 290 629 290 627 c 2,3,-1
 226 263 l 1,4,5
 271 254 271 254 314 241 c 1,6,-1
 308 221 l 1,7,-1
 74 221 l 1,8,-1
 67 245 l 1,9,10
 69 245 69 245 107 253 c 128,-1,11
 145 261 145 261 166 265 c 1,12,-1
 226 601 l 1,13,-1
 115 574 l 1,14,15
 104 608 104 608 104 613 c 1,16,17
 105.397058824 614.397058824 105.397058824 614.397058824 189.198529412 632.698529412 c 128,-1,18
 273 651 273 651 278 651 c 1,0,1
598 0 m 1,19,-1
 581 26 l 1,20,-1
 784 196 l 2,21,22
 848 250 848 250 848 314 c 0,23,24
 848 344 848 344 828.5 364.5 c 128,-1,25
 809 385 809 385 773 385 c 0,26,27
 758 385 758 385 677 371 c 1,28,-1
 668 405 l 1,29,30
 753 430 753 430 781 430 c 1,31,32
 842 420 842 420 877.5 391.5 c 128,-1,33
 913 363 913 363 913 320 c 0,34,35
 913 226 913 226 793 138 c 2,36,-1
 654 35 l 1,37,38
 782 39 782 39 893 55 c 1,39,-1
 898 39 l 1,40,41
 892 19 892 19 876 0 c 1,42,-1
 598 0 l 1,19,-1
308 -56 m 1,43,-1
 623 700 l 1,44,-1
 674 700 l 1,45,-1
 359 -56 l 1,46,-1
 308 -56 l 1,43,-1
EndSplineSet
EndChar

StartChar: onequarter
Encoding: 188 188 160
Width: 990
Flags: HMW
HStem: -56 20G 0 21G<687 865 687 687> 92 37<637 767 831 892> 631 20G<272 278> 681 19
LayerCount: 2
Fore
SplineSet
278 651 m 1,0,1
 291 647 291 647 290.5 638 c 128,-1,2
 290 629 290 629 290 627 c 2,3,-1
 226 263 l 1,4,5
 271 254 271 254 314 241 c 1,6,-1
 308 221 l 1,7,-1
 74 221 l 1,8,-1
 67 245 l 1,9,10
 69 245 69 245 107 253 c 128,-1,11
 145 261 145 261 166 265 c 1,12,-1
 226 601 l 1,13,-1
 115 574 l 1,14,15
 104 608 104 608 104 613 c 1,16,17
 105.397058824 614.397058824 105.397058824 614.397058824 189.198529412 632.698529412 c 128,-1,18
 273 651 273 651 278 651 c 1,0,1
825 92 m 1,19,20
 824.285714286 86.2857142857 824.285714286 86.2857142857 814 40 c 1,21,22
 842 32 842 32 871 20 c 1,23,-1
 865 0 l 1,24,-1
 687 0 l 1,25,-1
 680 24 l 1,26,27
 731 38 731 38 758 43 c 1,28,-1
 767 92 l 1,29,-1
 598 92 l 2,30,31
 577 92 577 92 577 103 c 1,32,33
 586 125 586 125 617 181 c 2,34,-1
 761 439 l 1,35,-1
 813 421 l 1,36,-1
 637 129 l 1,37,-1
 773 129 l 1,38,-1
 801 285 l 1,39,40
 830 292 830 292 846 292 c 0,41,42
 855 292 855 292 855 273 c 2,43,-1
 855 266 l 1,44,-1
 831 129 l 1,45,-1
 897 129 l 1,46,-1
 892 92 l 1,47,-1
 825 92 l 1,19,20
307 -56 m 1,48,-1
 622 700 l 1,49,-1
 673 700 l 1,50,-1
 358 -56 l 1,51,-1
 307 -56 l 1,48,-1
EndSplineSet
EndChar

StartChar: threequarters
Encoding: 190 190 161
Width: 990
Flags: HMW
HStem: -56 20G -10 21G<687 865 687 687> 82 37<637 767 831 892> 213 39<150.5 187 150.5 207> 401 20G<155 195> 631 20G<221 232> 681 19
VStem: 276 61<315 367> 289 48 289 61<532 568>
LayerCount: 2
Fore
SplineSet
350 556 m 0,0,1
 350 486 350 486 265 444 c 1,2,3
 300 434 300 434 318.5 410 c 128,-1,4
 337 386 337 386 337 355 c 0,5,6
 337 293 337 293 284 253 c 128,-1,7
 231 213 231 213 163.5 213 c 128,-1,8
 96 213 96 213 40 241 c 1,9,-1
 75 334 l 1,10,-1
 99 332 l 1,11,12
 99 279 99 279 98 266 c 1,13,14
 127 252 127 252 165.5 252 c 128,-1,15
 204 252 204 252 240 277.5 c 128,-1,16
 276 303 276 303 276 341 c 128,-1,17
 276 379 276 379 244.5 400 c 128,-1,18
 213 421 213 421 155 421 c 1,19,-1
 155 452 l 1,20,21
 289 468 289 468 289 556 c 0,22,23
 289 576 289 576 272 591 c 128,-1,24
 255 606 255 606 232 606 c 128,-1,25
 209 606 209 606 129 592 c 1,26,-1
 119 626 l 1,27,28
 204 651 204 651 232 651 c 1,29,30
 280 644 280 644 315 620 c 128,-1,31
 350 596 350 596 350 556 c 0,0,1
825 82 m 1,32,33
 824.285714286 76.2857142857 824.285714286 76.2857142857 814 30 c 1,34,35
 842 22 842 22 871 10 c 1,36,-1
 865 -10 l 1,37,-1
 687 -10 l 1,38,-1
 680 14 l 1,39,40
 731 28 731 28 758 33 c 1,41,-1
 767 82 l 1,42,-1
 598 82 l 2,43,44
 577 82 577 82 577 93 c 1,45,46
 585 115 585 115 617 171 c 2,47,-1
 761 429 l 1,48,-1
 813 411 l 1,49,-1
 637 119 l 1,50,-1
 773 119 l 1,51,-1
 801 275 l 1,52,53
 830 282 830 282 846 282 c 1,54,55
 855 277 855 277 855 263 c 2,56,-1
 855 256 l 1,57,-1
 831 119 l 1,58,-1
 897 119 l 1,59,-1
 892 82 l 1,60,-1
 825 82 l 1,32,33
313 -56 m 1,61,-1
 628 700 l 1,62,-1
 679 700 l 1,63,-1
 364 -56 l 1,64,-1
 313 -56 l 1,61,-1
EndSplineSet
EndChar

StartChar: eth
Encoding: 240 240 162
Width: 449
Flags: HMW
HStem: -12 48<136.5 194.5> 236 21G<411 411> 426 42<246.5 307.5> 711 20G<168 168>
VStem: 30 64<100 222 100 260.5> 355 64<238.5 360.5> 360 59<318 367.5 367.5 377 195.5 378.5>
LayerCount: 2
Fore
SplineSet
160 518 m 1,0,-1
 144 566 l 1,1,-1
 238 612 l 1,2,3
 197 653 197 653 142 693 c 1,4,-1
 168 731 l 1,5,6
 237 686 237 686 285 635 c 1,7,-1
 408 695 l 1,8,-1
 421 659 l 1,9,-1
 315 601 l 1,10,11
 419 474 419 474 419 319 c 0,12,13
 419 282 419 282 411 236 c 1,14,-1
 353 255 l 1,15,16
 360 291 360 291 360 330 c 0,17,18
 360 462 360 462 268 576 c 1,19,-1
 160 518 l 1,0,-1
386.5 430 m 128,-1,21
 419 392 419 392 419 321 c 128,-1,22
 419 250 419 250 399 190.5 c 128,-1,23
 379 131 379 131 349.5 94.5 c 128,-1,24
 320 58 320 58 282.5 33 c 0,25,26
 215 -12 215 -12 154 -12 c 128,-1,27
 93 -12 93 -12 61.5 26.5 c 128,-1,28
 30 65 30 65 30 135.5 c 128,-1,29
 30 206 30 206 49 265.5 c 128,-1,30
 68 325 68 325 97 361.5 c 128,-1,31
 126 398 126 398 161.5 423 c 0,32,33
 225.4 468 225.4 468 289.7 468 c 128,-1,20
 354 468 354 468 386.5 430 c 128,-1,21
286 426 m 0,34,35
 208 426 208 426 151 344.5 c 128,-1,36
 94 263 94 263 94 130 c 0,37,38
 94 36 94 36 158 36 c 0,39,40
 231 36 231 36 293 118.5 c 128,-1,41
 355 201 355 201 355 330 c 0,42,43
 355 376 355 376 336.5 401 c 128,-1,44
 318 426 318 426 286 426 c 0,34,35
EndSplineSet
EndChar

StartChar: AE
Encoding: 198 198 163
Width: 862
Flags: HMW
HStem: -4 21G 0 55 307 46 649 47<444 493 413 517 444 444> 693 20G<863 863>
LayerCount: 2
Fore
SplineSet
286 678 m 1,0,-1
 292 700 l 1,1,-1
 413 696 l 1,2,3
 789 696 789 696 863 713 c 1,4,-1
 869 696 l 1,5,6
 860 669 860 669 838 643 c 1,7,8
 683 643 683 643 585 649 c 1,9,-1
 537 353 l 1,10,-1
 768 353 l 1,11,-1
 759 310 l 1,12,-1
 527 304 l 1,13,-1
 473 55 l 1,14,15
 715 57 715 57 783 72 c 1,16,-1
 789 55 l 1,17,18
 780 22 780 22 758 -4 c 1,19,20
 602 8 602 8 433 8 c 1,21,-1
 328 0 l 1,22,-1
 320 26 l 1,23,24
 371 47 371 47 405 57 c 1,25,-1
 451 302 l 1,26,-1
 221 296 l 1,27,-1
 68 53 l 1,28,-1
 137 26 l 1,29,-1
 129 0 l 1,30,-1
 -64 0 l 1,31,-1
 -70 22 l 1,32,33
 -41 39 -41 39 10 59 c 1,34,-1
 377 639 l 1,35,36
 327 654 327 654 286 678 c 1,0,-1
517 649 m 1,37,-1
 444 649 l 1,38,-1
 257 353 l 1,39,-1
 461 353 l 1,40,-1
 517 649 l 1,37,-1
EndSplineSet
Position2: "'cpsp' Capital Spacing in Latin lookup 0 subtable" dx=7 dy=0 dh=35 dv=0
EndChar

StartChar: paragraph
Encoding: 182 182 164
Width: 463
Flags: HMW
HStem: -210 21G 642 70<317 317 317 384 284.5 455 284.5 526>
LayerCount: 2
Fore
SplineSet
317 642 m 1,0,-1
 257 302 l 1,1,2
 177 304 177 304 128.5 347 c 128,-1,3
 80 390 80 390 80 466 c 128,-1,4
 80 542 80 542 104 590.5 c 128,-1,5
 128 639 128 639 168.5 664.5 c 0,6,7
 243.941176471 712 243.941176471 712 343 712 c 0,8,9
 435 712 435 712 511.5 689.5 c 0,10,11
 537 682 537 682 536 679 c 2,12,-1
 526 642 l 1,13,-1
 455 642 l 1,14,-1
 374 180 l 2,15,16
 342 -4 342 -4 128 -210 c 1,17,-1
 103 -189 l 1,18,19
 270 -4 270 -4 298 153 c 2,20,-1
 384 642 l 1,21,-1
 317 642 l 1,0,-1
EndSplineSet
EndChar

StartChar: n
Encoding: 110 110 165
Width: 531
Flags: HMW
HStem: -12 21G<55 59 314 316> 412 56<372.5 376.5> 442 20G<186 188>
VStem: 136 59<354.5 442> 394 67<350 392>
LayerCount: 2
Fore
SplineSet
130 3 m 1,0,1
 90 -12 90 -12 55 -12 c 1,2,-1
 40 -3 l 1,3,4
 76 75 76 75 106 203.5 c 128,-1,5
 136 332 136 332 136 394 c 1,6,7
 89 399 89 399 56 424 c 1,8,-1
 62 443 l 1,9,-1
 186 462 l 1,10,11
 195 462 195 462 195 417.5 c 128,-1,12
 195 373 195 373 174 247 c 1,13,14
 251 372 251 372 303 420 c 128,-1,15
 355 468 355 468 399 468 c 0,16,17
 428 468 428 468 444.5 442 c 128,-1,18
 461 416 461 416 461 378 c 128,-1,19
 461 340 461 340 446.5 282 c 128,-1,20
 432 224 432 224 381 53 c 1,21,22
 434 43 434 43 456 27 c 1,23,-1
 450 8 l 1,24,-1
 316 -12 l 1,25,26
 299 -12 299 -12 299 23 c 1,27,28
 337 102 337 102 365.5 211 c 128,-1,29
 394 320 394 320 394 378 c 0,30,31
 394 412 394 412 369 412 c 0,32,33
 313 412 313 412 159 156 c 0,34,35
 159 155 159 155 130 3 c 1,0,1
EndSplineSet
EndChar

StartChar: numbersign
Encoding: 35 35 166
Width: 510
Flags: HMW
HStem: 0 21G<47 104 47 47 209 266 209 209> 168 57<22 106 2 126 183 268 22 163 345 442> 330 57<48 182 68 162 239 324 68 219 401 488> 534 20G<241 298 298 298 403 460 460 460>
LayerCount: 2
Fore
SplineSet
48 330 m 1,0,-1
 68 387 l 1,1,-1
 182 387 l 1,2,-1
 241 554 l 1,3,-1
 298 554 l 1,4,-1
 239 387 l 1,5,-1
 344 387 l 1,6,-1
 403 554 l 1,7,-1
 460 554 l 1,8,-1
 401 387 l 1,9,-1
 508 387 l 1,10,-1
 488 330 l 1,11,-1
 381 330 l 1,12,-1
 345 225 l 1,13,-1
 462 225 l 1,14,-1
 442 168 l 1,15,-1
 325 168 l 1,16,-1
 266 0 l 1,17,-1
 209 0 l 1,18,-1
 268 168 l 1,19,-1
 163 168 l 1,20,-1
 104 0 l 1,21,-1
 47 0 l 1,22,-1
 106 168 l 1,23,-1
 2 168 l 1,24,-1
 22 225 l 1,25,-1
 126 225 l 1,26,-1
 162 330 l 1,27,-1
 48 330 l 1,0,-1
219 330 m 1,28,-1
 183 225 l 1,29,-1
 288 225 l 1,30,-1
 324 330 l 1,31,-1
 219 330 l 1,28,-1
EndSplineSet
EndChar

StartChar: asciicircum
Encoding: 94 94 167
Width: 484
Flags: HMW
HStem: 225 21G<78 135 78 78 364 364 364 421> 492 20G<273 327 327 327>
LayerCount: 2
Fore
SplineSet
135 225 m 1,0,-1
 78 225 l 1,1,-1
 273 512 l 1,2,-1
 327 512 l 1,3,-1
 421 225 l 1,4,-1
 364 225 l 1,5,-1
 290 457 l 1,6,-1
 135 225 l 1,0,-1
EndSplineSet
EndChar

StartChar: underscore
Encoding: 95 95 168
Width: 504
Flags: HMW
HStem: -69 57<40 464 40 464>
LayerCount: 2
Fore
SplineSet
40 -69 m 1,0,-1
 40 -12 l 1,1,-1
 464 -12 l 1,2,-1
 464 -69 l 1,3,-1
 40 -69 l 1,0,-1
EndSplineSet
EndChar

StartChar: logicalnot
Encoding: 172 172 169
Width: 484
Flags: HMW
HStem: 137 21G<368 419 368 368> 249 57<69 425 79 415> 286 20G<79 425 398 449 425 425 449 449>
LayerCount: 2
Fore
SplineSet
419 137 m 1,0,-1
 368 137 l 1,1,-1
 398 306 l 1,2,-1
 449 306 l 1,3,-1
 419 137 l 1,0,-1
69 249 m 1,4,-1
 79 306 l 1,5,-1
 425 306 l 1,6,-1
 415 249 l 1,7,-1
 69 249 l 1,4,-1
EndSplineSet
EndChar

StartChar: u
Encoding: 117 117 170
Width: 516
Flags: HMW
HStem: -17 56<136.5 143> -12 21G<334 336> 442 20G<199 201> 446 20G<457 461>
VStem: 55 67<56 101> 319 57<8 92.5>
LayerCount: 2
Fore
SplineSet
336 -12 m 1,0,1
 319 -12 319 -12 319 23 c 0,2,3
 319 78 319 78 340 201 c 1,4,5
 264 78 264 78 212 30.5 c 128,-1,6
 160 -17 160 -17 117 -17 c 0,7,8
 88 -17 88 -17 71.5 9 c 128,-1,9
 55 35 55 35 55 75.5 c 128,-1,10
 55 116 55 116 68.5 176.5 c 128,-1,11
 82 237 82 237 128 394 c 1,12,13
 81 399 81 399 48 424 c 1,14,-1
 54 443 l 1,15,-1
 199 462 l 1,16,17
 208 462 208 462 208 427 c 1,18,19
 174 342 174 342 148 234 c 128,-1,20
 122 126 122 126 122 67 c 0,21,22
 122 39 122 39 144 39 c 0,23,24
 201 39 201 39 356 294 c 1,25,26
 367 357 367 357 386 451 c 1,27,28
 426 466 426 466 461 466 c 1,29,-1
 476 457 l 1,30,31
 440 378 440 378 408 246.5 c 128,-1,32
 376 115 376 115 376 53 c 1,33,34
 440 46 440 46 466 26 c 1,35,-1
 460 7 l 1,36,-1
 336 -12 l 1,0,1
EndSplineSet
EndChar

StartChar: asciitilde
Encoding: 126 126 171
Width: 484
Flags: HMW
HStem: 238 56<328.5 358> 263 31 263 56<173 203> 301 20G<434 434>
LayerCount: 2
Fore
SplineSet
434 321 m 1,0,-1
 448 284 l 1,1,2
 401 238 401 238 341 238 c 0,3,4
 312 238 312 238 257 250.5 c 128,-1,5
 202 263 202 263 168 263 c 0,6,7
 134 263 134 263 101 238 c 1,8,-1
 85 275 l 1,9,10
 130 319 130 319 191 319 c 0,11,12
 220 319 220 319 274.5 306.5 c 128,-1,13
 329 294 329 294 362 294 c 0,14,15
 395 294 395 294 434 321 c 1,0,-1
EndSplineSet
EndChar

StartChar: a
Encoding: 97 97 172
Width: 498
Flags: HMW
HStem: -12 56<119.5 123.5> 390 20G<217 290> 441 20G<417 423.5> 447 20G<308 319.5>
VStem: 35 67<69 152.5 69 211.5> 301 57<8 92.5>
LayerCount: 2
Fore
SplineSet
318 -12 m 1,0,1
 301 -12 301 -12 301 23 c 0,2,3
 301 80 301 80 324 213 c 1,4,5
 246 85 246 85 193.5 36.5 c 128,-1,6
 141 -12 141 -12 97 -12 c 0,7,8
 68 -12 68 -12 51.5 14 c 128,-1,9
 35 40 35 40 35 82 c 0,10,11
 35 174 35 174 61 246.5 c 128,-1,12
 87 319 87 319 130 362.5 c 0,13,14
 208.778625954 442.194656489 208.778625954 442.194656489 308 467 c 1,15,16
 328.210526316 467 328.210526316 467 365.605263158 452.5 c 128,-1,17
 403 438 403 438 407 437 c 1,18,-1
 417 461 l 1,19,20
 439 461 439 461 458 457 c 1,21,22
 422 378 422 378 390 246.5 c 128,-1,23
 358 115 358 115 358 53 c 1,24,25
 422 46 422 46 448 26 c 1,26,-1
 442 7 l 1,27,-1
 318 -12 l 1,0,1
102 80 m 0,28,29
 102 44 102 44 127 44 c 0,30,31
 183 44 183 44 341 308 c 1,32,-1
 359 401 l 1,33,34
 309 410 309 410 276 410 c 0,35,36
 220 410 220 410 179 356.5 c 0,37,38
 102 256.024390244 102 256.024390244 102 80 c 0,28,29
EndSplineSet
EndChar

StartChar: section
Encoding: 167 167 173
Width: 427
Flags: HMW
HStem: -85 50<126.5 168.5 126.5 195> 523 20G<377 381> 662 50<258.5 300.5>
VStem: 84 65 97 52 278 52 278 65
LayerCount: 2
Fore
SplineSet
259 367 m 1,0,-1
 195 418 l 2,1,2
 144 459 144 459 114 495 c 128,-1,3
 84 531 84 531 84 568 c 0,4,5
 84 635 84 635 142 673.5 c 128,-1,6
 200 712 200 712 291 712 c 0,7,8
 347 712 347 712 407 697 c 1,9,-1
 381 543 l 1,10,11
 339 543 339 543 339 557 c 2,12,-1
 339 658 l 1,13,14
 320 662 320 662 292 662 c 0,15,16
 235 662 235 662 192.5 637.5 c 128,-1,17
 150 613 150 613 149 563 c 1,18,19
 156 534 156 534 202 493 c 128,-1,20
 248 452 248 452 289 414.5 c 128,-1,21
 330 377 330 377 330 352 c 0,22,23
 330 294 330 294 274 242 c 1,24,-1
 252 260 l 1,25,26
 273 294 273 294 273 324 c 0,27,28
 273 354 273 354 259 367 c 1,0,-1
153 384 m 1,29,-1
 175 366 l 1,30,31
 153 328 153 328 153 299 c 0,32,33
 153 270 153 270 168 259 c 2,34,-1
 232 209 l 2,35,36
 343 122 343 122 343 57 c 0,37,38
 343 -8 343 -8 285 -46.5 c 128,-1,39
 227 -85 227 -85 136 -85 c 0,40,41
 80 -85 80 -85 20 -70 c 1,42,-1
 46 84 l 1,43,44
 88 84 88 84 88 70 c 2,45,-1
 88 -31 l 1,46,47
 107 -35 107 -35 135 -35 c 0,48,49
 192 -35 192 -35 234.5 -10.5 c 128,-1,50
 277 14 277 14 278 64 c 1,51,52
 271 93 271 93 225 134 c 128,-1,53
 179 175 179 175 138 212.5 c 128,-1,54
 97 250 97 250 97 275 c 0,55,56
 97 332 97 332 153 384 c 1,29,-1
EndSplineSet
EndChar

StartChar: d
Encoding: 100 100 174
Width: 485
Flags: HMW
HStem: -12 56<119.5 123.5> 390 20G<217 290.5> 447 20G<308 315> 742 20G<497 501>
VStem: 35 67<69 152.5 69 211.5> 301 57<8 92.5>
LayerCount: 2
Fore
SplineSet
318 -12 m 1,0,1
 301 -12 301 -12 301 23 c 0,2,3
 301 82 301 82 324 213 c 1,4,5
 246 85 246 85 193.5 36.5 c 128,-1,6
 141 -12 141 -12 97 -12 c 0,7,8
 68 -12 68 -12 51.5 14 c 128,-1,9
 35 40 35 40 35 82 c 0,10,11
 35 174 35 174 61 246.5 c 128,-1,12
 87 319 87 319 130 362.5 c 0,13,14
 208.778625954 442.194656489 208.778625954 442.194656489 308 467 c 1,15,16
 324 467 324 467 370 451 c 1,17,18
 421 704 421 704 428 747 c 1,19,20
 467 762 467 762 501 762 c 1,21,-1
 516 753 l 1,22,23
 481 676 481 676 419.5 396.5 c 128,-1,24
 358 117 358 117 358 53 c 1,25,26
 422 46 422 46 448 26 c 1,27,-1
 442 7 l 1,28,-1
 318 -12 l 1,0,1
102 80 m 0,29,30
 102 44 102 44 127 44 c 0,31,32
 183 44 183 44 342 308 c 1,33,-1
 360 401 l 1,34,35
 310 410 310 410 276 410 c 0,36,37
 220 410 220 410 179 356.5 c 0,38,39
 102 256.024390244 102 256.024390244 102 80 c 0,29,30
EndSplineSet
EndChar

StartChar: i
Encoding: 105 105 175
Width: 244
Flags: HMW
HStem: -12 21G<65 67> 446 20G<185 189>
VStem: 153 94<570 637.5>
LayerCount: 2
Fore
SplineSet
222 662 m 0,0,1
 247 662 247 662 247 628 c 0,2,3
 247 602 247 602 238 579 c 128,-1,4
 229 556 229 556 228 556 c 0,5,6
 198 547 198 547 179 547 c 0,7,8
 153 547 153 547 153 579 c 0,9,10
 153 609.4 153 609.4 167 643 c 2,11,-1
 172 655 l 1,12,13
 204 662 204 662 222 662 c 0,0,1
67 -12 m 1,14,15
 50 -12 50 -12 50 23 c 0,16,17
 50 106 50 106 125 451 c 1,18,19
 164 466 164 466 189 466 c 1,20,-1
 204 457 l 1,21,22
 172 377 172 377 139.5 239.5 c 128,-1,23
 107 102 107 102 107 53 c 1,24,25
 171 46 171 46 197 26 c 1,26,-1
 191 7 l 1,27,-1
 67 -12 l 1,14,15
EndSplineSet
EndChar

StartChar: s
Encoding: 115 115 176
Width: 358
Flags: HMW
HStem: -12 42<149 186.5 149 198.5> 391 20G<180 230.5> 448 20G<250 257.5>
VStem: 71 55<342 366 342 366> 247 66<77.5 116>
LayerCount: 2
Fore
SplineSet
250 468 m 1,0,1
 265 468 265 468 343 442 c 1,2,-1
 328 396 l 1,3,4
 247 411 247 411 207.5 411 c 128,-1,5
 168 411 168 411 147 393.5 c 128,-1,6
 126 376 126 376 126 349 c 128,-1,7
 126 322 126 322 150 303 c 1,8,-1
 249 219 l 2,9,10
 284 189 284 189 298.5 168 c 128,-1,11
 313 147 313 147 313 118 c 0,12,13
 313 56 313 56 268 22 c 128,-1,14
 223 -12 223 -12 152 -12 c 128,-1,15
 81 -12 81 -12 10 14 c 1,16,-1
 40 140 l 1,17,-1
 59 136 l 1,18,19
 68 91 68 91 71 47 c 1,20,21
 117 30 117 30 159 30 c 0,22,23
 247 30 247 30 247 104 c 0,24,25
 247 132 247 132 207 167 c 2,26,-1
 125 237 l 2,27,28
 105 254 105 254 96 263.5 c 0,29,30
 71 289.888888889 71 289.888888889 71 327 c 0,31,32
 71 382 71 382 127.5 421.5 c 128,-1,33
 184 461 184 461 250 468 c 1,0,1
EndSplineSet
EndChar

StartChar: b
Encoding: 98 98 177
Width: 485
Flags: HMW
HStem: -12 21G<161.5 172> 411 56<356 360.5> 742 20G<229 231>
VStem: 163 75<690.5 694> 378 67<302.5 386>
LayerCount: 2
Fore
SplineSet
238 727 m 0,0,1
 238 652 238 652 147 255 c 1,2,3
 230 376 230 376 284 421.5 c 128,-1,4
 338 467 338 467 383 467 c 0,5,6
 412 467 412 467 428.5 441 c 128,-1,7
 445 415 445 415 445 373 c 0,8,9
 445 281 445 281 419 208.5 c 128,-1,10
 393 136 393 136 350 92.5 c 0,11,12
 271.221374046 12.8053435115 271.221374046 12.8053435115 172 -12 c 1,13,14
 147 -12 147 -12 22 27 c 1,15,16
 68 133 68 133 115.5 368.5 c 128,-1,17
 163 604 163 604 163 694 c 1,18,19
 116 699 116 699 83 724 c 1,20,-1
 89 743 l 1,21,-1
 229 762 l 1,22,23
 238 762 238 762 238 727 c 0,0,1
378 375 m 0,24,25
 378 411 378 411 353 411 c 0,26,27
 298 411 298 411 140 191 c 1,28,-1
 110 55 l 1,29,30
 172 45 172 45 204 45 c 0,31,32
 260 45 260 45 301 98.5 c 0,33,34
 378 198.975609756 378 198.975609756 378 375 c 0,24,25
EndSplineSet
EndChar

StartChar: m
Encoding: 109 109 178
Width: 763
Flags: HMW
HStem: -12 21G<55 58.5 301 304 546 548> 412 56<363.5 366.5 607.5 608.5> 436 20G<186 188>
VStem: 136 59<348.5 436> 384 67<365 395> 626 67<350 395>
LayerCount: 2
Fore
SplineSet
130 3 m 1,0,1
 88 -12 88 -12 55 -12 c 1,2,-1
 40 -3 l 1,3,4
 76 76 76 76 106 201 c 128,-1,5
 136 326 136 326 136 388 c 1,6,7
 89 393 89 393 56 418 c 1,8,-1
 62 437 l 1,9,-1
 186 456 l 1,10,11
 195 456 195 456 195 414 c 128,-1,12
 195 372 195 372 175 252 c 1,13,14
 248 375 248 375 297.5 421.5 c 128,-1,15
 347 468 347 468 383 468 c 0,16,17
 451 468 451 468 451 374 c 0,18,19
 451 348 451 348 442 292 c 1,20,21
 504 391 504 391 548.5 429.5 c 128,-1,22
 593 468 593 468 627 468 c 128,-1,23
 661 468 661 468 677 442 c 128,-1,24
 693 416 693 416 693 378 c 128,-1,25
 693 340 693 340 678.5 282 c 128,-1,26
 664 224 664 224 613 53 c 1,27,28
 663 44 663 44 688 27 c 1,29,-1
 682 8 l 1,30,-1
 548 -12 l 1,31,32
 531 -12 531 -12 531 23 c 1,33,34
 569 103 569 103 597.5 213 c 128,-1,35
 626 323 626 323 626 384 c 0,36,37
 626 412 626 412 601 412 c 0,38,39
 550 412 550 412 418 189 c 1,40,41
 399 113 399 113 360 3 c 1,42,43
 327 -12 327 -12 301 -12 c 1,44,-1
 286 -3 l 1,45,46
 323 77 323 77 353.5 200 c 128,-1,47
 384 323 384 323 384 384 c 0,48,49
 384 412 384 412 359 412 c 0,50,51
 305 412 305 412 159 160 c 1,52,53
 143 68 143 68 130 3 c 1,0,1
EndSplineSet
EndChar

StartChar: o
Encoding: 111 111 179
Width: 449
Flags: HMW
HStem: -12 48<136.5 194.5> 426 42<246.5 307.5>
VStem: 30 64<100 222 100 260.5> 355 64<238.5 360.5>
LayerCount: 2
Fore
SplineSet
386.5 430 m 128,-1,1
 419 392 419 392 419 321 c 128,-1,2
 419 250 419 250 399 190.5 c 128,-1,3
 379 131 379 131 349.5 94.5 c 128,-1,4
 320 58 320 58 282.5 33 c 0,5,6
 215 -12 215 -12 154 -12 c 128,-1,7
 93 -12 93 -12 61.5 26.5 c 128,-1,8
 30 65 30 65 30 135.5 c 128,-1,9
 30 206 30 206 49 265.5 c 128,-1,10
 68 325 68 325 97 361.5 c 128,-1,11
 126 398 126 398 161.5 423 c 0,12,13
 225.4 468 225.4 468 289.7 468 c 128,-1,0
 354 468 354 468 386.5 430 c 128,-1,1
286 426 m 0,14,15
 208 426 208 426 151 344.5 c 128,-1,16
 94 263 94 263 94 130 c 0,17,18
 94 36 94 36 158 36 c 0,19,20
 231 36 231 36 293 118.5 c 128,-1,21
 355 201 355 201 355 330 c 0,22,23
 355 376 355 376 336.5 401 c 128,-1,24
 318 426 318 426 286 426 c 0,14,15
EndSplineSet
EndChar

StartChar: l
Encoding: 108 108 180
Width: 234
Flags: HMW
HStem: -12 21G<55 57> 742 20G<246 250>
VStem: 40 57<53 91>
LayerCount: 2
Fore
SplineSet
57 -12 m 1,0,1
 40 -12 40 -12 40 23 c 0,2,3
 40 104 40 104 107 415.5 c 128,-1,4
 174 727 174 727 177 747 c 1,5,6
 216 762 216 762 250 762 c 1,7,-1
 265 753 l 1,8,9
 227 676 227 676 162 396.5 c 128,-1,10
 97 117 97 117 97 53 c 1,11,12
 161 46 161 46 187 26 c 1,13,-1
 181 7 l 1,14,-1
 57 -12 l 1,0,1
EndSplineSet
EndChar

StartChar: q
Encoding: 113 113 181
Width: 470
Flags: HMW
HStem: -262 21G<260 262> -12 56<124.5 128.5> 390 20G<222 297> 447 20G<313 325.5>
VStem: 40 67<69 152.5 69 211.5>
LayerCount: 2
Fore
SplineSet
262 -262 m 1,0,1
 245 -262 245 -262 245 -227 c 0,2,3
 245 -198.083333333 245 -198.083333333 334 195 c 1,4,5
 253 77 253 77 199.5 32.5 c 128,-1,6
 146 -12 146 -12 102 -12 c 0,7,8
 73 -12 73 -12 56.5 14 c 128,-1,9
 40 40 40 40 40 82 c 0,10,11
 40 174 40 174 66 246.5 c 128,-1,12
 92 319 92 319 135 362.5 c 0,13,14
 213.778625954 442.194656489 213.778625954 442.194656489 313 467 c 1,15,16
 342 467 342 467 450 431 c 1,17,18
 420 356 420 356 375.5 120.5 c 128,-1,19
 331 -115 331 -115 322 -197 c 1,20,21
 372 -206 372 -206 397 -223 c 1,22,-1
 391 -242 l 1,23,-1
 262 -262 l 1,0,1
107 80 m 0,24,25
 107 44 107 44 132 44 c 0,26,27
 188 44 188 44 351 272 c 1,28,29
 370 365 370 365 375 399 c 1,30,31
 316 410 316 410 281 410 c 0,32,33
 225 410 225 410 184 356.5 c 0,34,35
 107 256.024390244 107 256.024390244 107 80 c 0,24,25
EndSplineSet
EndChar

StartChar: h
Encoding: 104 104 182
Width: 513
Flags: HMW
HStem: -12 21G<37 41 296 298> 412 56<354.5 358.5> 742 20G<242 244>
VStem: 176 75<691 694> 376 67<350 392>
LayerCount: 2
Fore
SplineSet
363 53 m 1,0,1
 416 43 416 43 438 27 c 1,2,-1
 432 8 l 1,3,-1
 298 -12 l 1,4,5
 281 -12 281 -12 281 23 c 1,6,7
 319 102 319 102 347.5 211 c 128,-1,8
 376 320 376 320 376 378 c 0,9,10
 376 412 376 412 351 412 c 0,11,12
 296 412 296 412 149 169 c 1,13,-1
 112 3 l 1,14,15
 72 -12 72 -12 37 -12 c 1,16,-1
 22 -3 l 1,17,18
 70 90 70 90 123 344 c 128,-1,19
 176 598 176 598 176 694 c 1,20,21
 129 699 129 699 96 724 c 1,22,-1
 102 743 l 1,23,-1
 242 762 l 1,24,25
 251 762 251 762 251 727 c 0,26,27
 251 650 251 650 160 253 c 1,28,29
 235 375 235 375 286.5 421.5 c 128,-1,30
 338 468 338 468 381 468 c 0,31,32
 410 468 410 468 426.5 442 c 128,-1,33
 443 416 443 416 443 378 c 128,-1,34
 443 340 443 340 428.5 282 c 128,-1,35
 414 224 414 224 363 53 c 1,0,1
EndSplineSet
EndChar

StartChar: p
Encoding: 112 112 183
Width: 499
Flags: HMW
HStem: -262 21G<0 4> -11 21G<178.5 186> 412 56<370.5 374.5> 436 20G<184 186>
VStem: 135 58<348.5 436> 392 67<303.5 387>
LayerCount: 2
Fore
SplineSet
75 -247 m 1,0,1
 36 -262 36 -262 0 -262 c 1,2,-1
 -15 -253 l 1,3,4
 21 -175 21 -175 78 75 c 128,-1,5
 135 325 135 325 135 388 c 1,6,7
 87 393 87 393 54 418 c 1,8,-1
 60 437 l 1,9,-1
 184 456 l 1,10,11
 193 456 193 456 193 413.5 c 128,-1,12
 193 371 193 371 172 247 c 1,13,14
 249 372 249 372 301 420 c 128,-1,15
 353 468 353 468 397 468 c 0,16,17
 426 468 426 468 442.5 442 c 128,-1,18
 459 416 459 416 459 374 c 0,19,20
 459 282 459 282 433 209.5 c 128,-1,21
 407 137 407 137 364 93.5 c 0,22,23
 285.221374046 13.8053435115 285.221374046 13.8053435115 186 -11 c 1,24,25
 170 -11 170 -11 124 5 c 1,26,27
 81 -206 81 -206 75 -247 c 1,0,1
392 376 m 0,28,29
 392 412 392 412 367 412 c 0,30,31
 311 412 311 412 154 151 c 1,32,-1
 135 54 l 1,33,34
 189 46 189 46 218 46 c 0,35,36
 274 46 274 46 315 99.5 c 0,37,38
 392 199.975609756 392 199.975609756 392 376 c 0,28,29
EndSplineSet
EndChar

StartChar: t
Encoding: 116 116 184
Width: 295
Flags: HMW
HStem: -12 21G<87 89> 408 43<214 296 202 315> 590 20G<244 248>
LayerCount: 2
Fore
SplineSet
89 -12 m 1,0,1
 72 -12 72 -12 72 20.5 c 128,-1,2
 72 53 72 53 90 165 c 128,-1,3
 108 277 108 277 136 408 c 1,4,-1
 66 408 l 2,5,6
 55 408 55 408 55 420 c 128,-1,7
 55 432 55 432 57 442 c 1,8,-1
 147 457 l 1,9,10
 170 560 170 560 179 595 c 1,11,12
 218 610 218 610 248 610 c 1,13,-1
 263 601 l 1,14,15
 246 560 246 560 214 451 c 1,16,-1
 315 451 l 1,17,18
 315 441 315 441 310 424.5 c 128,-1,19
 305 408 305 408 296 408 c 2,20,-1
 202 408 l 1,21,22
 129 141 129 141 129 53 c 1,23,24
 155 53 155 53 197 45.5 c 128,-1,25
 239 38 239 38 249 30 c 1,26,-1
 243 11 l 1,27,-1
 89 -12 l 1,0,1
EndSplineSet
EndChar

StartChar: r
Encoding: 114 114 185
Width: 363
Flags: HMW
HStem: -12 21G<55 59> 436 20G<186 188> 448 20G
VStem: 136 59<348.5 436>
LayerCount: 2
Fore
SplineSet
55 -12 m 1,0,-1
 40 -3 l 1,1,2
 76 76 76 76 106 201 c 128,-1,3
 136 326 136 326 136 388 c 1,4,5
 89 393 89 393 56 418 c 1,6,-1
 62 437 l 1,7,-1
 186 456 l 1,8,9
 195 456 195 456 195 417 c 0,10,11
 195 378 195 378 177 260 c 1,12,-1
 209 321 l 2,13,14
 250 398 250 398 284.5 427 c 128,-1,15
 319 456 319 456 363 468 c 1,16,17
 378 433 378 433 378 405 c 1,18,-1
 369 390 l 1,19,20
 317 390 317 390 298 382 c 128,-1,21
 279 374 279 374 262 345 c 2,22,-1
 163 177 l 1,23,-1
 130 3 l 1,24,25
 90 -12 90 -12 55 -12 c 1,0,-1
EndSplineSet
EndChar

StartChar: f
Encoding: 102 102 186
Width: 268
Flags: HMW
HStem: -194 21G<15 15> 408 43<193 295 185 314> 699 21G<282.5 340> 742 20G<355 367>
LayerCount: 2
Fore
SplineSet
431 684 m 1,0,1
 347 699 347 699 320 699 c 128,-1,2
 293 699 293 699 272 679 c 128,-1,3
 251 659 251 659 236 619.5 c 0,4,5
 212.279069767 557.034883721 212.279069767 557.034883721 193 451 c 1,6,-1
 314 451 l 1,7,8
 314 442 314 442 308.5 425 c 128,-1,9
 303 408 303 408 295 408 c 2,10,-1
 185 408 l 1,11,-1
 119 52 l 1,12,-1
 52 -189 l 1,13,-1
 15 -194 l 1,14,-1
 119 408 l 1,15,-1
 60 408 l 2,16,17
 49 408 49 408 49 420 c 128,-1,18
 49 432 49 432 51 442 c 1,19,-1
 127 455 l 1,20,21
 154 601 154 601 211 671 c 128,-1,22
 268 741 268 741 355 762 c 1,23,24
 375.117647059 762 375.117647059 762 411.058823529 749 c 128,-1,25
 447 736 447 736 448 736 c 2,26,-1
 431 684 l 1,0,1
EndSplineSet
EndChar

StartChar: c
Encoding: 99 99 187
Width: 366
Flags: HMW
HStem: -12 56<142.5 181.5> 391 20G<202.5 270> 448 20G<283 294.5>
VStem: 40 67<97 184.5 97 237.5>
LayerCount: 2
Fore
SplineSet
241.5 31.5 m 128,-1,1
 195 -12 195 -12 143.5 -12 c 128,-1,2
 92 -12 92 -12 66 25 c 128,-1,3
 40 62 40 62 40 133 c 128,-1,4
 40 204 40 204 63 269 c 128,-1,5
 86 334 86 334 124 373.5 c 0,6,7
 194.681782643 446.97185301 194.681782643 446.97185301 283 468 c 1,8,9
 294 468 294 468 376 442 c 1,10,-1
 361 396 l 1,11,12
 277 411 277 411 251 411 c 0,13,14
 184 411 184 411 145.5 320 c 128,-1,15
 107 229 107 229 107 120 c 0,16,17
 107 44 107 44 163 44 c 0,18,19
 195 44 195 44 233 74.5 c 128,-1,20
 271 105 271 105 297 149 c 1,21,-1
 319 127 l 1,22,0
 288 75 288 75 241.5 31.5 c 128,-1,1
EndSplineSet
EndChar

StartChar: e
Encoding: 101 101 188
Width: 398
Flags: HMW
HStem: -12 56<142.5 185.5> 416 52<267 284.5>
VStem: 40 67<97 135 97 257> 317 66<362.5 406>
LayerCount: 2
Fore
SplineSet
225 223 m 2,0,-1
 114 212 l 1,1,2
 107 170 107 170 107 120 c 0,3,4
 107 44 107 44 163 44 c 0,5,6
 198 44 198 44 240 74.5 c 128,-1,7
 282 105 282 105 312 149 c 1,8,-1
 334 127 l 1,9,10
 242 -12 242 -12 139 -12 c 0,11,12
 92 -12 92 -12 66 25 c 128,-1,13
 40 62 40 62 40 130.5 c 128,-1,14
 40 199 40 199 61 261.5 c 128,-1,15
 82 324 82 324 112.5 361 c 128,-1,16
 143 398 143 398 180.5 423.5 c 0,17,18
 245.941176471 468 245.941176471 468 298 468 c 0,19,20
 327 468 327 468 355 449.5 c 128,-1,21
 383 431 383 431 383 407 c 0,22,23
 383 337 383 337 337.5 283.5 c 128,-1,24
 292 230 292 230 225 223 c 2,0,-1
317 400 m 0,25,26
 317 409 317 409 306 412.5 c 128,-1,27
 295 416 295 416 263 416 c 0,28,29
 213 416 213 416 177.5 372 c 128,-1,30
 142 328 142 328 123 256 c 1,31,-1
 191 256 l 2,32,33
 246 256 246 256 281.5 299 c 128,-1,34
 317 342 317 342 317 400 c 0,25,26
EndSplineSet
EndChar

StartChar: fi
Encoding: 64257 64257 189
Width: 492
Flags: HMW
HStem: -194 21G<15 15> -12 21G<312.5 315> 408 43<193 364 185 373> 468 20G<441 445> 699 21G<282.5 343> 742 20G<355 370>
LayerCount: 2
Fore
SplineSet
364 408 m 1,0,-1
 185 408 l 1,1,-1
 119 52 l 1,2,-1
 52 -189 l 1,3,-1
 15 -194 l 1,4,-1
 119 408 l 1,5,-1
 60 408 l 2,6,7
 49 408 49 408 49 420 c 128,-1,8
 49 432 49 432 51 442 c 1,9,-1
 127 455 l 1,10,11
 154 601 154 601 211 671 c 128,-1,12
 268 741 268 741 355 762 c 1,13,14
 375.7 762 375.7 762 401.35 752.5 c 128,-1,15
 427 743 427 743 445.5 736.5 c 128,-1,16
 464 730 464 730 468 728 c 1,17,-1
 451 679 l 1,18,19
 347 699 347 699 320 699 c 128,-1,20
 293 699 293 699 272 679 c 128,-1,21
 251 659 251 659 236 619.5 c 0,22,23
 212.279069767 557.034883721 212.279069767 557.034883721 193 451 c 1,24,-1
 373 451 l 1,25,26
 418 488 418 488 445 488 c 1,27,-1
 460 479 l 1,28,29
 428 398 428 398 391.5 249.5 c 128,-1,30
 355 101 355 101 355 53 c 1,31,32
 419 46 419 46 445 26 c 1,33,-1
 439 7 l 1,34,-1
 315 -12 l 1,35,36
 298 -12 298 -12 298 23 c 0,37,38
 298 99 298 99 364 408 c 1,0,-1
EndSplineSet
Ligature2: "'liga' Standard Ligatures in Latin lookup 0 subtable" f i
EndChar

StartChar: fl
Encoding: 64258 64258 190
Width: 500
Flags: HMW
HStem: -194 21G<15 15> -12 21G<321 323> 408 43<193 295 185 314> 699 21G<282.5 340> 742 20G<355 367 512 516>
VStem: 306 57<53 91>
LayerCount: 2
Fore
SplineSet
431 684 m 1,0,1
 347 699 347 699 320 699 c 128,-1,2
 293 699 293 699 272 679 c 128,-1,3
 251 659 251 659 236 619.5 c 0,4,5
 212.279069767 557.034883721 212.279069767 557.034883721 193 451 c 1,6,-1
 314 451 l 1,7,8
 314 442 314 442 308.5 425 c 128,-1,9
 303 408 303 408 295 408 c 2,10,-1
 185 408 l 1,11,-1
 119 52 l 1,12,-1
 52 -189 l 1,13,-1
 15 -194 l 1,14,-1
 119 408 l 1,15,-1
 60 408 l 2,16,17
 49 408 49 408 49 420 c 128,-1,18
 49 432 49 432 51 442 c 1,19,-1
 127 455 l 1,20,21
 154 601 154 601 211 671 c 128,-1,22
 268 741 268 741 355 762 c 1,23,24
 375.117647059 762 375.117647059 762 411.058823529 749 c 128,-1,25
 447 736 447 736 448 736 c 2,26,-1
 431 684 l 1,0,1
323 -12 m 1,27,28
 306 -12 306 -12 306 23 c 0,29,30
 306 104 306 104 373 415.5 c 128,-1,31
 440 727 440 727 443 747 c 1,32,33
 482 762 482 762 516 762 c 1,34,-1
 531 753 l 1,35,36
 493 676 493 676 428 396.5 c 128,-1,37
 363 117 363 117 363 53 c 1,38,39
 427 46 427 46 453 26 c 1,40,-1
 447 7 l 1,41,-1
 323 -12 l 1,27,28
EndSplineSet
Ligature2: "'liga' Standard Ligatures in Latin lookup 0 subtable" f l
EndChar

StartChar: dotlessi
Encoding: 305 305 191
Width: 244
Flags: HMW
HStem: -12 21G<65 67> 446 20G<185 189>
LayerCount: 2
Fore
SplineSet
67 -12 m 1,0,1
 50 -12 50 -12 50 23 c 0,2,3
 50 106 50 106 125 451 c 1,4,5
 164 466 164 466 189 466 c 1,6,-1
 204 457 l 1,7,8
 172 377 172 377 139.5 239.5 c 128,-1,9
 107 102 107 102 107 53 c 1,10,11
 171 46 171 46 197 26 c 1,12,-1
 191 7 l 1,13,-1
 67 -12 l 1,0,1
EndSplineSet
EndChar

StartChar: acircumflex
Encoding: 226 226 193
Width: 498
Flags: HMW
HStem: -12 56<119.5 123.5> 390 20G<217 290> 441 20G<417 423.5> 447 20G<308 319.5> 504 21G<214 214 432 432> 668 20G<357 365>
VStem: 35 67<69 152.5 69 211.5> 301 57<8 92.5>
LayerCount: 2
Fore
SplineSet
318 -12 m 1,0,1
 301 -12 301 -12 301 23 c 0,2,3
 301 80 301 80 324 213 c 1,4,5
 246 85 246 85 193.5 36.5 c 128,-1,6
 141 -12 141 -12 97 -12 c 0,7,8
 68 -12 68 -12 51.5 14 c 128,-1,9
 35 40 35 40 35 82 c 0,10,11
 35 174 35 174 61 246.5 c 128,-1,12
 87 319 87 319 130 362.5 c 0,13,14
 208.778625954 442.194656489 208.778625954 442.194656489 308 467 c 1,15,16
 328.210526316 467 328.210526316 467 365.605263158 452.5 c 128,-1,17
 403 438 403 438 407 437 c 1,18,-1
 417 461 l 1,19,20
 439 461 439 461 458 457 c 1,21,22
 422 378 422 378 390 246.5 c 128,-1,23
 358 115 358 115 358 53 c 1,24,25
 422 46 422 46 448 26 c 1,26,-1
 442 7 l 1,27,-1
 318 -12 l 1,0,1
102 80 m 0,28,29
 102 44 102 44 127 44 c 0,30,31
 183 44 183 44 341 308 c 1,32,-1
 359 401 l 1,33,34
 309 410 309 410 276 410 c 0,35,36
 220 410 220 410 179 356.5 c 0,37,38
 102 256.024390244 102 256.024390244 102 80 c 0,28,29
337 685 m 1,39,-1
 361 688 l 1,40,41
 373 688 373 688 385 685 c 1,42,-1
 451 518 l 1,43,-1
 432 504 l 1,44,45
 382 563 382 563 353 608 c 1,46,47
 316 576 316 576 214 504 c 1,48,-1
 195 521 l 1,49,50
 256 580 256 580 337 685 c 1,39,-1
EndSplineSet
EndChar

StartChar: agrave
Encoding: 224 224 195
Width: 498
Flags: HMW
HStem: -12 56<119.5 123.5> 390 20G<217 290> 441 20G<417 423.5> 447 20G<308 319.5> 514 21G<359 359> 694 20G
VStem: 35 67<69 152.5 69 211.5> 301 57<8 92.5>
LayerCount: 2
Fore
SplineSet
318 -12 m 1,0,1
 301 -12 301 -12 301 23 c 0,2,3
 301 80 301 80 324 213 c 1,4,5
 246 85 246 85 193.5 36.5 c 128,-1,6
 141 -12 141 -12 97 -12 c 0,7,8
 68 -12 68 -12 51.5 14 c 128,-1,9
 35 40 35 40 35 82 c 0,10,11
 35 174 35 174 61 246.5 c 128,-1,12
 87 319 87 319 130 362.5 c 0,13,14
 208.778625954 442.194656489 208.778625954 442.194656489 308 467 c 1,15,16
 328.210526316 467 328.210526316 467 365.605263158 452.5 c 128,-1,17
 403 438 403 438 407 437 c 1,18,-1
 417 461 l 1,19,20
 439 461 439 461 458 457 c 1,21,22
 422 378 422 378 390 246.5 c 128,-1,23
 358 115 358 115 358 53 c 1,24,25
 422 46 422 46 448 26 c 1,26,-1
 442 7 l 1,27,-1
 318 -12 l 1,0,1
102 80 m 0,28,29
 102 44 102 44 127 44 c 0,30,31
 183 44 183 44 341 308 c 1,32,-1
 359 401 l 1,33,34
 309 410 309 410 276 410 c 0,35,36
 220 410 220 410 179 356.5 c 0,37,38
 102 256.024390244 102 256.024390244 102 80 c 0,28,29
374 530 m 1,39,-1
 359 514 l 1,40,41
 257 578 257 578 204 640 c 1,42,-1
 200 659 l 1,43,44
 203 673 203 673 216.5 690 c 128,-1,45
 230 707 230 707 240 714 c 1,46,47
 296 628 296 628 354.5 554.5 c 2,48,-1
 374 530 l 1,39,-1
EndSplineSet
EndChar

StartChar: atilde
Encoding: 227 227 197
Width: 498
Flags: HMW
HStem: -12 56<119.5 123.5> 390 20G<217 290> 441 20G<417 423.5> 447 20G<308 319.5> 551 62<385.5 411> 580 33 580 62<272 297>
VStem: 35 67<69 152.5 69 211.5> 301 57<8 92.5>
LayerCount: 2
Fore
SplineSet
318 -12 m 1,0,1
 301 -12 301 -12 301 23 c 0,2,3
 301 80 301 80 324 213 c 1,4,5
 246 85 246 85 193.5 36.5 c 128,-1,6
 141 -12 141 -12 97 -12 c 0,7,8
 68 -12 68 -12 51.5 14 c 128,-1,9
 35 40 35 40 35 82 c 0,10,11
 35 174 35 174 61 246.5 c 128,-1,12
 87 319 87 319 130 362.5 c 0,13,14
 208.778625954 442.194656489 208.778625954 442.194656489 308 467 c 1,15,16
 328.210526316 467 328.210526316 467 365.605263158 452.5 c 128,-1,17
 403 438 403 438 407 437 c 1,18,-1
 417 461 l 1,19,20
 439 461 439 461 458 457 c 1,21,22
 422 378 422 378 390 246.5 c 128,-1,23
 358 115 358 115 358 53 c 1,24,25
 422 46 422 46 448 26 c 1,26,-1
 442 7 l 1,27,-1
 318 -12 l 1,0,1
102 80 m 0,28,29
 102 44 102 44 127 44 c 0,30,31
 183 44 183 44 341 308 c 1,32,-1
 359 401 l 1,33,34
 309 410 309 410 276 410 c 0,35,36
 220 410 220 410 179 356.5 c 0,37,38
 102 256.024390244 102 256.024390244 102 80 c 0,28,29
473 642 m 1,39,-1
 492 625 l 1,40,41
 447 551 447 551 396 551 c 0,42,43
 376 551 376 551 336.5 565.5 c 128,-1,44
 297 580 297 580 277 580 c 0,45,46
 239 580 239 580 210 551 c 1,47,-1
 191 568 l 1,48,49
 235 642 235 642 287 642 c 0,50,51
 307 642 307 642 346 627.5 c 128,-1,52
 385 613 385 613 406 613 c 0,53,54
 443 613 443 613 473 642 c 1,39,-1
EndSplineSet
EndChar

StartChar: ecircumflex
Encoding: 234 234 200
Width: 398
Flags: HMW
HStem: -12 56<142.5 185.5> 416 52<267 284.5> 504 21G<176 176 394 394> 668 20G<319 327>
VStem: 40 67<97 135 97 257> 317 66<362.5 406>
LayerCount: 2
Fore
SplineSet
225 223 m 2,0,-1
 114 212 l 1,1,2
 107 170 107 170 107 120 c 0,3,4
 107 44 107 44 163 44 c 0,5,6
 198 44 198 44 240 74.5 c 128,-1,7
 282 105 282 105 312 149 c 1,8,-1
 334 127 l 1,9,10
 242 -12 242 -12 139 -12 c 0,11,12
 92 -12 92 -12 66 25 c 128,-1,13
 40 62 40 62 40 130.5 c 128,-1,14
 40 199 40 199 61 261.5 c 128,-1,15
 82 324 82 324 112.5 361 c 128,-1,16
 143 398 143 398 180.5 423.5 c 0,17,18
 245.941176471 468 245.941176471 468 298 468 c 0,19,20
 327 468 327 468 355 449.5 c 128,-1,21
 383 431 383 431 383 407 c 0,22,23
 383 337 383 337 337.5 283.5 c 128,-1,24
 292 230 292 230 225 223 c 2,0,-1
317 400 m 0,25,26
 317 409 317 409 306 412.5 c 128,-1,27
 295 416 295 416 263 416 c 0,28,29
 213 416 213 416 177.5 372 c 128,-1,30
 142 328 142 328 123 256 c 1,31,-1
 191 256 l 2,32,33
 246 256 246 256 281.5 299 c 128,-1,34
 317 342 317 342 317 400 c 0,25,26
299 685 m 1,35,-1
 323 688 l 1,36,37
 335 688 335 688 347 685 c 1,38,-1
 413 518 l 1,39,-1
 394 504 l 1,40,41
 344 563 344 563 315 608 c 1,42,43
 278 576 278 576 176 504 c 1,44,-1
 157 521 l 1,45,46
 218 580 218 580 299 685 c 1,35,-1
EndSplineSet
EndChar

StartChar: egrave
Encoding: 232 232 202
Width: 398
Flags: HMW
HStem: -12 56<142.5 185.5> 416 52<267 284.5> 514 21G<344 344> 694 20G
VStem: 40 67<97 135 97 257> 317 66<362.5 406>
LayerCount: 2
Fore
SplineSet
225 223 m 2,0,-1
 114 212 l 1,1,2
 107 170 107 170 107 120 c 0,3,4
 107 44 107 44 163 44 c 0,5,6
 198 44 198 44 240 74.5 c 128,-1,7
 282 105 282 105 312 149 c 1,8,-1
 334 127 l 1,9,10
 242 -12 242 -12 139 -12 c 0,11,12
 92 -12 92 -12 66 25 c 128,-1,13
 40 62 40 62 40 130.5 c 128,-1,14
 40 199 40 199 61 261.5 c 128,-1,15
 82 324 82 324 112.5 361 c 128,-1,16
 143 398 143 398 180.5 423.5 c 0,17,18
 245.941176471 468 245.941176471 468 298 468 c 0,19,20
 327 468 327 468 355 449.5 c 128,-1,21
 383 431 383 431 383 407 c 0,22,23
 383 337 383 337 337.5 283.5 c 128,-1,24
 292 230 292 230 225 223 c 2,0,-1
317 400 m 0,25,26
 317 409 317 409 306 412.5 c 128,-1,27
 295 416 295 416 263 416 c 0,28,29
 213 416 213 416 177.5 372 c 128,-1,30
 142 328 142 328 123 256 c 1,31,-1
 191 256 l 2,32,33
 246 256 246 256 281.5 299 c 128,-1,34
 317 342 317 342 317 400 c 0,25,26
359 530 m 1,35,-1
 344 514 l 1,36,37
 242 578 242 578 189 640 c 1,38,-1
 185 659 l 1,39,40
 188 673 188 673 201.5 690 c 128,-1,41
 215 707 215 707 225 714 c 1,42,43
 281 628 281 628 339.5 554.5 c 2,44,-1
 359 530 l 1,35,-1
EndSplineSet
EndChar

StartChar: icircumflex
Encoding: 238 238 204
Width: 244
Flags: HMW
HStem: -12 21G<65 67> 446 20G<185 189> 504 21G<59 59 277 277> 668 20G<202 210>
LayerCount: 2
Fore
SplineSet
67 -12 m 1,0,1
 50 -12 50 -12 50 23 c 0,2,3
 50 106 50 106 125 451 c 1,4,5
 164 466 164 466 189 466 c 1,6,-1
 204 457 l 1,7,8
 172 377 172 377 139.5 239.5 c 128,-1,9
 107 102 107 102 107 53 c 1,10,11
 171 46 171 46 197 26 c 1,12,-1
 191 7 l 1,13,-1
 67 -12 l 1,0,1
182 685 m 1,14,-1
 206 688 l 1,15,16
 218 688 218 688 230 685 c 1,17,-1
 296 518 l 1,18,-1
 277 504 l 1,19,20
 227 563 227 563 198 608 c 1,21,22
 161 576 161 576 59 504 c 1,23,-1
 40 521 l 1,24,25
 101 580 101 580 182 685 c 1,14,-1
EndSplineSet
EndChar

StartChar: igrave
Encoding: 236 236 206
Width: 244
Flags: HMW
HStem: -12 21G<65 67> 446 20G<185 189> 514 21G<229 229> 694 20G
LayerCount: 2
Fore
SplineSet
67 -12 m 1,0,1
 50 -12 50 -12 50 23 c 0,2,3
 50 106 50 106 125 451 c 1,4,5
 164 466 164 466 189 466 c 1,6,-1
 204 457 l 1,7,8
 172 377 172 377 139.5 239.5 c 128,-1,9
 107 102 107 102 107 53 c 1,10,11
 171 46 171 46 197 26 c 1,12,-1
 191 7 l 1,13,-1
 67 -12 l 1,0,1
244 530 m 1,14,-1
 229 514 l 1,15,16
 127 578 127 578 74 640 c 1,17,-1
 70 659 l 1,18,19
 73 673 73 673 86.5 690 c 128,-1,20
 100 707 100 707 110 714 c 1,21,22
 166 628 166 628 224.5 554.5 c 2,23,-1
 244 530 l 1,14,-1
EndSplineSet
EndChar

StartChar: ocircumflex
Encoding: 244 244 209
Width: 449
Flags: HMW
HStem: -12 48<136.5 194.5> 426 42<246.5 307.5> 504 21G<182 182 400 400> 668 20G<325 333>
VStem: 30 64<100 222 100 260.5> 355 64<238.5 360.5>
LayerCount: 2
Fore
SplineSet
386.5 430 m 128,-1,1
 419 392 419 392 419 321 c 128,-1,2
 419 250 419 250 399 190.5 c 128,-1,3
 379 131 379 131 349.5 94.5 c 128,-1,4
 320 58 320 58 282.5 33 c 0,5,6
 215 -12 215 -12 154 -12 c 128,-1,7
 93 -12 93 -12 61.5 26.5 c 128,-1,8
 30 65 30 65 30 135.5 c 128,-1,9
 30 206 30 206 49 265.5 c 128,-1,10
 68 325 68 325 97 361.5 c 128,-1,11
 126 398 126 398 161.5 423 c 0,12,13
 225.4 468 225.4 468 289.7 468 c 128,-1,0
 354 468 354 468 386.5 430 c 128,-1,1
286 426 m 0,14,15
 208 426 208 426 151 344.5 c 128,-1,16
 94 263 94 263 94 130 c 0,17,18
 94 36 94 36 158 36 c 0,19,20
 231 36 231 36 293 118.5 c 128,-1,21
 355 201 355 201 355 330 c 0,22,23
 355 376 355 376 336.5 401 c 128,-1,24
 318 426 318 426 286 426 c 0,14,15
305 685 m 1,25,-1
 329 688 l 1,26,27
 341 688 341 688 353 685 c 1,28,-1
 419 518 l 1,29,-1
 400 504 l 1,30,31
 350 563 350 563 321 608 c 1,32,33
 284 576 284 576 182 504 c 1,34,-1
 163 521 l 1,35,36
 224 580 224 580 305 685 c 1,25,-1
EndSplineSet
EndChar

StartChar: ograve
Encoding: 242 242 211
Width: 449
Flags: HMW
HStem: -12 48<136.5 194.5> 426 42<246.5 307.5> 514 21G<345 345> 694 20G
VStem: 30 64<100 222 100 260.5> 355 64<238.5 360.5>
LayerCount: 2
Fore
SplineSet
386.5 430 m 128,-1,1
 419 392 419 392 419 321 c 128,-1,2
 419 250 419 250 399 190.5 c 128,-1,3
 379 131 379 131 349.5 94.5 c 128,-1,4
 320 58 320 58 282.5 33 c 0,5,6
 215 -12 215 -12 154 -12 c 128,-1,7
 93 -12 93 -12 61.5 26.5 c 128,-1,8
 30 65 30 65 30 135.5 c 128,-1,9
 30 206 30 206 49 265.5 c 128,-1,10
 68 325 68 325 97 361.5 c 128,-1,11
 126 398 126 398 161.5 423 c 0,12,13
 225.4 468 225.4 468 289.7 468 c 128,-1,0
 354 468 354 468 386.5 430 c 128,-1,1
286 426 m 0,14,15
 208 426 208 426 151 344.5 c 128,-1,16
 94 263 94 263 94 130 c 0,17,18
 94 36 94 36 158 36 c 0,19,20
 231 36 231 36 293 118.5 c 128,-1,21
 355 201 355 201 355 330 c 0,22,23
 355 376 355 376 336.5 401 c 128,-1,24
 318 426 318 426 286 426 c 0,14,15
360 530 m 1,25,-1
 345 514 l 1,26,27
 243 578 243 578 190 640 c 1,28,-1
 186 659 l 1,29,30
 189 673 189 673 202.5 690 c 128,-1,31
 216 707 216 707 226 714 c 1,32,33
 282 628 282 628 340.5 554.5 c 2,34,-1
 360 530 l 1,25,-1
EndSplineSet
EndChar

StartChar: scaron
Encoding: 353 353 213
Width: 363
Flags: HMW
HStem: -12 42<164 201.5 164 213.5> 391 20G<195 245.5> 448 20G<265 272.5> 519 21G<223 231> 683 20G<156 156 374 374>
VStem: 86 55<342 366 342 366> 262 66<77.5 116>
LayerCount: 2
Fore
SplineSet
265 468 m 1,0,1
 280 468 280 468 358 442 c 1,2,-1
 343 396 l 1,3,4
 262 411 262 411 222.5 411 c 128,-1,5
 183 411 183 411 162 393.5 c 128,-1,6
 141 376 141 376 141 349 c 128,-1,7
 141 322 141 322 165 303 c 1,8,-1
 264 219 l 2,9,10
 299 189 299 189 313.5 168 c 128,-1,11
 328 147 328 147 328 118 c 0,12,13
 328 56 328 56 283 22 c 128,-1,14
 238 -12 238 -12 167 -12 c 128,-1,15
 96 -12 96 -12 25 14 c 1,16,-1
 55 140 l 1,17,-1
 74 136 l 1,18,19
 83 91 83 91 86 47 c 1,20,21
 132 30 132 30 174 30 c 0,22,23
 262 30 262 30 262 104 c 0,24,25
 262 132 262 132 222 167 c 2,26,-1
 140 237 l 2,27,28
 120 254 120 254 111 263.5 c 0,29,30
 86 289.888888889 86 289.888888889 86 327 c 0,31,32
 86 382 86 382 142.5 421.5 c 128,-1,33
 199 461 199 461 265 468 c 1,0,1
203 522 m 1,34,-1
 137 689 l 1,35,-1
 156 703 l 1,36,37
 206 644 206 644 235 599 c 1,38,39
 272 631 272 631 374 703 c 1,40,-1
 393 686 l 1,41,42
 332 627 332 627 251 522 c 1,43,44
 239 519 239 519 227 519 c 128,-1,45
 215 519 215 519 203 522 c 1,34,-1
EndSplineSet
EndChar

StartChar: ucircumflex
Encoding: 251 251 215
Width: 516
Flags: HMW
HStem: -17 56<136.5 143> -12 21G<334 336> 442 20G<199 201> 446 20G<457 461> 504 21G<210 210 428 428> 668 20G<353 361>
VStem: 55 67<56 101> 319 57<8 92.5>
LayerCount: 2
Fore
SplineSet
336 -12 m 1,0,1
 319 -12 319 -12 319 23 c 0,2,3
 319 78 319 78 340 201 c 1,4,5
 264 78 264 78 212 30.5 c 128,-1,6
 160 -17 160 -17 117 -17 c 0,7,8
 88 -17 88 -17 71.5 9 c 128,-1,9
 55 35 55 35 55 75.5 c 128,-1,10
 55 116 55 116 68.5 176.5 c 128,-1,11
 82 237 82 237 128 394 c 1,12,13
 81 399 81 399 48 424 c 1,14,-1
 54 443 l 1,15,-1
 199 462 l 1,16,17
 208 462 208 462 208 427 c 1,18,19
 174 342 174 342 148 234 c 128,-1,20
 122 126 122 126 122 67 c 0,21,22
 122 39 122 39 144 39 c 0,23,24
 201 39 201 39 356 294 c 1,25,26
 367 357 367 357 386 451 c 1,27,28
 426 466 426 466 461 466 c 1,29,-1
 476 457 l 1,30,31
 440 378 440 378 408 246.5 c 128,-1,32
 376 115 376 115 376 53 c 1,33,34
 440 46 440 46 466 26 c 1,35,-1
 460 7 l 1,36,-1
 336 -12 l 1,0,1
333 685 m 1,37,-1
 357 688 l 1,38,39
 369 688 369 688 381 685 c 1,40,-1
 447 518 l 1,41,-1
 428 504 l 1,42,43
 378 563 378 563 349 608 c 1,44,45
 312 576 312 576 210 504 c 1,46,-1
 191 521 l 1,47,48
 252 580 252 580 333 685 c 1,37,-1
EndSplineSet
EndChar

StartChar: ugrave
Encoding: 249 249 217
Width: 516
Flags: HMW
HStem: -17 56<136.5 143> -12 21G<334 336> 442 20G<199 201> 446 20G<457 461> 514 21G<373 373> 694 20G
VStem: 55 67<56 101> 319 57<8 92.5>
LayerCount: 2
Fore
SplineSet
336 -12 m 1,0,1
 319 -12 319 -12 319 23 c 0,2,3
 319 78 319 78 340 201 c 1,4,5
 264 78 264 78 212 30.5 c 128,-1,6
 160 -17 160 -17 117 -17 c 0,7,8
 88 -17 88 -17 71.5 9 c 128,-1,9
 55 35 55 35 55 75.5 c 128,-1,10
 55 116 55 116 68.5 176.5 c 128,-1,11
 82 237 82 237 128 394 c 1,12,13
 81 399 81 399 48 424 c 1,14,-1
 54 443 l 1,15,-1
 199 462 l 1,16,17
 208 462 208 462 208 427 c 1,18,19
 174 342 174 342 148 234 c 128,-1,20
 122 126 122 126 122 67 c 0,21,22
 122 39 122 39 144 39 c 0,23,24
 201 39 201 39 356 294 c 1,25,26
 367 357 367 357 386 451 c 1,27,28
 426 466 426 466 461 466 c 1,29,-1
 476 457 l 1,30,31
 440 378 440 378 408 246.5 c 128,-1,32
 376 115 376 115 376 53 c 1,33,34
 440 46 440 46 466 26 c 1,35,-1
 460 7 l 1,36,-1
 336 -12 l 1,0,1
388 530 m 1,37,-1
 373 514 l 1,38,39
 271 578 271 578 218 640 c 1,40,-1
 214 659 l 1,41,42
 217 673 217 673 230.5 690 c 128,-1,43
 244 707 244 707 254 714 c 1,44,45
 310 628 310 628 368.5 554.5 c 2,46,-1
 388 530 l 1,37,-1
EndSplineSet
EndChar

StartChar: ydieresis
Encoding: 255 255 219
Width: 409
Flags: HMW
HStem: -262 21G<70 70> 448 20G<139 141.5 403.5 407> 544 21G<171 190.5 307 326.5> 639 20G<215 233 351 369>
VStem: 155 94<567 634.5> 291 94<567 634.5>
LayerCount: 2
Fore
SplineSet
422 459 m 1,0,1
 291 116 291 116 178 -5 c 1,2,-1
 143 -136 l 1,3,4
 143 -194 143 -194 144 -219 c 1,5,6
 104 -258 104 -258 70 -262 c 1,7,-1
 54 -255 l 1,8,9
 85 -129 85 -129 135 -3 c 1,10,-1
 80 400 l 1,11,12
 44 405 44 405 21 430 c 1,13,-1
 27 449 l 1,14,-1
 139 468 l 1,15,16
 149 468 149 468 185 73 c 1,17,18
 219 117 219 117 258 194.5 c 128,-1,19
 297 272 297 272 325 350 c 1,20,21
 332 394 332 394 337 433 c 1,22,23
 378 468 378 468 407 468 c 1,24,-1
 422 459 l 1,0,1
360 659 m 0,25,26
 385 659 385 659 385 625 c 0,27,28
 385 599 385 599 376 576 c 128,-1,29
 367 553 367 553 366 553 c 0,30,31
 336 544 336 544 317 544 c 0,32,33
 291 544 291 544 291 576 c 0,34,35
 291 606.4 291 606.4 305 640 c 2,36,-1
 310 652 l 1,37,38
 342 659 342 659 360 659 c 0,25,26
224 659 m 0,39,40
 249 659 249 659 249 625 c 0,41,42
 249 599 249 599 240 576 c 128,-1,43
 231 553 231 553 230 553 c 0,44,45
 200 544 200 544 181 544 c 0,46,47
 155 544 155 544 155 576 c 0,48,49
 155 606.4 155 606.4 169 640 c 2,50,-1
 174 652 l 1,51,52
 206 659 206 659 224 659 c 0,39,40
EndSplineSet
EndChar

StartChar: zcaron
Encoding: 382 382 220
Width: 419
Flags: HMW
HStem: -12 21G<26 26> 3 41 451 20G<405 405> 519 21G<236 244> 683 20G<169 169 387 387>
LayerCount: 2
Fore
SplineSet
312 405 m 1,0,-1
 122 389 l 1,1,2
 99 420 99 420 91 445 c 1,3,-1
 97 462 l 1,4,5
 152 449 152 449 353 445 c 1,6,-1
 405 471 l 1,7,-1
 424 456 l 1,8,-1
 116 44 l 1,9,10
 286 47 286 47 348 63 c 1,11,-1
 354 46 l 1,12,13
 345 19 345 19 323 -7 c 1,14,15
 309 -6 309 -6 61 3 c 1,16,-1
 26 -12 l 1,17,-1
 10 1 l 1,18,-1
 312 405 l 1,0,-1
216 522 m 1,19,-1
 150 689 l 1,20,-1
 169 703 l 1,21,22
 219 644 219 644 248 599 c 1,23,24
 285 631 285 631 387 703 c 1,25,-1
 406 686 l 1,26,27
 345 627 345 627 264 522 c 1,28,29
 252 519 252 519 240 519 c 128,-1,30
 228 519 228 519 216 522 c 1,19,-1
EndSplineSet
EndChar

StartChar: ae
Encoding: 230 230 221
Width: 614
Flags: HMW
HStem: -12 21G<82 127 322.5 401.5> -12 56<124.5 127 358.5 401.5> 390 20G<222 301.5> 416 52<483 500.5> 447 20G<313 325.5>
VStem: 40 67<69 152.5 69 211.5> 256 67<97 135 97 257> 533 66<362.5 406>
LayerCount: 2
Fore
SplineSet
311 249 m 1,0,-1
 309 180 l 1,1,2
 240 72 240 72 191.5 30 c 128,-1,3
 143 -12 143 -12 108 -12 c 128,-1,4
 73 -12 73 -12 56.5 14 c 128,-1,5
 40 40 40 40 40 82 c 0,6,7
 40 174 40 174 66 246.5 c 128,-1,8
 92 319 92 319 135 362.5 c 0,9,10
 213.778625954 442.194656489 213.778625954 442.194656489 313 467 c 1,11,12
 333.473684211 467 333.473684211 467 373.736842105 452 c 128,-1,13
 414 437 414 437 416 436 c 1,14,-1
 401 395 l 1,15,16
 311 410 311 410 281 410 c 0,17,18
 225 410 225 410 184 356.5 c 0,19,20
 107 256.024390244 107 256.024390244 107 80 c 0,21,22
 107 44 107 44 132 44 c 0,23,24
 182 44 182 44 311 249 c 1,0,-1
441 223 m 2,25,-1
 330 212 l 1,26,27
 323 170 323 170 323 120 c 0,28,29
 323 44 323 44 379 44 c 0,30,31
 414 44 414 44 456 74.5 c 128,-1,32
 498 105 498 105 528 149 c 1,33,-1
 550 127 l 1,34,35
 458 -12 458 -12 355 -12 c 0,36,37
 308 -12 308 -12 282 25 c 128,-1,38
 256 62 256 62 256 130.5 c 128,-1,39
 256 199 256 199 277 261.5 c 128,-1,40
 298 324 298 324 328.5 361 c 128,-1,41
 359 398 359 398 396.5 423.5 c 0,42,43
 461.941176471 468 461.941176471 468 514 468 c 0,44,45
 543 468 543 468 571 449.5 c 128,-1,46
 599 431 599 431 599 407 c 0,47,48
 599 337 599 337 553.5 283.5 c 128,-1,49
 508 230 508 230 441 223 c 2,25,-1
533 400 m 0,50,51
 533 409 533 409 522 412.5 c 128,-1,52
 511 416 511 416 479 416 c 0,53,54
 429 416 429 416 393.5 372 c 128,-1,55
 358 328 358 328 339 256 c 1,56,-1
 407 256 l 2,57,58
 462 256 462 256 497.5 299 c 128,-1,59
 533 342 533 342 533 400 c 0,50,51
EndSplineSet
EndChar

StartChar: oe
Encoding: 339 339 222
Width: 631
Flags: HMW
HStem: -12 56<360.5 403.5> 396 20G<445.5 502.5> 426 42<246.5 300.5>
VStem: 30 64<100 222 100 260.5> 258 67<115 135 97 183> 535 66<362.5 406>
LayerCount: 2
Fore
SplineSet
443 223 m 2,0,-1
 332 212 l 1,1,2
 325 170 325 170 325 120 c 0,3,4
 325 44 325 44 381 44 c 0,5,6
 416 44 416 44 458 74.5 c 128,-1,7
 500 105 500 105 530 149 c 1,8,-1
 552 127 l 1,9,10
 460 -12 460 -12 357 -12 c 0,11,12
 306 -12 306 -12 280 30 c 1,13,14
 214 -12 214 -12 153.5 -12 c 128,-1,15
 93 -12 93 -12 61.5 26.5 c 128,-1,16
 30 65 30 65 30 135.5 c 128,-1,17
 30 206 30 206 49 265.5 c 128,-1,18
 68 325 68 325 97 361.5 c 128,-1,19
 126 398 126 398 161.5 423 c 0,20,21
 225.4 468 225.4 468 292.2 468 c 128,-1,22
 359 468 359 468 393 420 c 1,23,24
 459 468 459 468 516 468 c 0,25,26
 545 468 545 468 573 449.5 c 128,-1,27
 601 431 601 431 601 407 c 0,28,29
 601 337 601 337 555.5 283.5 c 128,-1,30
 510 230 510 230 443 223 c 2,0,-1
258 122 m 0,31,32
 258 282 258 282 347 380 c 1,33,34
 332 426 332 426 286 426 c 0,35,36
 207 426 207 426 150.5 344.5 c 128,-1,37
 94 263 94 263 94 130 c 0,38,39
 94 36 94 36 158 36 c 0,40,41
 213 36 213 36 261 82 c 1,42,43
 258 100 258 100 258 122 c 0,31,32
535 400 m 0,44,45
 535 409 535 409 524 412.5 c 128,-1,46
 513 416 513 416 481 416 c 0,47,48
 431 416 431 416 395.5 372 c 128,-1,49
 360 328 360 328 341 256 c 1,50,-1
 409 256 l 2,51,52
 464 256 464 256 499.5 299 c 128,-1,53
 535 342 535 342 535 400 c 0,44,45
EndSplineSet
EndChar

StartChar: Euro
Encoding: 8364 8364 223
Width: 484
Flags: HMW
HStem: -12 49<228 269.5> 214 37<40 87 33 91 169 305> 251 47<48 91 91 91 177 312 312 312> 481 20G<302 363> 543 20G<355 369>
VStem: 86 77<126 178 126 189>
LayerCount: 2
Fore
SplineSet
312 251 m 1,0,-1
 305 214 l 1,1,-1
 164 214 l 1,2,3
 163 199 163 199 163 172 c 0,4,5
 163 37 163 37 259 37 c 0,6,7
 299 37 299 37 344 62 c 1,8,9
 361 122 361 122 379 161 c 1,10,-1
 403 165 l 1,11,-1
 403 27 l 1,12,13
 327 -12 327 -12 248.5 -12 c 0,14,15
 170 -12 170 -12 128 38 c 128,-1,16
 86 88 86 88 86 184 c 0,17,18
 86 204 86 204 87 214 c 1,19,-1
 33 214 l 1,20,-1
 40 251 l 1,21,-1
 91 251 l 1,22,23
 94 275 94 275 100 298 c 1,24,-1
 48 298 l 1,25,-1
 55 335 l 1,26,-1
 110 335 l 1,27,28
 173 520 173 520 355 563 c 1,29,30
 378 563 378 563 469 534 c 1,31,-1
 454 486 l 1,32,33
 370 501 370 501 344 501 c 0,34,35
 236 501 236 501 186 335 c 1,36,-1
 327 335 l 1,37,-1
 320 298 l 1,38,-1
 177 298 l 1,39,40
 171 275 171 275 169 251 c 1,41,-1
 312 251 l 1,0,-1
EndSplineSet
EndChar

StartChar: hungarumlaut
Encoding: 733 733 224
Width: 400
Flags: HMW
HStem: 502 21G<65 65 265 265> 682 20G
LayerCount: 2
Fore
SplineSet
265 502 m 1,0,-1
 250 518 l 1,1,2
 320 606 320 606 384 702 c 1,3,4
 394 695 394 695 407.5 678 c 128,-1,5
 421 661 421 661 424 647 c 1,6,-1
 420 628 l 1,7,8
 367 566 367 566 265 502 c 1,0,-1
65 502 m 1,9,-1
 50 518 l 1,10,11
 120 606 120 606 184 702 c 1,12,13
 194 695 194 695 207.5 678 c 128,-1,14
 221 661 221 661 224 647 c 1,15,-1
 220 628 l 1,16,17
 167 566 167 566 65 502 c 1,9,-1
EndSplineSet
EndChar

StartChar: breve
Encoding: 728 728 225
Width: 318
Flags: HMW
HStem: 502 64<188.5 222> 633 20G<141 141 302 302>
LayerCount: 2
Fore
SplineSet
141 653 m 1,0,1
 157 566 157 566 205 566 c 128,-1,2
 253 566 253 566 302 653 c 1,3,-1
 332 646 l 1,4,5
 295 571 295 571 264 536.5 c 128,-1,6
 233 502 233 502 194.5 502 c 128,-1,7
 156 502 156 502 137.5 537 c 128,-1,8
 119 572 119 572 110 646 c 1,9,-1
 141 653 l 1,0,1
EndSplineSet
EndChar

StartChar: macron
Encoding: 175 175 226
Width: 400
Flags: HMW
HStem: 558 63<112 390 123 379>
LayerCount: 2
Fore
SplineSet
112 558 m 1,0,-1
 123 621 l 1,1,-1
 390 621 l 1,2,-1
 379 558 l 1,3,-1
 112 558 l 1,0,-1
EndSplineSet
EndChar

StartChar: florin
Encoding: 402 402 227
Width: 484
Flags: HMW
HStem: -231 45<39 75.5 39 84> 263 37<101 197 107 191 265 392> 552 61<354.5 383>
LayerCount: 2
Fore
SplineSet
101 263 m 1,0,-1
 107 300 l 1,1,-1
 197 300 l 1,2,-1
 219 424 l 2,3,4
 233 504 233 504 283.5 558.5 c 128,-1,5
 334 613 334 613 397 613 c 0,6,7
 416 613 416 613 496 585 c 1,8,-1
 480 536 l 1,9,10
 396 552 396 552 363.5 552 c 0,11,12
 331 552 331 552 316.5 530 c 128,-1,13
 302 508 302 508 294 465 c 2,14,-1
 265 300 l 1,15,-1
 398 300 l 1,16,-1
 392 263 l 1,17,-1
 258 263 l 1,18,-1
 198 -82 l 1,19,20
 171 -231 171 -231 47 -231 c 0,21,22
 -10 -231 -10 -231 -44 -202 c 1,23,-1
 -20 -163 l 1,24,25
 8 -186 8 -186 52 -186 c 0,26,27
 113 -186 113 -186 132 -73 c 2,28,-1
 191 263 l 1,29,-1
 101 263 l 1,0,-1
EndSplineSet
EndChar

StartChar: partialdiff
Encoding: 8706 8706 228
Width: 493
Flags: HMW
HStem: -12 49<195 281 195 307.5> 383 50<250 332.5> 692 20G<235 235>
VStem: 43 77<120 206.5 120 231> 406 91<266.5 299>
LayerCount: 2
Fore
SplineSet
198.5 -12 m 0,0,1
 132 -12 132 -12 87.5 32 c 128,-1,2
 43 76 43 76 43 151 c 0,3,4
 43 268 43 268 127.5 350.5 c 128,-1,5
 212 433 212 433 319 433 c 0,6,7
 387 433 387 433 431 398 c 1,8,9
 419 484 419 484 355 550 c 128,-1,10
 291 616 291 616 197 637 c 1,11,-1
 235 712 l 1,12,13
 372 669 372 669 434.5 575.5 c 128,-1,14
 497 482 497 482 497 360.723404255 c 128,-1,15
 497 239.446808511 497 239.446808511 449.716970778 143.874728168 c 0,16,17
 372.6 -12 372.6 -12 198.5 -12 c 0,0,1
229 37 m 0,18,19
 303 37 303 37 354.5 110 c 128,-1,20
 406 183 406 183 406 263 c 0,21,22
 406 318 406 318 377.5 350.5 c 128,-1,23
 349 383 349 383 298 383 c 0,24,25
 222 383 222 383 171 310.5 c 128,-1,26
 120 238 120 238 120 156 c 0,27,28
 120 102 120 102 149 69.5 c 128,-1,29
 178 37 178 37 229 37 c 0,18,19
EndSplineSet
EndChar

StartChar: summation
Encoding: 8721 8721 229
Width: 483
Flags: HMW
HStem: -73 66<106 424 53 435> 639 61<128 552 247 247 247 416>
LayerCount: 2
Fore
SplineSet
562 682 m 1,0,-1
 560 661 l 2,1,2
 560 659.930555556 560 659.930555556 491.5 649.465277778 c 128,-1,3
 423 639 423 639 416 639 c 2,4,-1
 247 639 l 1,5,-1
 374 313 l 1,6,-1
 106 -7 l 1,7,-1
 435 -7 l 1,8,-1
 424 -73 l 1,9,-1
 53 -73 l 1,10,-1
 11 -22 l 1,11,-1
 295 318 l 1,12,-1
 170 639 l 1,13,-1
 128 639 l 2,14,15
 119 639 119 639 119 654.5 c 128,-1,16
 119 670 119 670 121 678 c 1,17,-1
 224 700 l 1,18,-1
 552 700 l 2,19,20
 562 700 562 700 562 682 c 1,0,-1
EndSplineSet
EndChar

StartChar: product
Encoding: 8719 8719 230
Width: 646
Flags: HMW
HStem: 639 61<304 544 304 304 299 616 299 685>
VStem: 448 66<38.5 41 15 73>
LayerCount: 2
Fore
SplineSet
456 132 m 2,0,-1
 544 639 l 1,1,-1
 304 639 l 1,2,-1
 179 -73 l 1,3,-1
 108 -73 l 1,4,-1
 233 639 l 1,5,-1
 163 639 l 2,6,7
 153 639 153 639 153 654.5 c 128,-1,8
 153 670 153 670 155 678 c 0,9,10
 155 679.069444444 155 679.069444444 223.5 689.534722222 c 128,-1,11
 292 700 292 700 299 700 c 2,12,-1
 571 700 l 2,13,14
 580 700 580 700 643 689.5 c 128,-1,15
 706 679 706 679 706 678 c 0,16,17
 701 639 701 639 685 639 c 2,18,-1
 616 639 l 1,19,-1
 526 128 l 2,20,21
 514 64 514 64 514 36.5 c 128,-1,22
 514 9 514 9 532 -66 c 1,23,-1
 500 -86 l 1,24,25
 471 -33 471 -33 459.5 -2.5 c 128,-1,26
 448 28 448 28 448 58.5 c 128,-1,27
 448 89 448 89 456 132 c 2,0,-1
EndSplineSet
EndChar

StartChar: pi
Encoding: 960 960 231
Width: 495
Flags: HMW
HStem: -12 21G<387 387> 0 21G<86 153 86 86> 399 58<223 379 223 223 218 447 218 514>
VStem: 337 62<107.5 109.5 84.5 140>
LayerCount: 2
Fore
SplineSet
344 195 m 2,0,-1
 379 399 l 1,1,-1
 223 399 l 1,2,-1
 153 0 l 1,3,-1
 86 0 l 1,4,-1
 156 399 l 1,5,-1
 88 399 l 2,6,7
 79 399 79 399 79 414.5 c 128,-1,8
 79 430 79 430 81 436 c 1,9,10
 83.2068965517 438.206896552 83.2068965517 438.206896552 147.103448276 447.603448276 c 128,-1,11
 211 457 211 457 218 457 c 2,12,-1
 404 457 l 2,13,14
 416 457 416 457 475 447 c 128,-1,15
 534 437 534 437 533 436 c 0,16,17
 528 399 528 399 514 399 c 2,18,-1
 447 399 l 1,19,-1
 410 192 l 2,20,21
 399 130 399 130 399 102.5 c 128,-1,22
 399 75 399 75 416 7 c 1,23,-1
 387 -12 l 1,24,25
 359 38 359 38 348 67.5 c 128,-1,26
 337 97 337 97 337 124 c 128,-1,27
 337 151 337 151 344 195 c 2,0,-1
EndSplineSet
EndChar

StartChar: integral
Encoding: 8747 8747 232
Width: 332
Flags: HMW
HStem: -126 21G<28 28> 732 20G<374 374>
LayerCount: 2
Fore
SplineSet
271 508 m 2,0,-1
 197 90 l 2,1,2
 185 22 185 22 148.5 -22.5 c 128,-1,3
 112 -67 112 -67 28 -126 c 1,4,-1
 10 -97 l 1,5,6
 66 -51 66 -51 92.5 -1 c 128,-1,7
 119 49 119 49 131 118 c 2,8,-1
 205 536 l 2,9,10
 217 603 217 603 253.5 647.5 c 128,-1,11
 290 692 290 692 374 752 c 1,12,-1
 392 723 l 1,13,14
 337 676 337 676 310 626 c 128,-1,15
 283 576 283 576 271 508 c 2,0,-1
EndSplineSet
EndChar

StartChar: Omega
Encoding: 8486 8486 233
Width: 710
Flags: HMW
HStem: 0 21G<36 40 40 233 450 643 450 450> 658 54<385.5 516>
VStem: 92 82<304.5 434 304.5 447.5> 652 86<407.5 522>
LayerCount: 2
Fore
SplineSet
643 0 m 2,0,-1
 450 0 l 1,1,-1
 450 142 l 1,2,3
 557 202 557 202 604.5 286.5 c 128,-1,4
 652 371 652 371 652 461.5 c 0,5,6
 652 552 652 552 599 605 c 128,-1,7
 546 658 546 658 458 658 c 0,8,9
 345 658 345 658 259.5 567.5 c 128,-1,10
 174 477 174 477 174 340 c 0,11,12
 174 218 174 218 283 142 c 1,13,-1
 233 0 l 1,14,-1
 40 0 l 2,15,16
 31 0 31 0 31 13.5 c 0,17,18
 31 27 31 27 32 30 c 1,19,-1
 184 52 l 1,20,-1
 210 125 l 1,21,22
 153 152 153 152 122.5 208.5 c 128,-1,23
 92 265 92 265 92 341 c 0,24,25
 92 498 92 498 205.5 605 c 128,-1,26
 319 712 319 712 473 712 c 0,27,28
 590 712 590 712 664 646 c 128,-1,29
 738 580 738 580 738 469 c 0,30,31
 738 358 738 358 673.5 262.5 c 128,-1,32
 609 167 609 167 515 128 c 1,33,-1
 517 52 l 1,34,-1
 661 30 l 1,35,36
 656 0 656 0 643 0 c 2,0,-1
EndSplineSet
EndChar

StartChar: Delta
Encoding: 8710 8710 234
Width: 620
Flags: HMW
HStem: 0 58<113 483 113 570> 680 20G<385 457 457 457>
LayerCount: 2
Fore
SplineSet
385 700 m 1,0,-1
 457 700 l 1,1,-1
 570 0 l 1,2,-1
 26 0 l 1,3,-1
 385 700 l 1,0,-1
394 619 m 1,4,-1
 113 58 l 1,5,-1
 483 58 l 1,6,-1
 394 619 l 1,4,-1
EndSplineSet
EndChar

StartChar: lozenge
Encoding: 9674 9674 235
Width: 511
Flags: HMW
HStem: -79 21G<189 263 189 189> 680 20G<326 400 400 400>
LayerCount: 2
Fore
SplineSet
263 -79 m 1,0,-1
 189 -79 l 1,1,-1
 58 310 l 1,2,-1
 326 700 l 1,3,-1
 400 700 l 1,4,-1
 531 310 l 1,5,-1
 263 -79 l 1,0,-1
339 640 m 1,6,-1
 117 310 l 1,7,-1
 223 -19 l 1,8,-1
 452 310 l 1,9,-1
 339 640 l 1,6,-1
EndSplineSet
EndChar

StartChar: apple
Encoding: 65537 -1 236
Width: 923
Flags: HMW
HStem: -102 96<456 467.5 456 469.5> 500 96<456 466>
VStem: 112 96<242.5 254 242.5 256.5> 716 96<239.5 249.5>
LayerCount: 2
Fore
SplineSet
589 -89 m 2,0,-1
 566 -88 l 2,1,2
 552.428571429 -88 552.428571429 -88 534.714285714 -100 c 128,-1,3
 517 -112 517 -112 508 -112 c 1,4,-1
 462 -102 l 1,5,6
 454 -102 454 -102 438.5 -108 c 128,-1,7
 423 -114 423 -114 414.5 -114 c 128,-1,8
 406 -114 406 -114 390 -101.5 c 128,-1,9
 374 -89 374 -89 361 -89 c 1,10,-1
 337 -91 l 1,11,12
 322 -91 322 -91 304.5 -73.5 c 2,13,-1
 286 -55 l 1,14,15
 274 -49 274 -49 261 -48 c 128,-1,16
 248 -47 248 -47 239 -41.5 c 128,-1,17
 230 -36 230 -36 223 -18.5 c 128,-1,18
 216 -1 216 -1 210.5 3.5 c 128,-1,19
 205 8 205 8 191 13.5 c 128,-1,20
 177 19 177 19 171 28 c 0,21,22
 166 37 166 37 164 51.5 c 128,-1,23
 162 66 162 66 158 72.5 c 128,-1,24
 154 79 154 79 144.5 86.5 c 0,25,26
 122 104.263157895 122 104.263157895 122 124 c 1,27,-1
 125 149 l 1,28,29
 125 158 125 158 112.5 175.5 c 128,-1,30
 100 193 100 193 100 202 c 128,-1,31
 100 211 100 211 106 225.5 c 128,-1,32
 112 240 112 240 112 248.5 c 128,-1,33
 112 257 112 257 106 270 c 128,-1,34
 100 283 100 283 100 292 c 128,-1,35
 100 301 100 301 112.5 321.5 c 128,-1,36
 125 342 125 342 125 351 c 2,37,-1
 124 376 l 2,38,39
 124 391 124 391 140.5 405.5 c 128,-1,40
 157 420 157 420 159.5 425 c 128,-1,41
 162 430 162 430 164 446 c 128,-1,42
 166 462 166 462 170 468 c 128,-1,43
 174 474 174 474 189.5 480 c 128,-1,44
 205 486 205 486 210 491 c 128,-1,45
 215 496 215 496 222 511.5 c 128,-1,46
 229 527 229 527 235.5 532.5 c 128,-1,47
 242 538 242 538 261 542 c 128,-1,48
 280 546 280 546 285.5 549 c 128,-1,49
 291 552 291 552 306 569 c 128,-1,50
 321 586 321 586 335 587 c 1,51,-1
 361 585 l 2,52,53
 374 585 374 585 389.5 596.5 c 128,-1,54
 405 608 405 608 416 608 c 1,55,-1
 460 596 l 1,56,-1
 505 608 l 1,57,58
 518 608 518 608 534 595.5 c 128,-1,59
 550 583 550 583 562 583 c 1,60,-1
 590 586 l 1,61,62
 606 586 606 586 619 569.5 c 128,-1,63
 632 553 632 553 638.5 549.5 c 128,-1,64
 645 546 645 546 660 543 c 128,-1,65
 675 540 675 540 682.5 535 c 128,-1,66
 690 530 690 530 695 516 c 128,-1,67
 700 502 700 502 705.5 497 c 128,-1,68
 711 492 711 492 731 481.5 c 128,-1,69
 751 471 751 471 755.5 463 c 128,-1,70
 760 455 760 455 760.5 439 c 128,-1,71
 761 423 761 423 763.5 418.5 c 128,-1,72
 766 414 766 414 783 399.5 c 128,-1,73
 800 385 800 385 800 369 c 2,74,-1
 799 344 l 2,75,76
 799 331 799 331 811 312.5 c 128,-1,77
 823 294 823 294 823 285 c 128,-1,78
 823 276 823 276 817.5 263 c 128,-1,79
 812 250 812 250 812 243 c 128,-1,80
 812 236 812 236 817.5 221.5 c 128,-1,81
 823 207 823 207 822.5 199 c 128,-1,82
 822 191 822 191 810 178.5 c 128,-1,83
 798 166 798 166 798 152 c 2,84,-1
 800 120 l 2,85,86
 800 104 800 104 784 91 c 128,-1,87
 768 78 768 78 765.5 73 c 128,-1,88
 763 68 763 68 758.5 49 c 128,-1,89
 754 30 754 30 748.5 23.5 c 128,-1,90
 743 17 743 17 730.5 11.5 c 128,-1,91
 718 6 718 6 713 1 c 128,-1,92
 708 -4 708 -4 699 -20.5 c 128,-1,93
 690 -37 690 -37 683 -42 c 128,-1,94
 676 -47 676 -47 658.5 -51.5 c 128,-1,95
 641 -56 641 -56 636 -59 c 128,-1,96
 631 -62 631 -62 617.5 -75.5 c 128,-1,97
 604 -89 604 -89 589 -89 c 2,0,-1
462 -6 m 1,98,-1
 495 -13 l 1,99,100
 501 -13 501 -13 512.5 -5.5 c 0,101,102
 527.066666667 4 527.066666667 4 539 4 c 2,103,-1
 554 3 l 2,104,105
 566 3 566 3 575 13 c 128,-1,106
 584 23 584 23 587.5 25 c 128,-1,107
 591 27 591 27 604 30.5 c 128,-1,108
 617 34 617 34 622.5 38 c 128,-1,109
 628 42 628 42 634.5 53.5 c 128,-1,110
 641 65 641 65 644.5 68.5 c 128,-1,111
 648 72 648 72 657 76 c 128,-1,112
 666 80 666 80 670 84.5 c 128,-1,113
 674 89 674 89 677 103 c 128,-1,114
 680 117 680 117 682.5 121 c 128,-1,115
 685 125 685 125 696 134 c 128,-1,116
 707 143 707 143 707 157 c 2,117,-1
 706 177 l 2,118,119
 706 188 706 188 714.5 197.5 c 128,-1,120
 723 207 723 207 724 213 c 1,121,-1
 716 245 l 1,122,-1
 724 273 l 1,123,124
 724 281 724 281 715 295 c 128,-1,125
 706 309 706 309 706 318 c 2,126,-1
 707 335 l 2,127,128
 707 347 707 347 695 357 c 128,-1,129
 683 367 683 367 681 371 c 128,-1,130
 679 375 679 375 678.5 386.5 c 128,-1,131
 678 398 678 398 675 403.5 c 128,-1,132
 672 409 672 409 657.5 416.5 c 128,-1,133
 643 424 643 424 639 428 c 128,-1,134
 635 432 635 432 631 442 c 128,-1,135
 627 452 627 452 622 456 c 128,-1,136
 617 460 617 460 606 462 c 128,-1,137
 595 464 595 464 590 466.5 c 128,-1,138
 585 469 585 469 576 481 c 128,-1,139
 567 493 567 493 555 493 c 1,140,-1
 535 491 l 2,141,142
 526 491 526 491 515 500 c 128,-1,143
 504 509 504 509 494 509 c 1,144,-1
 461 500 l 1,145,-1
 429 509 l 1,146,147
 421 509 421 509 409 500.5 c 128,-1,148
 397 492 397 492 387 492 c 2,149,-1
 370 493 l 2,150,151
 359 493 359 493 348.5 480.5 c 128,-1,152
 338 468 338 468 333.5 465.5 c 128,-1,153
 329 463 329 463 316 460.5 c 128,-1,154
 303 458 303 458 298 454 c 128,-1,155
 293 450 293 450 288 439 c 128,-1,156
 283 428 283 428 279 424 c 128,-1,157
 275 420 275 420 264.5 416 c 128,-1,158
 254 412 254 412 250 407 c 0,159,160
 248 403 248 403 246 391.5 c 128,-1,161
 244 380 244 380 242 376 c 128,-1,162
 240 372 240 372 228 361.5 c 128,-1,163
 216 351 216 351 216 340 c 2,164,-1
 217 324 l 2,165,166
 217 316 217 316 208.5 301 c 128,-1,167
 200 286 200 286 200 278 c 1,168,-1
 208 248 l 1,169,-1
 200 215 l 1,170,171
 200 207 200 207 208.5 194.5 c 128,-1,172
 217 182 217 182 217 174 c 2,173,-1
 215 158 l 1,174,175
 215 147 215 147 227.5 135.5 c 128,-1,176
 240 124 240 124 242 120 c 128,-1,177
 244 116 244 116 245.5 105.5 c 128,-1,178
 247 95 247 95 251 88.5 c 128,-1,179
 255 82 255 82 265 78 c 128,-1,180
 275 74 275 74 279 70.5 c 128,-1,181
 283 67 283 67 288.5 54 c 128,-1,182
 294 41 294 41 300 37 c 128,-1,183
 306 33 306 33 315.5 33 c 128,-1,184
 325 33 325 33 331 30 c 128,-1,185
 337 27 337 27 348.5 14.5 c 128,-1,186
 360 2 360 2 371 2 c 2,187,-1
 386 3 l 2,188,189
 396 3 396 3 408 -5.5 c 128,-1,190
 420 -14 420 -14 426 -15 c 1,191,-1
 462 -6 l 1,98,-1
462 417 m 128,-1,193
 532 417 532 417 582 367.5 c 128,-1,194
 632 318 632 318 632 247 c 128,-1,195
 632 176 632 176 582 126.5 c 128,-1,196
 532 77 532 77 462 77 c 128,-1,197
 392 77 392 77 342 126.5 c 128,-1,198
 292 176 292 176 292 247 c 128,-1,199
 292 318 292 318 342 367.5 c 128,-1,192
 392 417 392 417 462 417 c 128,-1,193
505 292 m 1,200,-1
 557 292 l 1,201,-1
 557 360 l 1,202,-1
 366 360 l 1,203,-1
 366 292 l 1,204,-1
 420 292 l 1,205,-1
 420 117 l 1,206,-1
 505 117 l 1,207,-1
 505 292 l 1,200,-1
EndSplineSet
EndChar

StartChar: notequal
Encoding: 8800 8800 237
Width: 484
Flags: HMW
HStem: -35 15 168 57<74 430 84 420> 330 57<102 458 112 448> 567 14
LayerCount: 2
Fore
SplineSet
102 330 m 1,0,-1
 112 387 l 1,1,-1
 458 387 l 1,2,-1
 448 330 l 1,3,-1
 102 330 l 1,0,-1
74 168 m 1,4,-1
 84 225 l 1,5,-1
 430 225 l 1,6,-1
 420 168 l 1,7,-1
 74 168 l 1,4,-1
118 -35 m 1,8,-1
 374 581 l 1,9,-1
 415 581 l 1,10,-1
 159 -35 l 1,11,-1
 118 -35 l 1,8,-1
EndSplineSet
EndChar

StartChar: lessequal
Encoding: 8804 8804 238
Width: 484
Flags: HMW
HStem: 0 57<45 401 55 391> 87 21G<405 405> 249 57<88 98> 330 21G 448 20G<473 473>
LayerCount: 2
Fore
SplineSet
416 147 m 1,0,-1
 405 87 l 1,1,-1
 88 249 l 1,2,-1
 98 306 l 1,3,-1
 473 468 l 1,4,-1
 462 408 l 1,5,-1
 155 277 l 1,6,-1
 416 147 l 1,0,-1
45 0 m 1,7,-1
 55 57 l 1,8,-1
 401 57 l 1,9,-1
 391 0 l 1,10,-1
 45 0 l 1,7,-1
EndSplineSet
EndChar

StartChar: greaterequal
Encoding: 8805 8805 239
Width: 484
Flags: HMW
HStem: 0 57<45 401 55 391> 87 21G<59 59> 249 57<434 444> 330 21G 448 20G<127 127>
LayerCount: 2
Fore
SplineSet
116 408 m 1,0,-1
 127 468 l 1,1,-1
 444 306 l 1,2,-1
 434 249 l 1,3,-1
 59 87 l 1,4,-1
 70 147 l 1,5,-1
 377 277 l 1,6,-1
 116 408 l 1,0,-1
45 0 m 1,7,-1
 55 57 l 1,8,-1
 401 57 l 1,9,-1
 391 0 l 1,10,-1
 45 0 l 1,7,-1
EndSplineSet
EndChar

StartChar: radical
Encoding: 8730 8730 240
Width: 430
Flags: HMW
HStem: -126 21G<120 207 120 120> 680 20G<487 665 665 668.5>
LayerCount: 2
Fore
SplineSet
207 -126 m 1,0,-1
 120 -126 l 1,1,-1
 43 350 l 1,2,-1
 121 350 l 1,3,-1
 183 -45 l 1,4,-1
 487 700 l 1,5,-1
 665 700 l 2,6,7
 674 700 674 700 674 686 c 128,-1,8
 674 672 674 672 671 663 c 1,9,10
 671 658 671 658 521 643 c 1,11,-1
 207 -126 l 1,0,-1
EndSplineSet
EndChar

StartChar: approxequal
Encoding: 8776 8776 241
Width: 484
Flags: HMW
HStem: 155 59<314.5 343> 180 34 180 59<159 189> 313 59<342.5 371> 338 34 338 59<187 217> 379 20G<447 447>
LayerCount: 2
Fore
SplineSet
447 399 m 1,0,-1
 461 359 l 1,1,2
 414 313 414 313 354 313 c 0,3,4
 325 313 325 313 270.5 325.5 c 128,-1,5
 216 338 216 338 181.5 338 c 0,6,7
 147 338 147 338 114 313 c 1,8,-1
 99 353 l 1,9,10
 144 397 144 397 205 397 c 0,11,12
 234 397 234 397 288.5 384.5 c 128,-1,13
 343 372 343 372 376.5 372 c 0,14,15
 410 372 410 372 447 399 c 1,0,-1
420 241 m 1,16,-1
 434 201 l 1,17,18
 385 155 385 155 326 155 c 0,19,20
 297 155 297 155 242.5 167.5 c 128,-1,21
 188 180 188 180 154.5 180 c 0,22,23
 121 180 121 180 86 155 c 1,24,-1
 71 195 l 1,25,26
 116 239 116 239 177 239 c 0,27,28
 206 239 206 239 260.5 226.5 c 128,-1,29
 315 214 315 214 348 214 c 0,30,31
 381 214 381 214 420 241 c 1,16,-1
EndSplineSet
EndChar

StartChar: infinity
Encoding: 8734 8734 242
Width: 711
Flags: HMW
HStem: 100 75<155 204 155 204> 378 76<185.5 242.5>
VStem: 50 49<232.5 294 232.5 297.5> 626 47<259.5 321>
LayerCount: 2
Fore
SplineSet
493 100 m 0,0,1
 445 100 445 100 414 130.5 c 128,-1,2
 383 161 383 161 356 217 c 1,3,-1
 348 206 l 1,4,5
 264 100 264 100 167 100 c 0,6,7
 115 100 115 100 82.5 136 c 128,-1,8
 50 172 50 172 50 235 c 0,9,10
 50 327 50 327 105 390.5 c 128,-1,11
 160 454 160 454 232 454 c 0,12,13
 280 454 280 454 310.5 424 c 128,-1,14
 341 394 341 394 368 339 c 1,15,-1
 375 348 l 2,16,17
 457 454 457 454 558 454 c 0,18,19
 610 454 610 454 641.5 418.5 c 128,-1,20
 673 383 673 383 673 320 c 0,21,22
 673 228 673 228 619 164 c 128,-1,23
 565 100 565 100 493 100 c 0,0,1
180 175 m 0,24,25
 242 175 242 175 306 259 c 1,26,-1
 325 283 l 1,27,28
 302 329 302 329 277 353.5 c 128,-1,29
 252 378 252 378 210 378 c 0,30,31
 168 378 168 378 133.5 344.5 c 128,-1,32
 99 311 99 311 99 265.5 c 0,33,34
 99 220 99 220 121 197.5 c 128,-1,35
 143 175 143 175 180 175 c 0,24,25
545 379 m 0,36,37
 484 379 484 379 418 295 c 2,38,-1
 400 272 l 1,39,40
 424 225 424 225 448.5 200.5 c 128,-1,41
 473 176 473 176 515 176 c 0,42,43
 557 176 557 176 591.5 209.5 c 128,-1,44
 626 243 626 243 626 288.5 c 0,45,46
 626 334 626 334 604 356.5 c 128,-1,47
 582 379 582 379 545 379 c 0,36,37
EndSplineSet
EndChar

StartChar: ellipsis
Encoding: 8230 8230 243
Width: 591
Flags: HMW
HStem: -12 21G<62 84 259 281 456 478> -3 21G<131 131.5 328 328.5 525 525.5> 101 20G<112.5 133.5 309.5 330.5 506.5 527.5>
VStem: 44 107<15 92.5> 241 107<15 92.5> 438 107<15 92.5>
CounterMasks: 1 1c
LayerCount: 2
Fore
SplineSet
123 121 m 0,0,1
 151 121 151 121 151 81 c 0,2,3
 151 56.1111111111 151 56.1111111111 141.5 26.5555555556 c 128,-1,4
 132 -3 132 -3 131 -3 c 0,5,6
 95 -12 95 -12 73 -12 c 0,7,8
 44 -12 44 -12 44 26 c 0,9,10
 44 56 44 56 54 85 c 128,-1,11
 64 114 64 114 65 114 c 0,12,13
 102 121 102 121 123 121 c 0,0,1
320 121 m 0,14,15
 348 121 348 121 348 81 c 0,16,17
 348 56.1111111111 348 56.1111111111 338.5 26.5555555556 c 128,-1,18
 329 -3 329 -3 328 -3 c 0,19,20
 292 -12 292 -12 270 -12 c 0,21,22
 241 -12 241 -12 241 26 c 0,23,24
 241 56 241 56 251 85 c 128,-1,25
 261 114 261 114 262 114 c 0,26,27
 299 121 299 121 320 121 c 0,14,15
517 121 m 0,28,29
 545 121 545 121 545 81 c 0,30,31
 545 56.1111111111 545 56.1111111111 535.5 26.5555555556 c 128,-1,32
 526 -3 526 -3 525 -3 c 0,33,34
 489 -12 489 -12 467 -12 c 0,35,36
 438 -12 438 -12 438 26 c 0,37,38
 438 56 438 56 448 85 c 128,-1,39
 458 114 458 114 459 114 c 0,40,41
 496 121 496 121 517 121 c 0,28,29
EndSplineSet
EndChar
